<mxfile host="65bd71144e">
    <diagram id="uft2eNuCzqXPK3FEOjzB" name="Page-1">
        <mxGraphModel dx="1018" dy="731" grid="1" gridSize="10" guides="1" tooltips="1" connect="1" arrows="1" fold="1" page="1" pageScale="1" pageWidth="850" pageHeight="1100" math="0" shadow="0">
            <root>
                <mxCell id="0"/>
                <mxCell id="1" parent="0"/>
                <mxCell id="64" value="" style="rounded=0;whiteSpace=wrap;html=1;labelBackgroundColor=#FFFFFF;fontFamily=Helvetica;fontSize=30;fontColor=#333333;fillColor=#FFFFFF;strokeColor=none;" vertex="1" parent="1">
                    <mxGeometry x="20" y="10" width="780" height="500" as="geometry"/>
                </mxCell>
                <mxCell id="16" style="edgeStyle=none;html=1;entryX=0;entryY=0.5;entryDx=0;entryDy=0;entryPerimeter=0;fontFamily=Courier New;fontSize=20;fontColor=#333333;labelBackgroundColor=#FFFFFF;strokeColor=#000000;" edge="1" parent="1">
                    <mxGeometry relative="1" as="geometry">
                        <mxPoint x="120" y="261.25" as="sourcePoint"/>
                        <mxPoint x="238.32999999999993" y="261.25" as="targetPoint"/>
                    </mxGeometry>
                </mxCell>
                <mxCell id="53" value="request" style="edgeLabel;html=1;align=center;verticalAlign=middle;resizable=0;points=[];fontSize=20;fontFamily=Helvetica;fontColor=#333333;labelBackgroundColor=#FFFFFF;" vertex="1" connectable="0" parent="16">
                    <mxGeometry x="0.1775" y="-2" relative="1" as="geometry">
                        <mxPoint x="-10" y="-2" as="offset"/>
                    </mxGeometry>
                </mxCell>
                <mxCell id="15" style="edgeStyle=none;html=1;entryX=1;entryY=0.5;entryDx=0;entryDy=0;entryPerimeter=0;fontFamily=Courier New;fontSize=20;fontColor=#333333;labelBackgroundColor=#FFFFFF;strokeColor=#000000;" edge="1" parent="1">
                    <mxGeometry relative="1" as="geometry">
                        <mxPoint x="238.32999999999993" y="291.25" as="sourcePoint"/>
                        <mxPoint x="120" y="291.25" as="targetPoint"/>
                    </mxGeometry>
                </mxCell>
                <mxCell id="54" value="answer" style="edgeLabel;html=1;align=center;verticalAlign=middle;resizable=0;points=[];fontSize=20;fontFamily=Helvetica;fontColor=#333333;labelBackgroundColor=#FFFFFF;" vertex="1" connectable="0" parent="15">
                    <mxGeometry x="-0.4029" relative="1" as="geometry">
                        <mxPoint x="-23" as="offset"/>
                    </mxGeometry>
                </mxCell>
                <mxCell id="4" value="Server" style="sketch=0;aspect=fixed;pointerEvents=1;shadow=0;dashed=0;html=1;strokeColor=none;labelPosition=center;verticalLabelPosition=bottom;verticalAlign=top;align=center;fillColor=#333333;shape=mxgraph.azure.server_rack;fontStyle=1;fontSize=20;fontColor=#333333;labelBackgroundColor=#FFFFFF;" vertex="1" parent="1">
                    <mxGeometry x="238.32999999999998" y="232.5" width="80" height="80" as="geometry"/>
                </mxCell>
                <mxCell id="14" style="edgeStyle=none;html=1;fontFamily=Courier New;fontSize=20;fontColor=#333333;entryX=0.5;entryY=0;entryDx=0;entryDy=0;entryPerimeter=0;labelBackgroundColor=#FFFFFF;strokeColor=#000000;" edge="1" parent="1" target="4">
                    <mxGeometry relative="1" as="geometry">
                        <mxPoint x="278.32681415929204" y="172.5" as="sourcePoint"/>
                        <mxPoint x="278.32858407079647" y="222.5" as="targetPoint"/>
                    </mxGeometry>
                </mxCell>
                <mxCell id="9" value="" style="shape=image;verticalLabelPosition=bottom;labelBackgroundColor=#FFFFFF;verticalAlign=top;aspect=fixed;imageAspect=0;image=data:image/png,iVBORw0KGgoAAAANSUhEUgAAAyAAAAJYCAYAAACadoJwAAAABGdBTUEAALGPC/xhBQAAACBjSFJNAAB6JgAAgIQAAPoAAACA6AAAdTAAAOpgAAA6mAAAF3CculE8AAAABmJLR0QAAAAAAAD5Q7t/AAAACXBIWXMAAA4sAAAOLAH5m+4QAAAAB3RJTUUH4gMdCBolh7GanwAAY+pJREFUeNrt3XecXGXZ+P/P2U1C7yAQpIgIAhbYszQFQjLRxwIWJqJiZcDeK/CU7/f5Pc/3UYpUASsD2NFMUBFEzSSER1AkZ6kioEhP6C0JkLJ7fn/cs2Sz2TK7MztnZufzfr3yEnfOnLnPZDJ7X+e+rusGSZIkSZIkSZIkSZIkSZIkSZIkSZIkSZIkSZIkSZIkSZIkSZIkSZIkSZIkSZIkSZIkSZIkSZIkSZIkSZIkSZIkSZIkSZIkSZIkSZIkSZIkSZIkSZIkSZIkSZIkSZIkSZIkSZIkSZIkSZIkSZIkSZIkSZIkSZIkSZIkSZIkSZIkSZIkSZIkSZIkSZIkSZIkSZIkSZIkSZIkSZIkSZIkSZIkSZIkSZIkSZIkSZIkSZIkSZIkSZIkSZIkSZIkSZIkSZIkSZIkSZIkSZIkSZIkSZIkSZIkSZIkSZIkSZIkSZIkSZIkSZIkSZIkSZIkSZIkSZIkSZIkSZIkSZIkSZIkSZIkSZIkSZIkSZIkSZIkSZIkSZIkSZIkSZIkSZIkSZIkSZIkSZIkSZIkSZIkSZIkSZIkSZIkSZIkSZIkSZIkSZIkSZIkSZIkSZIkSZIkSZIkSZIkSZIkSZIkSZIkSZIkSZIkSZIkSZIkSZIkSZIkSZIkSZIkSZIkSZIkSZIkSZIkSZIkSZIkSZIkSZIkSZIkSZIkSZIkSZIkSZIkSZIkSZIkSZIkSZIkSZIkSZIkSZIkSZIkSZIkSZIkSZIkSZIkSZIkSZIkSZIkSZIkSZIkSZIkSZIkSZIkSZIkSZIkSZIkSZIkSZIkSZIkSZIkSZIkSZIkSZIkSZIkSZIkSZIkSZIkSZIkSZIkSZIkSZIkSZIkSZIkSZIkSZIkSZIkSZI0HlHWA5AkSbWL43gb4D+AArARcAvwdeB3SZIsy3p8ktTPAESSpBYXx/FU4HTg00DngIeWAVcA5wA9SZKsynqsktRZ+ykkSVKWpk+fvjtwCrDloIc2AF4FvAPYbvr06ffvtNNOTy1ZsiTNesyS2pcBiCRJLW769OmvAD5CCDiGsjFwMPB2QiDy9+nTpz+7dOnSrIcuqQ0ZgEiS1OKmT5++M/ABhg9AIKRdbwEcArwJiKZPn/6Pl73sZc8/8MADWV+CpDbSkfUAJElSQ3UC+wBnAJevXLny6DiON856UJLahwGIJEntaRrwOuBi4GdxHB9WKWaXpAllACJJUnvbDDgKmAd8K47jfeM4dn4gacJYAyJJUoubPn36Sxm9BmQ0GwP7A0cC20yfPv3vO+644zIL1SXVm3c4JElSvwjYFTgJuDKKoo/FcbxV1oOSNLkYgEiSpME6CfuHnA38Oo7jt8dxvFHWg5I0ORiASJKk4WwAHAr8APhJHMev7+rqslBdUk0MQCRJ0mg2J+ymPi+KovPiON7bQnVJ42URuiRJLa5ORejV2AToIhSqbzl9+vS7dtppp+VLlizJ+i2Q1EK8eyFJksYiAnYD/h34bZqmx3d3d2+Z9aAktQ4DEEmSNB6dwGuAb6Zp+ss4jo+0UF1SNQxAJElSLTYEZgA/An4Yx/HBcRxPyXpQkpqXAYgkSaqHLYA88Evg3DiO9+zu7naeIWk9FqFLktTiGliEXo1NgZhQqL7Z9OnT/26huqSBvDMhSZLqrQPYHfi/wBVpmr43juNmCI4kNQEDEEmSNFGmAPsD3wX+M47jjbMekKTsGYBIkqSJtinweeCDhxxySNZjkZQxAxBJktQIGwJfWrVq1R5ZD0RStgxAJElSo7wMODjrQUjKlgGIJElqlE7g0O7ubrtwSm3MAESSJDXSrmmaulGh1MYMQCRJUiNNAaKsByEpOwYgkiRJkhrGAESSJElSwxiASJIkSWoYAxBJkiRJDWMAIkmSJKlhDEAkSZIkNYwBiCRJkqSGMQCRJEmS1DAGIJIkSZIaxgBEkiRJUsMYgEiSJElqGAMQSZIkSQ1jACJJkiSpYQxAJEmSJDWMAYgkSZKkhjEAkSRJktQwBiCSJEmSGsYARJIkSVLDGIBIkiRJahgDEEmSJEkNYwAiSZIkqWEMQCRJkiQ1jAGIJEmSpIYxAJEkSZLUMAYgkiRJkhrGAESSJElSwxiASJIkSWoYAxBJkiRJDWMAIkmSJKlhDEAkSZIkNYwBiCRJkqSGMQCRJEmS1DAGIJIkSZIaxgBEkiRJUsMYgEiSJElqGAMQSZIkSQ1jACJJkiSpYQxAJEmSJDWMAYgkSZKkhjEAkSRJktQwBiCSJEmSGsYARJIkSVLDGIBIkiRJahgDEEmSJEkNYwAiSZIkqWEMQCRJkiQ1jAGIJEmSpIYxAJEkSZLUMAYgkiRJkhrGAESSJElSwxiASJIkSWoYAxBJkiRJDWMAIkmSJKlhDEAkSZIkNYwBiCRJkqSGmZL1AKTu7u4oTdNtgJ2BTYDlwBLgiSRJerMenyRJkurHAESZ6erqIoqiHdI0LQDvAnYBNgBeAJYC5TiOL0jT9B89PT19WY9Xk8fMrx8eQbQ5sC2wEfA88Hiaps9e/a/XpFmPT5PXAQccQBRF0erVq9Mbb7wx6+FoEovjeENgN2BvYEfgUeBvwD1JkjyX9fjU3qKsB6D2FMfxpsDbgS8Ar2XoYDgF/gl8D7jo+eeff/T222/PeuhqYbO+fgQp6Y7AB4F3AC8lBL0rgQeBXwI/7OtMlyz66jVZD1eTRBzHHYTP2uHA6wgrvQ8BfwB61qxZ88zNN99c62scDPwO2Dzr663CfOCoJEleyHogk1Ecx1OAA4EvAYcAWwNTgTXAU0ACnAVckyTJqqzHq/ZkAKKGiuN4KuGL8WRgJrBxFU9bDdwInAFckSTJiqyvQ61n5tdnbEYIOr4AvJqhg941wG2EX86XLTx50bKsx63W1d3dTZqmOwAfBd4P7ApMG3DIMuAm4Ezgd0mSPD/e1zIAUVdXVxRF0e7AF4E5wEtGOPxJ4HLg9DRN/2aWgRrNAEQNEcdxBOxBmPzNAbYbx2mWAwuBU4C/JEmyJuvrUvOb9fUZU9NwF/AkYAbVBb3PAf8LnELEtQtPWrQ66+tQa6ms8r6NMBkcbpW33zLCasgpQM94at8MQNpbHMfbAB8GPga8nOqaDKXA/cCFwPfSNH24p6cn60tRmzAA0YSq3AHcDjgO+AiwO7V3X3sUmEu4S313kiTm7Gs9M792RESUvoKQhnA0od5jrB4npGWdAeldC0++xruEGlEl/eUgQsA7k5BuVa2lwM+Ac4H7xvLdZgDSnuI43gh4I/AV4ADWXWGr1hrgZkKWwa/NMlAjGIBowsRxvDHwZuDLQEzIQa2XPuBu4NvADw477LDHzz777KwvWU3gkP95PRt2TNkOOB44AXgZtQW9KXAP8H3gws7e3kfn//sfs75MNZnKKu/LCau872J8q7wQvtvuBM4DfpokyVNVvr4BSBvp7u7uTNP0tcCJwJuoz9/7CtZmGVxvloEmkgGI6q5yB7CLcAfwDcCmE/hyqwgFdadRYw61Wt/Mr8/YGHgLIejtor5B72pCvv7pwBULT15kFxkBEMfxtoT0l49SffrLaFYC1xO+28qjTdYNQNpDpc5jZ+DTwPuA6RPwMmYZaMIZgKhuKvt57AZ8HjgG2KGBL19zDrVa18xTZkwhbVjQuxxYAJwSwQ0LTl7kXcI2VUl/eRMh4O1mfOkvo3kG+C0hELlluO82A5DJL47jLYD3EoKPVwKdE/hyfcA/gG8BP0iS5Mmsr1+TiwGI6iKO462BDxEK4F5Bfe4AjsdS4KfAN6Moum/x4sXeuZnEZn3t8CjtiHYDPge8m7ShQe8jwM+BcyKify44+Wo/a20ijuNOYH9C+su/AJtN8EumhM1ZfwBc0NHR8dANN9ywzuctjuPDgCuZ2OC7XgxAxiCO4w0IDTROJLRx3rCBL78K+AtwKjDfvzPViwGIalK5A/gGQgHcgUzMHcCx6s+h/iYhh/rprAek+pt5yoytgQ8AHwf2pD/obWwY0Af8HbgA+NHCkxd5l3ASq6zy7gJ8lnAnescGD6EXuB04G5ibJMmz8OI+I/9DWAFsBQYgVeju7u5I03Qf4KvAkcBWGQ6nqpU4qVoGIBqXSgHcfoQvxnoVwNXbSuDPhC/MBf6ymxxmnnL4hhDNJgS9BzNc0NvYQKT/LuFpwB8WnrzIz9okE8fxloSc+08CezGx6S+jeQG4FjifsFlrf7OPbbJ9l6pmADKCOI4hBLefIGQW7ExzzNdSwgaaPwQuiKLoIbMMNF7N8IFWC6l0etkZ+AxwLBNTAFdvTwNX4Z2bljbz1MM7SHkNIQ3hzcAWVX2FNfbX47Os/azdtPDkRX7WWtyg9JfXAxtkPaYBnq/82ZyR9xlpNgYgw6jsH/NORt4wNWtDrsRJY2EAoqpV7gC+h8YUwNVbfw71D4EL0jR9sKenxzs3LWDm1w+HiJcSPnfvJwS9A767mi4IgfBZ+zFwXmcUPTD/JOtDWk0lrak//eUoYMusxzSJGIAMEsfxVMKK7knAEVS3YWrWngf+SKgP+d8kSVZlPSC1DgMQjapyB/AI1hbANdMdwLHqBf4GnAP8IkmSZ7IekIY389TDNweOIeWzhMngCEFv0wUivcAdhM/azxeevMjPWgvYf//96ejoaMb0l8nEAKSi0lZ3D8KGqXnGt2Fq1p4kbNj6DeDOJEncsFWj8ktVw6rcAdyXtQVwW2Y9pjp6AbiOcOfmau/cNJeZpx4+DTiMcDfwUGDD6oKHpgtCYNBnbeHJi/ysNak4jjcjpL98nuZNf5kM2j4AOfDAA+nt7d0OKAAfofYNU7OWAvdS2bC1t7f3kZtuuinrMamJGYBoPd3d3aRpuhOh2PIDwEuZvJ+Vp4DLCXdu/uqdm2zNPPWwDoj2JtwNfDuw9XoHtW4g0v9ZOz2N0tuvPukaP2tNopL+cggh4J1Ba6S/tLK2DkDiON6YtY0DYuq7YWrW1gA3UtmwNUkSN2zVkCbrpFLjFMfx5sAcQpvJfWmPO4Ap8ABwMfCdNE2X9PT0ZD2mtnLEKYcTRexA2EfmOGAXRvt+qkcg0vggpP+zdhHwnTTtXHr1vy5o+CAUVJpqvIIQ8B5Na6a/tKK2DEAq+8fEhHTmNzDx+8dk6cUNW4EbkiRxw1atwwBEAMRxPI3Q4eUkQurLRlmPKQO9wK3AmcAvkyRZlvWA2sHMUw/fFHgHoevLaxhL0Nu6qyG9wC1UPmsLT160vOEjaGMD0l+OB06g9dNfWk1bBSCVOo9dCRumvgcaumFq1h4BLgXOSdP0Hpu/qJ8BSJur1HnsRVgKfgdDpby0n+eAawg5+9cmSbI66wFNRjNPO3wqKQcRgt6Z1JL20rqByHPAIsJn7bqFJy/yszbBKukvbyF853UxudJfWkXbBCBxHG/FuvvHtGOg279h63nAj5MkeSrrASl7BiBtqrLR0Q7ARwkpL7vi52GwJwidPc7Azh51M/PUwyMi9gC+CORJ2a4uJ27dIATgcWAecGYa8ferT1rkZ63O4jieQgg4TiKkv2ya9Zja2KQPQCrdI3OEJi4H09rdI+tlJXA9YZ+k+UmSrMx6QMqOE842VNno6B2ETi+vpT3qPMZrnc4eq1ateuTWW2/Nekwt6W2nvYVlLN+WtV1fdmfg3cB6TfxbNxBJCbtafxe4qK9j2mOLTvxDwwcx2VTqPHYjpL+8m/ZKf2lWkzYA6e7u7kjT9NWEwOOtwBZZj6kJPQNcSVj5vc3NgduTAUgbqXR6qU/KS/tZA9xE6Jb1myRJVmQ9oFYy87TDNgbeBNGXgW5GSnupx8S/dYMQgNVAD3B6BL9dcPIiu8iMUyX95QOEPT32pD3TX5rRpAtABnSP/BThM7cTzrFGkgIPAZcA3+rt7X3Itr3txX8cbWBAp5cvEjq91CflpT2tABYSOntcb2ePkc069bDONFon7WWzhk78WzsQWQaUCZ+1ZOHJi/ysVSmO4w1Zm/5yEKa/NJtJFYAM6B75OUL3yM7azthWeoHbgLOAeTZ/aR8GIJOYnV4m1KNAifCl+Y8kSezsMcCsUw+N0lG7vhiIVOlhQheZc1PSe64++Ro/a8OoNNV4NaHN6Vsw/aVZTYoApJJVcCjt3T2yXp4nNH85BZu/tAUDkEnKTi8N0QfcDXwb+MHy5csfv/POO7MeU+Zmnn7YVsD7gU+Qjtb1xSCkSgO7yPxk4cmLnsxkFE1qv/32o7Oz86WE9Jf3Y/pLs2vpAKQS6O5J2D/mncA2WY9pEnmcSvOXNE3v6unpsSHHJOUX9CTT1dU1JYqimHBHZjZ2emmEVUBC2Pn1qiRJns96QFmYddphG6TREF1fmm3i32zjGZuVwF+odJFZePKilpzA1VMl/eUY4DOY/tIqWjIAOfjgg1m9evVLCE00jic0N3AeVX8pcA/wHeCi3t7ex6wPmXz8hzNJdHd3R2mavozQ2eoYYPusx9SGlhF+sZ4C9LRLfcjM0w/tgGj0ri/NNPFvprGMzzPAVcCpEdEtC06+uu26yFQ2Tz2UkG51OLBh1mNS1VouAInjeBPgSEIt5f6YVdAILzbkAK5s15t7k5UByCQQx/E2wAeBjwN7YJ1H1h4GfgacG0XRvYsXL56UOfszTz8Uomgn0jF0fWm2iX+zjWfso18C/BC4gIgHF560aFJ+1gZy89RJoWUCkMr+Md2ErIIcZhVk4cWbe2ma9vT09LTFzb3JzgCkhcVxvBGhs9BXgAOBaVmPSS/qA+4CzmcS7vw68xuHbg7Ru4DPAvuSjjHtpdkm/qOep2mDEAhdZG4HzgbmLjx50bOZjWQCVTZP3Z616S9untq6mj4AqXSPNKuguTwM/BQ4F7jP5i+tzS/vFtTd3d2Zpul+hNSDfwE2z3pMGtY6OfvN/Au3GjPPPHQaKYeSDkx7qXyNjPVXQcsFIQ0ez9i9APyRsLnXNQtPXrQqs5HUWSX95ShC+st+mP7S6po6AInjeGvgQ5hV0Iz6gDsJQcjPkiR5OusBaXwMQFpIV1dXFEXRLoRiy/cC07Mek6rWn7N/WhRFNy9evLilcvZnnnHo+mkv60y0B3yVGIhkGYQAPAlcTtjI8G8LTl7Usl1kKukvB7A2/WWTrMekumjKAKSyf8wbMaugFawE/kS44bIwSZKVWQ9IY2MA0iLiON4SOJbQZnIv7PTSqh4CfgRcADzQ7EvIbzzrIFanU7cHPkpKgcFpL+uNfpyByGQMQuo5nvFdwf1AEfhuZ9T58PyTFmQ2mLGqpL/sztr0l5dkPSbVVVMFIHEcdwKvIWQVvBmzClrJ08BvCIXqtyVJ0rI3XNqNAUiTi+N4A2Am4YvxENzRdzLoBe4AzgF+niTJM1kPaCgzz3z9JsDbgC9CtB8wZdgJ9XCBiKsh9R3P2K0BbgHOAH698ORFyzMbSZUqTTU+DHwU018mq6YIQPbff/+oo6PjpcCngfcRsgqcF7WeFHgAuBj4TpqmS3p6erIek0bhP7QmVbkDuC8h9eCtwJZZj0l19wJwHaFt78Jmads786zXTyGkH5xEyizWSXsZJbBoprQsg5CBVgCLCJ+1Py88eVHT7TJcaarRn/5yAKa/TGaZByBxHG8BvJuQ0rw3ZhVMBr1Ubrikafqrnp6epr/h0s4MQJpQJfh4B/ANQhcO/54mtycIHYzOTJLkuawGMfvcw+jt7XsZoc5jDv1pL0NOnKMqg5DKscOeZwTNNvFvtvGMz2PAXOC0hScvujfTkVR0dXV1RlG0HzbVaCeZBSCVdKsjgJOB1+P+MZPRc8BC4L+iKLphsrbCb3UubTenmcB5hBxog4/Jbxvg34CPd3V1ZXYXrrev9zAiSoTOL2tz7iOG+BSmw/x8qOPTEc4zgqqOTxl1Rj/W1615PFWcJzvbEf5+5878+owDMx0JEMfxDlEUfQ34NfAuDD40gSopzScBlxKaGhh8TE4bEzJHLk3T9KhXv/rVWY9HQzAAaTJxHO8A/B/scNVuNgS+HEXRa7J48Zlnv24v4HxI9ydKh/5eGCoI6Q9ERj1+QKAw1gl4Vcc3cOLfTEHR+K8gBs6f+fUZu2c1iDiO9yBsovgl/L7TBKtkFnwC+FfCTR9NfrsBZ02bNm3/rAei9RmANJ/XEXZdVfvZEZhT+UXZMDPPed0UwiRw7W2iKK1ydQNcDWmC8YxPN/DxmafMaPiqWyX//gxgNubeqzH2JNR7bJz1QNRQuwNfjOPYv/cmYwDSfGZgr/t2NhvYosGvuRMRufV/nIZAZCjjWQ2JBh273s+r0GxpUM22OjN2c0jZJYPXPYZQ7yE1yrGEyajazyzC9gVqIgYgzWefrAegTG0JbNTg19wVeMnwqxhjXQ1phrQsV0OqtD0hTaFhKnci340txdUgldqPg7IehzKzNaGlt5qIAUjz8Zdye+uk8f8ud2Dg527ISXBqWlY14xlV062GTKPxLb63IgS9UqNsgK3s29kUwveOmogBSPOxXZwaLJ263sdu2El5ndOyBh875HlG0UwT/2YLiqrT6BqMjWj8Kp/aW4TznXbn33+T8S+k+RiAqLH6J7tDBRZ1S8ui/VZD6jWeySfb0ntJUuYMQCStFQ0zKXY1ZHzqMR6n65KkScYApPm4AtLesp9uNtVqSOpqSL3HI0lSxgxAmo8BiBpr2FWJZlgN6T8eW/bWezySJGXEAETSKKsSE7kaUu3xtuydkPFIkpQBA5Dm4wqIslPP1RCL1Ec+z6hcDZEkTU4GIGomq4AVwPNAX9aDaVv1Wg2xSH30czRTUCRJUoNMyXoAWk+7rYD0Af8ELgX+BDwNTAVeBhwLHApsmPUgG6jxU8koHfCpG/Dy/f+ZDnE8QDpoqCMeHw3x86GOTyGKhjnP4OMr5x3udYe93mqOTwcdPN7z1HM80ejnabdvj9b0HOEmyxb4O1gTaw1wO/AbYCXwZqCLsAGplCm//JpPO00hHgO+X/lzb5IkA1c9ro7jeB7wFuCrwKtp/IZp7ePFSfAQE+/hJrYvBi5DBCLrHV9Z3UiHmESvd3z/6kY0zOsyKAip/HCsE/Cqjm/gxH/U8zQwKNJEWA1cC5wBPADMAD4L7I5rWKqvFLgfOAe4NIqipVEUpX19fRcARwJfAvbBLBhlyABEWXgOuBL4BtCTJMnqoQ5KkuSZrq6un0VR9L/Ah4BPADtlPfgGyG4ysk4gUs1qSOWHTbEawvDHj3q9Ix3UjKshDRqP6iEF7iQEHpclSfIEQBzHtwK/Az4JvB/YOuuBalJ4CvgR8C3griRJegc89nh3d/claZouBD4MfBSYnvWA1Z4MQJrPZJ4y9AIJcCrw+yRJlo/2hJ6enhR4MI7jU4DLgS8AeWCzrC9mUotovtUQaI20rIashgy41prPown0KGGF90LgniRJXvzbqKz43hnH8VeAXwAnArNpr5RT1c8LwHzgdOD6JElWDnXQ4sWLU+C+7u7u/5em6a8Iv1Pfib9T1WAGIGqEFLiPsBz8syiKHl68ePGYTlC5i3NLHMefBH5G+GV9KKFeRLUYcXWD5lkNgdZIy3I1RGGV9wrCqsewq7wASZKsAv5YWRF5MyHl9DWYcqrq9AI3E27sXZUkybPVPGnx4sW9wE1xHH8c+DHhc3cY1oeoQQxAms9kmyY8TVgOviCKorsqX3rjliTJ88Dv4jheDLwD+DKwJ5MnlzXb9KthJ/d1Wg2BIdKsKg9apD78eVwNaRVrgB7gFOAP1azy9quknF5aSTn9ICE1ayesD9HQ+us8vgn8NIqipZXVjTGp/E79feV36tuwPkQN4ges+UyWKcJK4CrC0u6XkyT5W63Bx0BJkjyRpmkReCtwGqGgXeMy4CM36n4c6TA/H+r4ZthJ3Za9Yz+PxiEF7iXcEHl7R0fHZWMJPvr19PSkSZI8RPhOeytwMVDVHW21laeA8wgrZmcnSbJkPMHHQEmSPBlF0SWEIvX/ApZkfZGa3FwBUb31AX8l/AL9TZIkT0/UC1XqQ/4Zx/H/AX5JWEJ+E7Bx1m9C6xl0R3+k1RCGWOFoiSL1SbIaUq/xTJZbHdl7Cvgha4t+a97DaEDK6acIKacnYcqpQp3HHwh1Hn8Zrs5jvCZ5fYjfeE3GAKT5tPI/kiWEX8KXAA8OLLicSJX86uvjOP4woYjzRCDGz3d11pnUDqqfGPijwc9ptiL1sdaGDHdtjHae4TRTy94qxmNtSK1WAmXCzZY/13syCOukxyRMzpRTVacXuInwWau6zmO8hqgP6a+5bNX6kF5gWdaD0LqcoKkeVhK6uJwB3JYkyZosBpEkybKurq7Loij6E/A+4IvYYrB66wUi0RA/H+r4JilSH2vL3rEWqU/m1RCNRR9wG2EyeMVErvL2S5LkiTiOi8BC4CNAAXhJ1m+EJlx/A5dvEhq4LBlrAxeAfDEXAZ2krCkdX676eUPUh3wZ2JvWC4CXAfdkPQitq9U+RO2g1e5HrgD+Ffh4kiQ3ZRV89Ovp6SFJkoeBswg7qf8t6zdojLLP0n/x1QfVFIxYczFE/cGwx9exNmSoeo9R61gGHs/Y3/F61mPUQ71qVVSNJcB/AEdGUfSTRgQf/ZIkSZMk+Sfwf4CjgLmEbluanJ4kBB5viaLonEqdx5hPki/mtiHcjPsJEUfmi7kxt3lOkuTJNE0vIdQl/TewNOs3Z4x6gDuyHoTW5QpI82mlmUIfcDZw/kSkH9Sikoe9KI7jzxG6cHm3cDhD3UlvytUQJt9O6s22GqLhLCNM+M8B/prljZZKyulf4jg+jpByehKmnE421wL/Bvyp0qZ5zPIX5TYi5Y3AV4ADCOlTbwR+my/mTgNuKRXKVTeGqdRc3tfV1fXfURRdDnytcr5m9yRwRpIkT2U9EK3LLyzV4i7g+80WfAyyEJgHfDzrgTSvESbsL06yx1CkPmG1IVikXs146lGrooGuB/4TWFRJSWkKSZIs32+//X7Z2dn5Z+C9hJXobbMel2r2IPCZJEluHM+T8xfmOol4LSknEpqybD7g4S2AdxPqOX6YL+YugM4HS4XfV33+np6eXiCpNEi4DHhV1m/YCJ4mrBguzHogWp8pWM2nlVZAfrFmzZp7sx7ESCp3Ki8hdKrRUAa22I2GaG+7TspRA1v2DpvqZMveUc9RjxQxQbh7+sUkSa5qpuCj30033USSJA9HUXQOcFHW41FdXE3oJDkmcy4+PMoXczsT8TXgcuAY1g0++kXASwldI6+A3g/PKebG3OUqSZJ/EDpyNaNeYDFhP53vjbQRqLJjANJ8WmVWsBq44eabb856HNW4F3gk60E0vYFBxlCT2HrWhowYiFDl8ekoAdBALVYbYiDSLFbQAvshLF68uA+4lbARolrb3WNNu8oXc5unfVNPAK4kbCRYTfOVTuA1wAUpzM0XczPzxdxY2zzfQ0jFbiYPENIS39bX13f5eFPYNPFMwdJ4raF1NshaSZhItILG58YMTNtZp5aD9dOyaqoNGXR5rdSyt9G1IVWfp17j0STQh3/Tk0HVE/r8hbOnEaWHEdrkHgaMucAc2IhQyxEDl+WLuTPSiLvmHVeuZhzNFHw8C/wcODeKotvrufGxJoYrIM2nVX6BtNKt01YaawaGSL2qZjVkqBWOuqdlUeXxE7kakrbJaoikVpEv5l5BlH6LMOl+A+MLPgbaBjgeuCJK+Uq+mNu8xvM1ympC2tq7CLUztxp8tAYDEKn5NHaqOFywMTjIiEZ5brO37B18bKulZdWDQYjU8vLF3BbA+YT9YLau46kjYHdCq91PzPneoVlf6khS4E7gU8CcJEl+nyTJC1kPStUzBav5eKdejTdS6tXAx4bqKtUqLXuH65Q1+HoHP6dZ0rIa2rJXUhPbFHjZBJ5/KtCVdm4wlbDC0GweBy4EvhtF0b2VGii1GAOQ5uO0QNkZ2HY3qvxgYCAyMECB9QORrFr2wjCBiC17RzyP3zaShtaM66XPA78FvgEstrtVazMAkdpcWllhiPon64NXNIZbDYE6F6mPZTUEhgxELFIfm2acYkjSunqBm4BTgauSJFmW9YBUOwOQ5uM9STVWZSKbkhINm3pV+UG67nOGXTkYaTVk8LEv/nyIwKKuaVmuhkhSi3kAOA/4URRFSxYvXpz1eFQnBiBSc8mmX9GAICTMp6sINsa8GjLgh5nspN6g1RCYgECkQS17Jak52FZ3kjMAaT5OI9Rgg3b/Hm01BNZPyxptNYQBxzRFkfpYVkOo8viJTMtyNURSW1gNXAt8HbjGzlaTlwGI1O4Gd43qjyHSOq6GDH7uwBfKcjXEtCxJagYpcBdwBjAvSZInsh6QJpYBSPNx2qBsDF4ZGJyWlQ5euRitZS+sN8FvttUQi9QlKWv9bXW/F0XRPbbVbQ8GIM3HKYMaa72uV6y3GhLm9OkIqyGVH9SjSH2sqyEM8Zwx7QUCFqlLUsM9D1wFnI5tdduOAYjUfLJpjjpw8j/aakjmLXsHvU2tVKTuaoik9mZbXRmANCGnCWqsgcFGtashjWrZO9zkvv+1mqJI3dUQSarSg8A3sa1u2zMAaT5OD9RY/elNwwQbVa+GDHis9tWQyg9HmjS3Y8teV0MkBa22jahtdbUOAxCpuWT7S2WojliNXg1hwDFZF6lP6GpI5YGxBASuhkgK/3InulC7mgBhNaN/i9hWV0MyAGk+TgnUeIMnpFE6wmoI6wUodd3AcPBzBw6iGTcwHDjMgashUGUg0gRpWZJayTPAzcAeTMy/4hXAglKhPFpR+B2VYzcf4rEU+DvwDWyrqyF0ZD0ASetp7LQwGu6/07UBx5CPDfj5i/PtlHTwc/pXHUjXf63+xyLWv+p1fpYO8/NhzjfseQb/PB3hPIN/ng59PEMdP8T1Dnt8unbMY/2br+p472lIk0mpUF4BfAY4Ebif+v0j7wVuAD4I/KiK428E5g/x88cJBeZvSdP0QoMPDcUApPk4W1CDpetOrgdPwKPhJv/psI+lUTpMYJOuG7y8+NiACftQgQgDjlnv50MdP+jYEY9PxxGIUOXxaRUB08DrG+F1h1PV8UO8H5JaVqlQfjhKozOBtxL20HimhtOlwH3AV4G393am80qF8vOjPanSveqzhDa6dwH3Aj8F3gb8nyRJ7u7p6XFPDw3JFCxJa40x9erF57RKy94Ri9qbsEg9i5a9klrC3OPn9wK35Yu5zwA/A04CDgemjeE0TwM/Ac4H7iwVymMqDk+S5KHu7u5/S9P0LMKc8vEkSUYNXiQDkObjbUo11lD1HzB6sNFsLXsHHzv4tVquSD3D2hBJWdm+u7u7cyxdokqF8gtAOV/M3UhYffgK8EpGznJZBVxNSJW6tlQorxzvgBcvXrwaWJr1G6fWYgpW8zEAUYONlHo11GPDp14xTOrVi7Uhw6ZlDTwHawOBoeoo1qsNmaC0rKH+KQ55fJ1rQ4a6tglLy9IkMtZPiZrTrDRNdx7PE0uF8pMR6SWEtKyvAY8McVgf8FfgI8B7SoXyglqCD2m8DECk5tL4ScSLxdhDTHYHF2pXVaQ+qM5jUJH6sIXok6JInSqPT4c/fvD7PKFF6taGjGJTYMesBzGaOI4jYF/MapgM9gS+FsfxzocddtiYnzy3sCAtFcr3pvD/AUcS9t54rvLww8B/AW+NouiHpUL5qawvVu3LL6vm42xA2RicfrRe6hXhsWpb9g6TlpWmo7XsrfxgncdGaG/bjC17Wy4tS8PYCjgzjuP/BBYmSbIq6wENFsfxNsDxlT9qfR3AMcA+zz333JlxHF9WKfYek3mF8hpgcb6YO55QF7IPsAC4pRQekzJlACK1uyEDisoD1QYbLV2kPpbaEKo7vmWL1DWEgwmdfX4Tx/HpwF+TJMm8s08cxxsBbyTk+x/A2AqP1dw6gdcC3wbeF8fxqcD/Jkky2r4c6ykVystnl7qvBK6cn1+c9XVJLzIAaT5OEdRQKWkIAtYJKCr/MdpqyJCP1aFIfcTVkP7HJng1BEYIRCZzkbqGsBXwfmAGcFEcx9/p6+tbeuONNzZ8IHEc909OTwTexNCbwGly6A8yY+BXcRyfAdwx1gDYwEPNyBqQ5uPUQI0VhX070qHqDOq1P8g652O9x9YrUl/vfAzxWtUWqQ/18xHON/ixId+zDIvUBx870jip5jyqUgTsAvw7cEVHR8f74jjetFEvfsABB0RxHO8MfB24nJCmY/DRHrYBjgOuAP41juPtu7q6sh6TVBMDEKn5ZDM9jFg3CBmpI9bAn1dTpF5lF60Ri9Sr7aI11HNbskh9tHEOOHak44djz6Tx6gT2B74LXBrH8WFdXV1TJ/IF4zjeoq+v7yPAlcAXgelZvwlquAjYDfi/wBVRFL03juNNsh6UNF6mYDUfV0DUWINSr9JKrcOLaVnrZCilIxSiVw6qsW5kvdqQAY+tl6Y0Wm3I4OcOHESWRepjrQ2Boa9rnZ/XmJalsdoYeAtwQBRFpTiOz0zT9B89PT11+w6P43gaoYD4JOD1wIZZX7QyN4WQkvU91taH/Hk89SFSlgxAJAWDgo00HaI2BIYPNupcNzLiBoawfpH6aLUhDDhmworUJ6g2ZPD1Dvf3VkuRusZrO+CjwOwoir4Tx/HFq1evfvyWW24Z9wm7uro6oih6JaHA/O2EGhRpoE0I+30cCMyL4/jMKIr+vnjxYv/VqyWYgtV8/PJob42/Hz3CHiDD14bA2FOvhnjOKGlZdd3AcPBzm2UDwwlLy2L441VvHcAehM3ffj116tR3VLpUjUl3dzdxHO8QRdG/E/L9P4TBh0bWHwBfkabpl+M43u41r3lN1mOSRmUA0nwMQNR4LwYUQwcb6YgBxRiDjVHrRljvsRcDkfXON0SwMVLdyHrjbILakGYsUtd4TQUOAS4BfhDHcXela9Wo4jjeJE3T9wK/Af6DkO/v35yqEREC4P8BLp86dWo+juONsx6UNBJTsKTmk92kY2D9w6BUpjQaVBvS/1gtqVdj2MAwvETK2DYw7H8si5a9g669quObqGWvarE5MAd4HfCTOI7P6+jouP+GG25Y792P43gKIY3mJGAWIbVGGo+pwEHAxUA5juNTgMVJkrjxoJqOKyDNx+mBGiti3bvzg+/4D7EaMmzL3kauhtiyF1dDmt50QteqK/r6+k6I43iL/gfiOI7iOH45cBZwGXAUBh+qj00JtUO/BM6M4/jlcRz7L19NxQBEanvDp169OHmO1n9syJa9I6ZyVRls2LJ3gmtDxtGyV7XoAPYFziUUC78ljuO9gC8R2up+EnhJ1oPUpLQ98ClCPdHn4jjeJusBSf1MwWo+roCosYbqLgWDUpkGpPEM7JRV15a9w6de2bKXUY6vsWWvGmFDQorVAcAKwuZyE7p/iEQIgPcCTgXmxHF8GvCHJEmez3pgam+ugDQfAxBlY5TUqzGvhjDgOYMfq7aL1pCPsd75xl+kzvqT8GYrUh/rash40rLUSJsBO2DwocaaRthL5oeMsUGCNBEMQKTm0vjkmCHTlYYPNpq1ZS8wSsveMVzn4Oc2umXvkGlWE9yyV1I76G+Q8Cvg1DiOd7U+RFkwAGk+zgaUgUET3FFXEFqgZW/mRepUeXwzFKlLajPTgS8Q6pA+FsfxllkPSO3FAERqd9VO0IddDVn/sfVWQyYo9aqhRer9j1e7GhINsxrS1EXqktpIB7APcDbwy0qDhA2yHpTagwFI83EFRI011KpHtelKo9SNjNiyd8wrJcMHG1WvhgBVBVtVrYYMM/713tsWaNkrqZ1tAMwAfgxcFMfxftaHaKIZgDQfAxA1WDpMQDBSWhZDTN6zLlJvdMveAe/FUNc21GsNe56h3kuqPL5OqyGS2t2WwHuAy4H/juP4pdaHaKIYgGi8eoHVWQ9iEo4VGl6ETu/a/x5uYj94dE1cpD5MgFLVakg1NTBDPbfRRerrGWU1ZKjuV2t/7k0PSf0i4KXAVwn7hxwXx/HmWQ9Kk48BSPNplcnAMuDJrAdRjSiKXgAeyXocTewxIlYPOYGvdTVkiMfqUqQ+8Oe27B3+/Rj8nHWkQNpLxAoaq1W+4zRx+hr8emuAlVlfdIvpBF4DnAeU4jie3dXVNS3rQWnyMABpPq3yy/lG4MGsB1GNxYsXryZ0+milVZDGidL7iNInwn+v8/MB/93/HyN0xKp2NQRb9o5rNWRi0rKehrTR/45X4mSw3T1CCAoa5QXg/qwvukVtBMwGLo2i6LtxHL8qjmPnjqqZHyKNx7PA+UmSNPrOaS1+BfRkPYgqNDzfNoqiB4A/DxlIVLMaAoy8gmDL3rqshgx+XwY/Zz1VrYb8CbiHxnoaeKjBr6nmkQLXJknSsAAkSZJeYC7wXNYX38K2Bj4I/Ab4jziOdzzwwAOzHpNamAFI82n2FZBVhJZ9C7IeyFgkSfIo8G94F2w9V7/zryuBbwAPDLuiUfVqCIy8GtJCLXsHPmesRer9j9e6GjKxReqPEHHWwi9e29AbCUmSLCPcEOit9VxqSUuBazN43TJwddYX3+IiYFfg34Erent73x/H8aZZD0qtyQBEY/Eo8B/A6UmStGIKxQLgeMJKSKNzkMcig1UQbgBOpL9WZqj6jvGuhlRZNzL+lr0M8Vgrr4Y0pEj9ceBkspkIAvyQsPqi9tILXJCm6d8a/cJJkjwLnERrrIQ3uynA/sB3gF/EcTyjq6trataDUmuxz3OTmT59+luBA7IexyDPEe5YfhaYlyTJC1kPaDyWLl3Kjjvu+M8oin5LSAPZE2i27h7LgUuWLl36eCNf9N5LH2O3d2/7N4gSYHdgOhGdayfj0RAT82iIACMadMyA42D9x6JoyGAgGnxuqjlfNOi4EcbKEM8Z8FgURUOcY9A1rvda0SiByPCvN/Tx0QjnGebaRz9+DVH0J+CzRPxq4ReuzWQVYunSpSt22mmn24ADgR2yGIMabg1wCfC1np6eTFKhli5d+uj06dP/COwIvIwwkdb4TQX2AI6Momj36dOn3zV9+vSnli5d2uyZHGoCBiBNZvr06W+heQKQNcBfgC8CZyVJ8s+lS5c288rBqJYuXcrSpUufnT59+rXAfMIGTC+v/G8zyCQAAbjv0sfTHd++zz1Tpjz3G+A+QoC2dYgGYMiJ/5CT/ion6IMDiiFWHqKRgo3RApRqgo1RgpeommuJGP76h3ruwB+MmJY1xP8Z9fhouPOkwN3AfwL/t7Nj6q0LPv+/mf5b3nnnnZf09fUtIuw98HLADjuT1wPAfwOnJknydJYDWbp06WPTp0+/CriFEIRsj9kgtdoY6ALeCmw0ffr0u7bddtsVjz76aNbjUhNreKqHRhbH8fnAJzMeRgr8EzgH+DnwSJIkWb81EyKO442A1xN6ns8g+0nQw8DMJEnuyHIQM+bt3QHR7sDHgA8D2wKVjJ8Xc5bWSgcWdfT/RzTomGGeO+J5WRv/DPEYwz42zM9HfGyo8VYeSQd9VQ53jaNd5+DnDvnzEc5X1fHrHfs4KRcD340i7l7wueua6iZCHMebAEcQUgAPJtxV1eTwLPAz4JvA3yrF4E2hq6uLKIp2BN4NfIYQjDgnqt1q4GZCXeFvWqxZjRrIf2xNJo7j84BPZTiExyFMVtI0vbunp6epJisTJY7jrYAjga8A+5LdHbGmCED6zZi371RI48r78mZgo9qDkOGeP+DnQzwWDRu8jCPYSEeY/A/zWDRCgDKm6xzqucONf7jzVXV89DxwFWEisHjh565bRZOaNWsWzzzzzHZAnrDiugf+fmplq4D/BU4B/tjMabuVlrKvINz4ex+wTdZjmiRWAAsJn4HrG9n1TK3BL/gmk2EA8hzwW+AMIEmSpGknKxMljuMI2JnQavDjwE4ZDONhYFaSJA0v0hzJjHn7bEboBX8SYal9St0CkTGsIERpjashVY11pPGOFIhEIwQaUSNXQ3oJ+/ScShr9buHnrltGi6hMBncHPkH4d7ht1mPSmPQBdxCC3l8lSdISm9UCxHE8Degm3Gz5F8L+F6rdo0AJOAv4R5Ik1ocIMABpOnEcfxP4dANfcg2QAKcC8ystMttaHMedhFWQzxPuyDayUP0RwgpIUwUgADMuezWkvTsA7yU0JNgViKoPRMYQbIyyUlJVWlYdUq+qXg0ZPOaJXA0ZfJ0Df5pyPyHd5ScdabS0/LnraEWVyWBMSI10MtgaHiZ0Rbo4iqL7Fi9e3JITzTiONyfcbPkq4TNooXrt+gg1aN8FLn766acfv/vuu7MekzJmANJk4jg+l5CPOtHWqfPo7e195Kabbsr68ptKRvUhTRuA9Dt83j4dEexFCJTfC2zVkLSsISbuY07LGtdKyThXQ4Z87SHON9RYxp6W9TTwE1LOJ+XOhZ/7U9Pk2teiMhl8A6E+pAsbpzSj5cCvgTOBmydDqs1+++1HZ2fnDsAxhJstu+N8qR5WE254ng78NkmS57MekLLjP6gm06AApL/O43tpmv6jXeo8xqvB9SFNH4D0mzFvnw2AgwiTwxywQTsWqdd1NWSoY4YbZ7CSlKshOjWC6xZ85k+tuD/PiLq7u0nTdEfgWMJ34y74u6sZrCZ0STwFWDgZi40rKYF7EFICP4D1IfWyjNCF8pQoipLFixdPihsmGhu/xJtMHMfnEO64TITngCsJdR497VjnMV7d3d1RmqY7Ax8idIaaqPqQlglA+s2Yt8+WwFsIAdqrSelsmyL17FZD+oC/AqeR8puFn/nz00xylcng3oQg5N2E9r1qvBT4B2HFo7Rq1arHbr311qzHNKG6urqmRVFkfUj9PQycD5zhakj7MQBpMhMUgPTXeZxCqPNYnvV1tqpKfcirgM8xMfUhjxCK0G/P+lrHYsZlr4lI1+xECNBCAX86YBOPRqyG0CRF6mNu2TvMY4MfX2sJKRcAPyBNH1z4metbMtd+vOI43hA4hLDydgTNs4dPO3gcuIjQJfGf7bZ6HsdxfzOOrxIK1q0Pqd0K4P1Jkvwy64GosQxAmkwcx2cTJrf10F/ncTbwizVr1jxy8803Z32Jk8KA+pATgcOpX31ISwYg/WbM22f9Av6hCtCrCUJefKyeReot3bJ3GUQl4Ow05a9Xf/rPLZ9rX4tKauRbCZPBLFtnt4N1Wjq38+r5gQceSG9v7/aE+pDPYX1IPfycEISsznogahz/0TSZOI7PIkzeatWW+3k0WhzHWxPqQ75MfSZBLR2A9Jsxb9+NID2UEKAdRsq0pilSb72WvauBa0k5Bbhm4aeuN1WhYkDr7A8TUiOnZz2mSWZtS2f4nV0S1xpQH/JxQn2ILaPH77fA0c28X4zqzwCkydQhAGn7/TwabUB9SD32D3mUUAPS0gFIvxnz9tkaeDshQHslKR11T8uavC17+0i5i/Bv+bKFn7z+iRr+Kia17u7uzjRNX03YxPCdwKZZj6nFpcD9wLnAT3t7e5faJXFolZbRXYTvuDcDG2c9phbTC3w2SZILsh6IGssApMnEcXwm8IVxPHUNsJhwp6rsnarGG1Af8nngaMZXH/IoYQXkr1lfT70cPm/fKCLdFTge+Agp2zfNasiwr8s4V0rqthryKETfAy6kj3sXfqq96jzGK47jjQkts08EXgdMzXpMLehp4MfABcCdSZLYoagKlfqQHCEl8ACsD6nGakIL508mSfJo1oNRYxmANJlxBCApcA+hzuPnU6ZMeeT666/P+jLaWo31IZMuAOl3+Ly9p0RE+wFfAo4iZZNJ27J3/KshK4DfAGeScuPCT/zFnOhxiON4W8JKyBeBPbE+pBorgasJN7GuS5Jk0rV0nmgHHHAAfX192xPq3z5PSNFynrW+PuBOwu7opSRJnsx6QGo8/2E0mTiOzyD80qzG48AlhDoP9/NoMpUi2aMYW33IpA1A+s2Yt+8mkM4ETiLlIIjCncL2btm7BrgBolNJKS/8+F/sVFejrq6uKIqilwEfAQrAS7IeU5Na29IZfpMkydNZD6jVdXV1dURRtDuhLulDwHZZj6lJpMAS4NvAD6Moun/x4sWu7rYpA5AmE8fxqYQl3JFY59EixlEk23L7gIzHzF/uTl/fhi8B5gBfIOXlEIXvo1Zp2VuHupEojdZ2qkv5+ZTVfY/+4dPJxL3xbSiO46nA/oTvVXP017UEKi2d4cEkSZwM1lHls9dfH/IW2vuz9xTwU+BbwB1JkrR1Fz8ZgDSdOI6PJ/xCGCptp38/j1MJ+3lY59EixlAfcjswO0mSpVmPuRFmXLZvB2n6ckLx/gdJo9BJpu4te5tsNSQ89gRwSZRG3yHlHws/doMrmBMojuNNCXs4nIh7OCwDSsA5aZre1tPT42RwAlU+e7MIQfBBtNdn7zngD4Qbpn8xtU/9DECaTBzHuxEKAF834Mfr7OfR19f3yI033pj1UDUOlfqQQwm/iAbXh6ys/Pyb7XYncsa8faYBMfBVUv4ForDTcC1pWWNYDWlwy94XgN8Dp5Pyl6s/stgVzAbp7u4mTdMdCDupfw7Yjfb6PbgauI6wKe0id59unNe+9rVMmTLlJYT6kC8w+etDVhMa45yGjXE0hMn84W9ZcRy/EjiZsMvvGsKdqu8BdydJ4l3SSWDA/iGfAl4KPEZY+fpxkiQrsh5fVmbM22dz4A3AiaR0QdQJTJaWvb3AzZU6j6uuPmHxsxm+1W2tsofDnsCngWOBrbIe0wRLgbsIGwleliSJLZ0zMqA+5KOE1NzJVh/SR/isnQVcNnXq1Mf+/Oc/Zz0mNSEDkCZVuVO+PaFH9sPuEDr5VPYP2RrYkpAS8bgBJhzxq71Je6MdSTkW+AxEuwBRC7fsTYEHgPNI+TG9LL36o+21wtWs4jjeADiQkJaVAzbMekwT4FHg+8CFaZre09PT42evCQyoTfoS8FZgk6zHVAdLgO8AP4ii6D4LzDUSAxBJTWnGZft0kPJKUj4DvAeiLYFWa9n7DPBT0ug8Uu64+nj3VGhGcRxvQShQ/yrwGqAz6zHVwXPAlcA30jTt6enp8SZWE6rUhxxB+OwdTGvuXfM08HPCKv5fLTBXNQxAJDW1GZftswEph5ByIkQzgQ1aoGXvSuAa4FRSrr36uJ4Xsn4fNbJK297pwAcIqZE70Zq/Iwc2K/lDkiS2dG5yM2bMYPny5duxdu+aV9Aae9c8D5QJBeZ/TpLE7zlVrRW/XCW1oRnz9tmSlCOBr0D0KqCjUUXqY2jZ20foZHY6aXT51R/ueSrr901jU+lYtw+hUDjP8B3rmk0K3AucA1za29v78E033ZT1mDQGlbbtLwNOIOxds33WYxpGf5B7OiHItZ5NY2YAIqllHF7aO4qIXgp8CKKPE+5Srw0K6tKyd/jHopFTr5YC3yLlkpS+BxZ96OaWzn8++uKZRH0dmwO7EFpI70so1l5O2MX4FsKE98lSodzS1zqUAR3rTgQOY+jW6M3iKcJeHt8G7rKWrLV1d3dPTdP0tYTVkLfRPPUhfcA/CB0553V0dDxyww03ZD0mtSgDEEkt5/DSvp0R6auAL0L0TmCzDIvUlwGXkUZnk0a3Xv2h1t5T4R0/mEXnmmhbQneoYwjpIFuxbm76GuBZQgDyG6AI3D9JA5GtgbcTNpN7Jc2VGvMCIQXmNOB691iYXOI43gSYQQiCDyHb+pClhGYGFwP3GuSqVgYgklrWjNI+GwGHQ3Qi4W711AYWqa8G/kQa9lS4+gM3PZf1+1GrfDG3MaEY+8uEHZyruevf33bzPOAnpUJ50qWdVepDdgWOBz5C9qkxfcCthDqPK5MkeSbj8WiC7LPPPmy00UbbsrY+ZE8aGwQ/A8wl/Pu+zQJz1YsBiKSWN6O0zzbAOyD6MrAn6YBf0PUvUk+Bv5NyRkQ0b5MN1jx+xbtuy/otqEm+mOskBBwnEfZh2Wwcp1kJXE+YFJdLhfKkuxsfx/EUYD9C69SjyCY15kHgfOBHnZ2dD/3lL3+ZdKtOWl+lPmQ3Qn3I8Ux8EPwCsJCwd8x1Fpir3gxAJE0Kh5deGUV0vAyi/l/QL5mA1ZDHgAtJ+T6k9yx63y0tnYYwp5iL0lDj8TngPcCOdTjt04T2r6cBt5UK5UnXeriSGjOTELAdBExpwMs+S2h1+k1Cq9NJ975qdJUgeGB9yKZ1fok1wI2EwON3rq5pohiASJpUjijtMzUl2o+QRnQkKRu/+OD4V0OeA64g5QyIehYde3PL76mQL+a2BN5HaDm7J/Xd+yIFHgIuAb4VkT40t7Ag60uuqwMOOIC+vr6XAHMIHbNezsT8Tl0F/BE4Bfhf70QLII7jjQn1IV8FXk/t9SEpcDehi9rcvr6+h2+88casL1OTmAGIpElpRmmfTSGaRbhLfQDpgLvU1QciayBKKnUe8xe995aW31MhX8xtQLh731/YusEEvlwvcBtwFjCvVCgvy/r66627u7sjTdOXA58APghsU6dT9xG6jX0D+GWSJE9mfa1qPnEcV9JP+RKwF+OrD3kYuBC4CLjHAnM1ggGIpEnriLl7k0Yd2wPvAj4P7E5a+d4bOQgJeyqknA3RpR0dnY8sPKa17wbmi7kOQivdrwJHAls28OWfp39jRvhjqVBu+RWkweI4ngZ0E97fNwIb1XC6R4DvAsU0Te/r6emxzkPDqtSH7ErYO+QjwA5VPvVZYB4hre/WJEkm3b9LNS8DEEmT3ozSvh3AHoS71B8gHXCXev1A5EmIfkjKt9KIv19zzK0tfTcw//3Z0JFOr1z7h4CXkt13/xPAZcAZKdw1r1Bu6fd2KHEcb04IQE4E9mdsqW0rgF8DZwI3OyHUWFTqQ15DSAl8B8PXh7wALCKsrl2bJMnzWY9d7ccARFLbmFHadxpwAKHo+ghStiRMENeQRs8Ai0g5F7h+0TG3rcp6vLXKF3ObEdp3fh54NbUVS68mTJA3rfE8KXAP8D3gwr4NVz922bHXZP1W1VWlPmQ6ocbm08DOjPz7djVwA6HOY0GSJCuyvga1rkp9yKHAJwlNEjYnfP5WALcTuqj9PkmSp7Meq9qXAYiktjOjtO8mhHSs3QgT6mWk0X3A3Yveddsk2M9j9lRIDyHUv8yAAYX4Y9e/z8eZQA+h4PUz1F50vbpyvtOB35YK5ZZ/3wfr6urqjKJob+CzQJ6woePA96yXtYW/v0jT9LGenp6sh61JotKtbWfgJYTakCeB+9M0fca0PmXNAESSJon8RbMi0ugVhBadeWDbGk/5CGGlopjCvfMK5TR/0awO0mhtOlvtRdfLgfnAKaRRUjp+/qTb6CyO4w2BVxGK/w8FtgD+CSwArgXus/BXUjsxAJGkFvfOn+XoeI7tWFuE+jJq2y15BXA5YdXjpqGKxvMXzp5GlNar6BpCJ55LgXMiuHduoTzp7tB2d3dHaZpOI/zdrAbWJEmS9bAkqeEMQCSphc25MLdRGvEWwr4nMbXtB7AG+AuVWoRSoTxqLUK+mKul6Hqw/nSvbwI/LRXKTzXkTZQkNZQBiCS1oPxFszpJoy7CxP+NwGY1nC4lpASdBfyir4NHL/twufqxFGcD6Y7AsYT6kF2o7ffLSuB64FRSyqXjyysn8r2UJDWWAYgktZA5xVyUhgn+54D3ADvWeMrHgYuB70J0d6kwf9y1CJX6kFcSgpD3UPteI08DVwKnAbeWJmHbXklqRwYgktQi5hRzW6ZhleHTwJ7Ulu70PHAVYS+AxaVCuW5thyu7rR9CWJ2ZSW27rafAg8APgG/1dUYPXfah+fUaqiQpAwYgktTk8hflNiDlCMKE/nXUNqHvBW4k7Er+u1KhvGzCxl3MbQm8FfgKYR+SWgrje4HbCIXxl03kuCVJE8sARJKaVL6Y6wD2IXSaOoraUppS4H7CnhM/i9LOpXOP//2EX8Oc4qwoJXop8EFC696dajzl88A1hEL5a4fq0CVJam4GIJLUZI7+Xo6okx0JE/YPMfpO2qN5GvgRcAFwV6lQ7m30NeUvynWSsi/wBcIeJbUUzUOoXfklcEYacde846wPkaRWYQAiSU0kf1FuM1LeCXyekLY0pYbTrQQWAqdC9KdSYX7m3aTyxdxGwGGEdLLDqK1tcArcQ9gs8UI2XPlY6dg/Zn2JkqRRGIBIUhPIF2dPhfRg4CTgCGDjGk7XB9xK6B51RalQfibr61v/enPbAG8HvgS8ktrqQ1YDPcDpwG9LhfJzWV+fJGl4BiCSlKFKW909CBPxPLBtjad8CDgf+GHUFz0094T5Tbuj+NHF2VFEuitwPGEH9+1rPOUyoEyoD0lKhfKarK9RkrQ+AxBJysBR3z+GaR1PbMvayffLqG0V4FngF8C5wF+zqPMYr3wxNwXYjxCEHQVsUuMpHwZ+Vnkv7i0Vyk0bhElSOzIAkaQGm1PMbZTCm4EvA93UVgexCvgjoa3uNaVC+YWsr2+88sXcJoR9Q04EDqa2+pc+4E7gPOCnpUL5qayvT5IUGIBIUoNUOkHtT6jzeCO1dYLqA+4AzgB+WSqUn8z6+urh2G+/nZXTlm8HzCF0zNqD2n5XrQT+DJxKyoLS8eXMC/Elqd0ZgEjSBMsXcxGwC/BZ4L3AjjWe8mHgu8BFEN1XKjRvncd4VfZAeTnwccIeIrXWxjwNXEEoVL+1VLBtryRlxQBEkiZQZTfwY4FPAXsBnTWcbjnwa8Ju4De3Q5F1vpibBsSE3dTfBGxUw+lS4EHgB8C30o70oXkfXpD1JUpS2zEAkaQJkL8otwEpRxDqGV4HbFDD6VYD1xPqPBaWCuUVWV9fo+WLuc2ANxDezy5qqw/pBW4jBHKXlQrlZVlfnyS1EwMQSaqjo4u5jgj2Ab5K6Oi0ZQ2nS4F/AGcBczvXbPzYzz96edaXmJl3XvgGOqK+HYH3ENLZdqW232PPAdcQArtrS4Xy6qyvUZLagQGIJNXBOy6aRWca7Qh8AvgQsDO1fcc+DhSB70H0z1JhvjULFfni7A5I9wI+QwhGtqrxlI8DlwFn9JH+/bLCAt9rSZpABiCSVKN8Mbcp8E5C16ZXU1t60HPAbwndrRZ7V354+WJuA+AgQlpWjtrS3FLgn1SK+6dEfY9detzCrC9RkiYlAxBJGqd8MTeVsF/FScARwMY1nG4N0ENIB/qDdQnVqxT6v5mQ9vZqaiv0X034ezgduLJUKD+f9fVJ0mRjACJJ45Av5qYDJxNSgGppEZsC9wLnAJdGafTw3OPnZ315Ledd33tD1NfZtxOhZe8ngJfWeMplwFXAfxJFt5eO8+9EkurFAESSxihfzL0KOB84FOio4VRPAj8Evg3c5d4UtcsXc53AvsDngTyweY2nvB343Kq+qfMvP+GqrC9PkiYFAxBJGoN8MfcKQtBwUA2neQGYT0jzub5UcHfuestflNuIlEMJ9SGHAdNqON09wIdKhfL/Zn1dkjQZGIBIUpUqe1FcDBw9zlP0ArcApwG/LRXKz2R9TZNdvpjbGngb8GVgb8a/YnUD8K5SoXxf1tckSa2ultQBSWo37wbeMo7npcADwL8BR/WlHZcafDRGqVB+MiK6BDgS+H/Aw+M8VTfw0TkX5mopcJck4QqIJFWlcif9SsaeevUMcCnwTdLob6Xj5/dmfS3t6uji7CkR6WuBLxE2idx0jKd4AHhjqVC+I+trkaRWVkuveklqJ68l7HBerVWEXbZPIeyy/ULWF9Du5hXmrwGSfDH3EULb5BMJbZSnVnmKnYDXAwYgklQDU7AkqTpHAptVcVwf8FfgY8AxpUK5bPDRXEqF8oqpT3ReQeiS9RngLkKa3Gg6gKPyxdyGWV+DJLUyAxBJGkW+mJsG7FnFoasIna3eEqVcUiqUn8p67Braz77ye0qF8mMQfRd4K2EH9DVVPHUPam/tK0ltzRQsSRrdVGCLKo67Gzi3VCgvyXrAqk6pMD8F/pEv5r4GzAJeMcpTNgVcAZGkGrgCIkmj66C6GzbLUliR9WA1DikrqO7vrrPyR5I0Tq6ASNIoIqorEGhnRxdnRtAxNQqrAxsR/ndDwgaA/RP23sqfNcDKyp8XSHkh7YhWzTtufmY7waeQ2hZSkhrDAESSNGb54uxOSLcgdIZ6LXAIsCuwLaFGYhNC6toU1q629w34sxp4DlhOxNNRmj6SL+b+BvwZuCeCR4EVcwtlYz9JmmQMQCSpheWLs6ZCtDew1QiHPQr8vVQoV1NkPdJrRRBtA3RD+i5gf+ClwJZU38p2JCkhKHkyhXuBP+eLucsIXcWeLRXKE/12SpIawABEklpa9F7gNEKR/HCrBY8BxwELxvMKc4qzo5R0F+CDwDsJHcE2mYiLqZx3E2Bn4FDgBOB24Kf5Yq4EPFJyVUSSWppF6JLUovLFWR3AvwDbs7b2Yqg/uwDd43uN3NYp6ZeB3wP/l7DqMRHBx1AiwsrO64GzgKuAE/LFXDX7sUiSmpQBiCS1rDSi+o5MY0qResf3cuSLuW7gUuD/EVY9suz+NJVQa3Iu8ON8Mffq1NYAktSSDEAkSevIF3MdnZ3kCcHHbEInq2axIXAUcOmc4uw3vPP7M21eJUktxgBEkvSidxVnRcAxwPnA7lmPZwR7A9/v6Oh4U9YDkSSNjQGIJOlFfUSHE4rat896LFXYBTinkiomSWoRBiCSJADyxdyOwNcJHahaxSuAU/LF3EuyHogkqTq24ZUkMefiN0RpX9+ngIPGeYoXgCeBx4GHgXuApcBTwCrC5oMdhBqOrQgrLLtW/ncbYGtCd63x1HQcAXxgzndmnzn3Y/OtTJekJmcAIkki7evbDXg3Y1sZXwPcDcwDriZsHvgksCKNWLVmg97eXx979XpPet/3ZrGqg86+KJoKbEzYw2QnIAbmAPsBm45hHJ3AJ9Kp6a+Bv2f9XkqSRmYAIkkCOJqxFZ0/AJwOXJbC0nmFcm+1T/zxRxYA9Fb+9K+c3HP093N/jDq4BDgA+DIwi+p/T+0OHEnYL0SS1MQMQCSpzeWLuY2BN1P96sftwMciuG5uodxXr3HMO6EM8DTwh3wxlwCfB75EWCUZTQS8L1/M/ahUKD/WuHdPkjRWFqFLkraj+tWPZ4AvlwrlP9Yz+BisVCg/CfwPoSPXqiqf9grChomSpCZmACJJ2oFQBF6NBcCiRgyqVCivJKRU/b7Kp2wO7N+IsUmSxs8ARJK0C9WlOaXAb0qF8nONGlipUH4WOBWoNq1qdv6iWRs0anySpLEzAJEk7UDoJDWa1YQWu42WAH+p8tiXk0ZbZDBGSVKVDEAkSdMY3/4bDVEqlJ8HfkEIgEazNaGtrySpSRmASJJWEDYKHM1UYHpGY7wOeLSK4zYENstojJKkKhiASJIeJGwqOJoI+EC+mNs+gzEuBW6r4rgnCK18JUlNyn1AJEkPEVZBqinefj1wdr6Y+0/g76UJbMU7UKlQXp4v5r4IvI2QYpUOcdhqYAFE9zXkXZMkjYsBiCTpYUKXqWpa8XYCxwAHAlfli7mfAndEUfr0S3Z4ZM0Fb/7rhA2yVCjfTtgEUZLUwgxAJElPAH8F9qry+A7CxoWfAI4F7k/T6O+PLN3hz/niDn8ClgBPQfRcFKWr5x5XTqs8rySpDRiASFKbKxXKqyorGW8GNhrDUyNgy8qf1wDvJKRyPQU8Cukjacp9+WLuZuAOwirLM8By4PmoI10z98MLDE4kqc0YgEiSAMrAYuCwGs7RQehAtRlhc8N+vcDzhODkWeBJ4NG0L3o4X8zdTiguX0oIXJ4l5fnS8eXerN8QSdLEMACRJFEqlJ/KF3OnAvtSXS3IWHQCm1b+DO6g1QesBJYRulc9SsT9lVWTPwH3Ak9EUfr83ONcLZGkycAARJLU73fA2cC/UV1HrHroIKR9bQS8BNiz8vP3EFZMHgPuTdPo+nwxdyVwR5Ty5NzjG9N9S5JUf+4DIkkCoFQorwHOAM4ipExlqT+da3dgFnAS8BvgD2nE2fli7qCji7mx1KtIkpqEAYgk6UWlQvk54L+ALxA2KGwWEWH/j/2ATwO/ieDSfDGXyxdz07IenCSpegYgkqR1lArl54n4PvAO4OeE+oxmEgHbAkcBvwDOzxdzu2U9KElSdQxAJEnrKR1X7i0VyglwPPB24CeEDQubrTvVVpUx/jxfzB2c9WAkSaMzAJEkDatUKC8vFcoL0zDJzwEfAa4A7ifUiTRDZ6oIOAAo5ou5g7IejCRpZAYgkqRRzSuUXygVyrf3dfRdBBwDzCSsjHwR+BVhJ/WHCZ2r1mQ0zL2Bs/LF3C41n0mSNGFswytJqtplH14I8BzwT+Cf+eIb/gB93yIUiG8NbEdop/tSYC9gD0K9xubAJoR2uxsCU5mYm2AHA5+YU8z9x9zQ1UuS1GQMQCRJ41Yq/AHCRoKPVv7cAbDjx97GIQet6IxgGmv3+diUEKhsRQhU9gBiYGdCkLJl5bhaApMI+EAKPyKsykiSmowBiCSp7pZ+59fM+w69hDqRIfcUyRffEEHfNEJgsjWwI/AKQnpXN2EVZZNxvPx0Qr2KAYgkNSEDEElSJkqFP6SE1ZOVwBPA34Fr8sXcDwgrJK8AjgTmALtQ/cpIBLwjX8xdVCqUm62FsCS1PQMQSWpjcy7MRWkUDf+7ICIF1pSOm9+wMZUK5dXAEmDJnAtzf0wjvgN8FPgEYbWkGi8npHUZgEhSkzEAkaQ2lS/mNkzh05AePuxBKS8A3wYWZDHGuceXe4F/5Iuz/x3S+4BTqS4tawtCAHJPFuOWJA3PAESS2lcX8K+EovCRbJ8v5pJSofxMVgMtFeavyhdzlxB2Z59dxVM2IBS1S5KajPuASFL72hLYuIrjdmX0IGXClQrl5cC1VR7eSeioJUlqMgYgktS+VgC9VRy3NbBT1oOteLDKMUMoRpckNRkDEElqX8sIHahGsxkhXasZbEp1v7v6gBeyHqwkaX0GIJLUvp4hrIJU4135Yi7TNKwjz3gzwCupbmVjFfBsluOVJA3NAESS2tdThN3Lq9EFvC7LwW6w1aotgFdXefgywt4ikqQmYwAiSW0qJXoGuKvKwzcBTs4Xc1nWghxB9QHIEuDxDMcqSRqGAYgktal5hfm9wOWEdKVqHAJ8PV/MbdvoseaLuVcC/0moR6nG/NUd0VONHqckaXTuAyJJ7e0awmZ9e1VxbAdwLLBVvpj7D1JuLYWNAidMvpjrBA4GzgD2q/Jpy4Hf/frD89OJHJskaXwMQCSpjUWwJIUrqS4AgbC/xluB1xLx63wxdzFwZxSxfO5x5bpM+PMXzYpIo42BVwAnAHlghzGcoge4pVHvoSRpbAxAJKmNzS2U+/LF3LeBo4A9qnxaBOwMfBI4Bvh7mnJzvphbAPwDeBJ4jtAGdw2hJW4KURpFaZqmURTOkXYQApoNCJsGbgnsRspM4ABCx6vtGFu68PPAuaVC+cms31tJ0tAMQCSp3a3h70zhHOB0YMMxPDMiBAjbETpkHU/oPrWM0AJ3OSEgeAFYDWlvmtJXCTymEAKPjQkF7psP+LMh499E8NfA77N+SyVJwzMAkaQ2V/poOa2kUh0EvL+GU00Dtqn8ycLtwH+VCuVlGb2+JKkKdsGSJFEqlJcDJwFXZT2WcXoA+HypUL4964FIkkZmACJJAqBUKD8EfJyQxtSX9XjG4J4w7nR+1gORJI3OAESS9KJSoXwf8BHgXEINRzPrA64Djk370t+WCgtsuytJLcAARJK0jlKh/ChwMvABYDGhk1WzeRz4OvCuUqH853knGHxIUqswAJEkradUKL8A/BJ4G/A5wr4a1e6YPlFS4AngB8CRhILzJRmPSZI0RnbBkiQNqVQoAyw9+vu5b0URlxHxOkKXrIOAbYGpDRrKc8B9QAn4FfDXUqH8fNbvjyRpfAxAJEkjmndCOQWWAqV8MXclsCuwL5ADDgZ2ZO3+HbWurPcS9g55ihB0/B74I3BnCo/MK5R7s34/JEm1MQCRJFWtsvJwB3BHvpj7FbAFYSPCHSt/dgP2AnYBNiUEJdMIv286CBsMpoS6klWETQqXAfcT9vG4B3gIWAI8nsKyeYXyhNd3jHfXQ0nS2BmASNIo0jBhrmYSPDWCzqzH2yilQnkNoSbjCUJQwtsvms2UNJ1CCDqmEdK0phDelyj8iVJIewmrHauAlUSsIupbU/rwwmwuJmIK1f1OtNhdkmpkACJJo+sFVlZx3O7AzHxx1q9KhQXN2Dlqwv3quPkQVjfWEGo3ml7+otwGpLyZkFo2mtWVP5KkcTIAkaTRrQIeq+K4LYDvQPSWfDH3DeDOUqHcShv6tZV8MdcBvIqUrwJHAZtV8bQngRVZj12SWplteCVpFKVQ+Hwd1e0Ovg1wHHAFcGK+mHvJ0Re8OetL0AD5C99IvpjbCfhv4DfAsYQi+mpcB+kzWV+DJLUyAxBJqs4fgIerPDYCXgb8f8Bvog1XHZMv5jau/5DGVDpt7QKQL+Y2I+r9MCFA/CqwM9W/kc8Dvy0VFriqJUk1MAVLkqpzN3AN8J4xPGcqcABwIbAgX8ydAtENpcL8OtWHRBGwQZUHZ72JYKbyxdxU4HXAScAMYKNxnOZmIMn6WiSp1bkCIklVKBXKK4EzCS1ix2pTwo7il0F6Vr6Ye3n+olw9Or9uDGxf5bFtWbeQL86O8sXcXsB5hI0M38T4go8VwDdKhXI1tUCSpBEYgEhStSISQhDywjjPsD3wSeBKUj6TL+a2rnFEexA6b42mD3i2Ye9TE8if/zbyxdx2kJ4EXAmcQKjPGY8+oFg5jySpRgYgklSl0nHlPuBbwPlU15Z3KB3AnsDpwK/yxdyR+WJuw7GeZE4xN40QzFSzArKa0L2pLeSLuY3ZaMW7gMsJdTi7M/7fd33AXOC/K5swSpJq5OavkjRG+WJuE+BTwFeAbWs83TPAVcCpEdwyN3TcGuX1Z3dAWgDOoLruTU8Bs0uFck+279zEyhdzU4AuQp3HGwipb7VYAXwf+B9TrySpfgxAJGkcKpPd1wEnAzOpvhh8KCmwBLgUuDCCu+eGmpN1HH3hLKIo2gr4CHAiUG0K153ArFKhvCTr920i5IuzI0h3BT4PvBvYocZT9gI9wNeBq1z5kKT6MgCRpBrMKea2TOEthNWQVwOdNZyuD1hKmPz+DrgBeJoQoGwFHAG8g3CXfywBz4+IOL50XHnSdcLKF3NbAe8npKPtSW2pxSlwP3AO8LPeKX1Lf/nBhVlfoiRNOgYgklSjdxVnR32kOwHvI0yEx7K3xHB6gWWEvSdSQserzRh7gLMKeG+pUJ6X9ftUT/nirA0gmklItzqY2lagIAR6PwXOS+HOeVWkwkmSxscARJLqZE4x15nCK4HPAscAW2Y9JuCvwJtKhfKDWQ+kHuYUcx0pvIqwieBbqf09XglcDZwK0XWlwvzxNheQJFXJAESS6mxOcfaGKenBhDqNWutDatELfLFUKJ+b9XtSq6O/+waiKX3TCStMHwReSm2/w/qA24HTgMtLhfLTWV+jJLULAxBJmiD5Ym5L4M2Eu/W11oeMx3XAnFKhvDTr96IW+WJuMyAPfI6w+jGlxlMuJbRTvoSo44HScX9Is75GSWonBiCSNIHedeEbor6obzrwAcLd+1rv3FdrCXBsqVBelPV7MF75Ym4qodPYScAMxreD+UDLgcuAs4BbS4XymqyvUZLakQGIJDVAvji7E9K9gc8w8fUhTwCfTeFn8wrlvqyvfazyxVwEvAL4EnA0te+1shq4HjgFWFgqlJ/L+holqZ0ZgEhSAw2oD/k8oT6kmo0Ex+Je4CsQ/bJUmN9Sd/jnfHsm6bSO7YATKn92o/a2uv8AzgRK6YoNHpv3mSuzvkxJansGIJKUgXwxtylhP48TgDcC21HbZPs5wo7q/y8ivXluYUFLrXzki7mNCfupfAmIgak1nvJxoAh8D6J/lgrzW+r9kKTJzABEkjKUL87eENI9gH8h7OK9J2G/j2qCkTWEifZ1wIXA/5YK5WVZX9OYrv+i3BRSuggdw94IbFrjKZ8Hfgt8A1hcKpRXZ32NkqR1GYBIUhOYU5wVpURbAy8HXgMcCuxFmJBPJXxf9wIvEIKOBFgM/C2Fe+e1WF1D5Xp3JXS2eg+wQ42n7AVuBE6J4PdzWywQk6R2YgAiSU3m8/OO5sGnn5mSht3PNyC0740Ie1esBp5PI16Yd1y5JdvHVtoTv5/QFWwvaq/zeAA4F/hJH9HSywrzs75ESdIIDEAkSQ2RL+Y2IBTenwgcQu0bND4N/Aw4jyi6o3Tc/N6sr1GSNDoDEElqA/libiOgm7DasLhUKK9o1GvPuSjXkaa8CvgKcCS1tyBeCSwCTo3g2rmF8spGXYskqXYGIJI0ieWLs6dCuh9h8v8GQgAyH/haBDfNLZQnbNXgXd9/I30dvdOBTwAfovZNGPuAvwGnAZeXCuWnGvMuSpLqyQBEkiahfHH2BpDuS6izeCvrF3k/BFwMXBBFvUvmHnd1nV8/txlhE8HPA68CptR4yqXAt4FLiLi/1KL1L5IkAxBJmjTmFGdPSUlfQuig9T7gIOAlDP9d3wvczNoVhZo7aeUvyk0l5RDgJGAGoZC+FsuBy4CzgVtKhXJLba4oSVqfAYgkTQL5Yu4g4NPAgcAuwIZjePpy4PfA14m4sXTc2NOy8sVcRNjD5IuElY9ta7yk1cCfgVOAq+sRHEmSmoMBiCS1uDkXzorSKPo6oc6jlpa2SwhpWeeTpktKxy8Y9QnvuPCNdEa92wHHAx8BdqtxDCnwD+BMoLR62tTHfv3+qxrxNkqSGsQARJImgXwxtzVwAvBZYKcaTtUL3ELYSfxXI3XLyhdzGwNvBr4MxIQNE2vxOCEA+k4E/5xbKPc17A2UJDWMAYgkTRL5i3KdpLyasBLydmCTGk63gkq3LCKSgWlZ+YtmdZJGXYT9PN4IbFbj0J8HriIEPYtLhfKqDN9GSdIEMwCRpEkmf2FuEyJmAf8KHEDYSX28lgI/AM5L4eEotNL9LPAeYMcah9oL3AScClxVKpSXZf3eSZImngGIJE1Cx1w8k96+jh0I3bA+C+zM+L/zewn7b/wT2AvYg9qCmhR4ADgX+CkRS0rHlbN+yyRJDWIAIkmTWL6Y6wD2IXSnmkPt6VK1egb4KXAeKXeUjp+4jRAlSc3JAESS2kC+mNsIOAI4GTiE2jcGHKtVwCJCutW1pUL5hazfE0lSNgxAJKmN5Iu57YB3E1ZEdmPifw/0EdK3Tgd+XSqUn8r6PZAkZcsARJLaTP7C2R1E6V6E2pD3AltM0Es9DHyb0Fr3/lKhnGZ97ZKk7BmASFKbmlOcvWFKeighLeswat/Ho99y4JfAWcAtpUJ5TdbXKklqHgYgktTm8sXcNsDRhP1D9mD8vxvWANcDpwALSoXyc1lfmySp+RiASJKYU5wdpaR7AJ8GPgBsNYanp8DdhBWPX7A6eqz0sflZX5IkqUkZgEiSXpQv5qYBBwNfIHTN2oLhf1esJtR5/AS4ELi7VCj3ZX0NkqTmZgAiSVpPvpjbFNgbeD0wG9gJ2ICQZvUMYQfzRZX/va9UKK/OesySpNZgACJJGla+OCuCaCNgU0KReh/wXBqxfN5xbiIoSZIkSZIkSZIkSZIkSZIkSZIkSZIkSZIkSZIkSZIkSZIkSZIkSZIkSZIkSZIkSZIkSZIkSZIkSZIkSZIkSZIkSZIkSZIkSZIkSZIkSZIkSZIkSZIkSZIkSZIkSZIkSZIkSZIkSZIkSZIkSZIkSZIkSZIkSZIkSZIkSZIkSZIkSZIkSZIkSZIkSZIkSZIkSZIkSZIkSZIkSZIkSZIkSZIkSZIkSZIkSZIkSZIkSZIkSZIkSZIkSZIkSZIkSZIkSZIkSZIkSZIkSZIkSZIkSZIkSZIkSZIkSZIkSZIkSZIkSZIkSZIkSZIkSZIkSZIkSZIkSZIkSZIkSZIkSZIkSZIkSZIkSZIkSZIkSZIkSZIkSZIkSZIkSZIkSZIkSZIkSZIkSZIkSZIkSZIkSZIkSZIkSZIkSZIkSZIkSZIkSZIkSZIkSZIkSZIkSZIkSZIkSZIkSZIkSZIkSZIkSZIkSZIkSZIkSZIkSZIkSZIkSZIkSZIkSZIkSZIkSZIkSZIkSZIkSZIkSZIkSZIkSZIkSZIkSZIkSZIkSZIkSZIkSZIkSZIkSZIkSZIkSZIkSZIkSZIkSZIkSZIkSZIkSZIkSZIkSZIkSZIkSZIkSZIkSZIkSZIkSZIkSZIkSZIkSZIkSZIkSZIkSZIkSZIkSZIkSZIkSZIkSZIkSZIkSZIkSZIkSZIkSZIkSZIkSZIkSZIkSZIkSZIkSZIkSZIkSZIkSY3y/wOs5PMW+mActQAAACV0RVh0ZGF0ZTpjcmVhdGUAMjAxOC0wMi0yNVQwOTo1MjozNSswMDowMDdrbDwAAAAldEVYdGRhdGU6bW9kaWZ5ADIwMTgtMDItMDZUMTI6MTk6NTkrMDA6MDCI8kXmAAAATXRFWHRzb2Z0d2FyZQBJbWFnZU1hZ2ljayA2LjguOS05IFExNiB4ODZfNjQgMjAxNy0wNy0zMSBodHRwOi8vd3d3LmltYWdlbWFnaWNrLm9yZ1NhVcYAAAAYdEVYdFRodW1iOjpEb2N1bWVudDo6UGFnZXMAMaf/uy8AAAAZdEVYdFRodW1iOjpJbWFnZTo6SGVpZ2h0ADE0NzJ0OyERAAAAGHRFWHRUaHVtYjo6SW1hZ2U6OldpZHRoADI0MDDSiKUNAAAAGXRFWHRUaHVtYjo6TWltZXR5cGUAaW1hZ2UvcG5nP7JWTgAAABd0RVh0VGh1bWI6Ok1UaW1lADE1MTc5MTk1OTn7PYtCAAAAEnRFWHRUaHVtYjo6U2l6ZQAxMTdLQkIpOV/1AAAARHRFWHRUaHVtYjo6VVJJAGZpbGU6Ly8vb3B0L3BuZ19iYXRjaF8yL25vZGVqcy0xLWxvZ28tcG5nLXRyYW5zcGFyZW50LnBuZwN2ErgAAAAASUVORK5CYII=;fontColor=#333333;" vertex="1" parent="1">
                    <mxGeometry x="210" y="80" width="136.67" height="102.5" as="geometry"/>
                </mxCell>
                <mxCell id="13" style="edgeStyle=none;html=1;entryX=0.48;entryY=0.01;entryDx=0;entryDy=0;entryPerimeter=0;fontFamily=Courier New;fontSize=20;fontColor=#333333;labelBackgroundColor=#FFFFFF;strokeColor=#000000;" edge="1" parent="1" source="12">
                    <mxGeometry relative="1" as="geometry">
                        <mxPoint x="78.40000000000009" y="233.29999999999995" as="targetPoint"/>
                    </mxGeometry>
                </mxCell>
                <mxCell id="12" value="" style="shape=image;verticalLabelPosition=bottom;labelBackgroundColor=#FFFFFF;verticalAlign=top;aspect=fixed;imageAspect=0;image=data:image/png,iVBORw0KGgoAAAANSUhEUgAAAgAAAAIACAYAAAD0eNT6AAAACXBIWXMAAAsTAAALEwEAmpwYAAAgAElEQVR4nOydCZgjVbm/wXtlF1cUl4uIiOAuXjfgCgiz957Onu4kvQyogwoX5Q+yCC6IqMh22WWYme5OKkll7XZQEQXEBUEBZd+GZbZeknTqnOqZ6e78z6l0Mumsp5Kq1Enl1PN8z0DSeau+OtX9/qpSywFnn33GQajejOqAWib8uaXPH5RXjMd4jMd4jMd4jEczT1fNMB7jMR7jMR7jMR45RLOZMx7jMR7jMR7jMZ6mPE1nzniMx3iMx3iMx3iN52k6c8ZjPMZjPMZjPMZrPE/TmTMe4zEe4zEe4zGeNjxNZ854jMd4jMd4jMd42vA0nTnjMR7jMR7jMR7jacPTdOaMx3iMx3iMx3iMpw1P05kzHuMxHuMxHuMxnjY8XTXDeIzHeIzHeIzHeGQ8XTXDeIzHeIzHeIzHeDXydNUM4zEe4zEe4zEe4zH5Mx7jMR7jMR7jMR5NM2c8xmM8xmM8xmM8Jn/GYzzGYzzGYzzGU5mnq2YYj/EYj/EYj/EYj4ynq2YYj/EYj/EYj/EYj4ynq2YYj/EYj/EYj/EYj4ynq2YYj/EYj/EYj/EYj4ynq2YYj/EYj/EYj/EYjxign2YYTxOe8/70Ie4Y+KI7Bh0D0blL0H/fjio4EAX3D8bgYwPj4pMDMfDvgRh8dSCcfAbVv1yh5F9cofhv3aHEqCsCfo7qW/0RYY07Jh53QDp9IM39Mh7jyeahbbrHLx5n5oWVxgD4BqprjDy82xQEE728+JAxCP/Z6xf+3etLvNLrTTzZyyUeN3CJR9C/vzUEANfLg5vQz3+nx7/HbPCB/8a/c1T3y3jNwdNVM4ynOs/1621v7o/Br7iicxcjuYcHY+DlwXGwMDwhpvNraHx5oZ9ND0Zmi2oAv47fz6+YODsQhX9xxeDtzpjosk+AD+hl/TFea/CMUfB+Aw8dvYHULcaA8LCJh7OmIEyXKyMP0r2+ZHEFAHoPFlcA7DME4PMGP/Shfy80cvDLp9+f/k+9rD/GayxP05kzHt08x8anjnfx0xehvfqtSNCpQtnXKv/BUvIvU2jeLzmj4I6+cKqt587tBzXT+mM8/fPaLtp4OBL2ahMSPtqrf8GMpG6uIPy65F+mev0g2cvDiMGfOs9w19PHNdP6YzzteJrOnPHo5JnufuwYNz91+WA48dhQNLkwPA4rSr9cAFBC/vmFjxi4wsnZfj7hsXt2rD3FYT2YxvXHePrndXdvOKR3dPtqg3dmBO2RJ7PSlyt/o79++edCQCATJnp8iYVuT+IvXSNTF3Xc8uj7aVx/jKc9T9OZMx5dvGNHtxzoDE52u0Izvx6MJPcOR2fTUsmQf34AqCT/oRrlP4C/NsgrFAbecIbBdf3h1Ke0Xn+M1xq87k3Pf8YwNvVzoz/xmgnJ24QkXih/kgCglvxxGbj91e1L7TX4IW8MpFaTnl+j5vpjPHp4ms6c8ejg4ROK+qOp8wajyedy0s+T/3pK5T9QcA6BOwr/4YzNfdM+kT6ykeuP8fTPW3XXtiN7Rye/ZeTi/5Ckn60y8q8WALLyLwoACsvf4EevB2Cu0P8/1eMH66udREj7eDCeMjxNZ8542vKMXPog94T4taEYfK1I/DXIPxsAqslfbgAgkf9AbFkJrqi42RkGX2qm8WA8+nimAPiSKTB7K5J9Ypn4KZX/sgBQIP9lQSAA3+jxwe+UCgI0jwfjKcvTdOaMpx0PydgxPC6+Jh3eryB/uXv/Wsi/RADIlTsKn8BHBRz3pg+neTwYjx5eWyR9mNEPNiDBP4ElXyT+KvKvFADy5b8sADRQ/nkhIN0TELZ1+aCJ5vFgPPV4ms6c8RrP64vAY4bG4bgkdgXlj4tE/nICQL3yzy9XTJztjwh3ODa/cAJN48F49PC6A+ADSNJXW4JwWpJ4k8k/FwAI5Z9fqPetqLdjaRoPxlOfp6tmGK/y1B8VhpHcBVL5ywkAWsmfNAC4o/jqgdm0K5TY189PR2xjr5+l9XgwHh08awSebuZBEIl/X07iNcq/XAAolH8uAGgg/1IBoAd9rodLJrtHdru1Hg/GaxxPV80wXulpfSR92NA4uCsndUL5kwaAoXEy+ZMGADXk78byLyhnBDzSH4YmOWdGKzEejEcBD425KSgYTAH4tyKBN6H8pQBQn/zzKuE1XPm7tzX1+DJebTxdNcN4ByCJfxjV0zTInyQAyJE/SQAoJ38Xfh2/j78eiMJn8NGR9X9PVz0rlrbxZTx5PHy3PHNQGLSE4NMlBV6H/EsFgFLylwKARvIvDADF8l8qn/CkOSge22zjy3h18HTVDOMd4IrBU9aPi7trkT9JAMDyH4pqJ/9qASAr/6IAkCf//EKvv9YXhv+7YSJ9cDOML+OR8/DZ7sYQON/Cg1eR/NO4tJK/9LqC8pdeV1L++HV8XoAf7sDPHWiG8WW8Onm6aobxDhiMgZ71ExDQIv9qAUBr+e8PAWLaGRXfsIfBt/FlkrSOL+OR8XCYM/PgW0jQb2TFr4b8CwNAI+WfeV9eAKgk/8zVAUvlB0KPX1hL6/gyngI8XTXDeJL8h38N52qVf7UAkJV/UQBooPyrXPqXk79bpvzzKxsE8AOQaBpfxqvOw+HNGBCGzUHhlXzxlwoAjZR/5n265b8sAGSuENjTxYMemsaX8RTi6aoZxsOH/Y1oz38PTfKvFABokX+pACCFgAhM94cSr9j9k8NLzx3Q1faiN94VV6TfZAoIQ+YgKCl+NeRv1lD+cgOAXPnnQoBf2IOCQIfW48t4CvN01UyL8wYi4sp69/wrBYB8+S8LAA2Wf7kAUCh/twLyd4Zmc9XPJ/5l8e5u18v2ojeegRfWmHnwRDnxFwaARstfbgDQQv7lAkDm6wBhzuATzyAdD9q3F8bLfEg/zbQwbygmfGb9uJigTf7lAgBN8i95+L9A/rnCRwTC4oN2P/h8I8eX8crzLL7Up8y8EK4mfjXkb9ZQ/nICQN3yz30dAKc7uNmPNfP2wnjLP6ifZlqUNxAC7xucgK/XK/9yAaBQ/rkAoIH8SwWAUvJ3qyT//T8H5/si4hZ7QHhvs20veuH1BuPvt/BwxBICCyTyzwYALeQvJwBoJX+SAICri0u9su72xz7QbNsL45X+sH6aaUEe/s5zKCY+1Ej5SwGAQP6lAgBt8i8MAGTyzz9REABHGPyUXTrYOF7bRRsPN/Pwu0j+s1ZC8WdLSfmbNZQ/aQAwKCz/bvS5bm8y3TWWfGDN0KWHNsP2wniVAfpppgV5SNDXKyH/UgGANvkXBoBy8nc3SP7LPwtesodAN+3bS7PzDJ7tbWYePIPFny2t5G8ilD9pAFBD/gZC+RMd/sfyR5/HAUCqsZmf0L69MB4BRLOZM15dvKVr/RcaKX/p9Srid8fgNAoJzwxE4D/dUfEhdxTc64qgCib/5OYTj7uCiWfd4WRCLfkPEMo/PwDUI//8ckTguCMsfojG7aWZeb13PXeiyRffagmCdC3yNwfplX8vD2cMfuGpXi7xaI8n/kdU40v1x14/+DsS+b+R0CflBADV5J8XALq8iQUUUFbTuL0wnooT7c20Aq+PT74TyX2XEvIvDAAy5S8MRGEUifyK/ijowOcjkPZ7zqbkEf3h1KfQ57pdYXClMyr6UXh42h0DC5UCAK3yX7p3QLo/DASbb/p7eYdINd9empWH16HRM3WpJZAUCuVPGgDUkL+JUP77AwCYR/8+aeRFj8kPL+0JgnZjaPZj+NHDpOuvOyC81xQU1hoCwiUGP+QNPExVkn9RACgj/2oBoJT8pfIBfLfA1zuD8bfRsr0wnsoT7c20Cm8oJvobLf/M+6hiIIkEyrki0Gzk0ocq3a8T/UFxjgsGV2zuJlcMPiNH/nIDgOLyl+4bMCtVH5943Lpl22k0bC/NyDNu3HaaxZd4Ask/XY/8zQFt5G9Ee+5I1Nch8XYZuZm3Kr3+8O9ep18w9ASEURQGEqrLn1su/x4/lKrLD+6pZXxp3/5agafpzBmvNl7mZj/KyH+9DPkPxuDugYhwhX0ifWQj+x2IwC87o/AOVxTO0Cp/V4H8cyEgmJi3h4Sbv86lj5DVtILrr9l4nT/+7TtM3qlbLP7kvnLyJwkAasm/KADkyz8Ap3oDqVtMBJeJKrn+OkLpt/T4Zy8xeJO7igJABflXCgAk8pfKBxbZ7YKbk6fpzBlPPg8/1GR4HLyqlPzXE8gf7YHvGojBi6rt7avRbz7PdpXniD7PLqeTj//OFU7OF8pfTgBohPylwvOR3gev2ELi2Vquv2bg9Y5uX232xV+RxF9B/tUCQFb+RQFAFfmDeRMv/LqX32PMf36EFuuv/Qr+rT0jkxd2c4kdisqfKyP/per2CS9U6r1Ztr9W42k6c8aTz0NCvrph8o+BxYFxMeCamD1Kq37L8Swbn/mwM5y6Csl3u9byd1aRf64icNERFjcNoL01rdcfbbw112x9q5mbucEcSCzQLP/8ANAbALvwIf4uXvyw1uuvkNd2wx+O6vbN3tITAAtyA4Bc+efV97Tql/Fq42k6c8aTN63/bfoYtPcPlJL/+oqX+oFZ/B2/lv2S8PBeR38U9rti4sNkh/41kn/eOQJ9IfCSLSaeScP6o4Fn8uxcafHHX86Jv4r8KwWAfPkvCwAKyr/Xm3ywxy9YSff21V5/lXgdAdBr8INkXfLniOSP7xKYWseB92vZL+PJ42k6c8aTNyEpb26E/Aeiwsuu0NzHtO5XLq8/uvcLrojoQ5LfW07++PbASsrfKVP+uYrCeXsYXt/Kjxw+17PrYDMXvxkJf8FKufyNvsSeXm7Ga7j71S/Ssv5IeT3+uRMNAfBitQBQj/ylAIBPCPSB27Tul/HIebpqRs+8gfHZ44ejyb1KyX+4/J7/c/hIg9b91sPrj4L390fFn7pjMK62/IsCQBn5FwWApXKE4RP94T0fp2n9NYJn5uMfR7J/EotfjvzLBYBC+ecCQL1n+3OJWZN36vbO2546nqb1J5eHLyE0+MGT5QJAWfn7yeSfCwB+sMfIweO17pfxyHi6akbPPHco7m+E/K2R2XfR0K8SPPxduzMML3NGwO7sY4Fpkn8uBIQEYOMmv0nb+lOLZ+ZT5yHZg6z8rRTKv5dL7Oz1TH0PX5FA2/qrlYd/t5H4n1ZD/tkAgKvDm9pIQ7+MVwNPV83ohOfwvnQS2vufV0r+w6Xl/8ZADH6Qhn6V5nVcGT3S7pv6rpNPvK6k/J2E8q8UAPrCIN0XTErlCMSjbTc8eDRt608pHhaQhQexfPHLkX+pAFBK/lIAqPXe/gFhW+/o5AU9V3uPpG39KcFDov5gDw9fI5J/QL78u3wA3yFw79IRE837ZTwm/6bnuYLTd6ksf3EwCr5AS79q8douvOMIm3/ym84weJ02+WfLHky8ao+kTqFx/dUlfx6ehiT/WqH8rZTI3xQEr/QGZofP/O7PD6Vx/SnJ6wqCz/X4gaiU/HuWyT8pVefozPW09Mt4TP5NyzOhPUIkbUEp+RcFgHH84BywnpZ+G8HDT+5zROCFzijcVav8nYTyLxcASsnfgQu/HgJ7kPAuoHX9yZ2QYL9j5oW9peRvJZR/YQAoJ3/pdVmH++F2ox98q+fO7QfRuv7U4HV5Z4cqyl/m3n++/KUA4EkmV1597ztp6ZfxmPybkucMTv1ATfkPxESepn4bycP3Ye8LC5e5InBGa/n3ZeWP318qRxjyJHddpHU88O1v0d59SJJ8g+SfeZ9kjx9OGgOZm1vRuv7U5nWNTfP1yr+nhPxzIcArfIemfhmvBE9XzeiMd4rDevBQOPGyUvIfLpD/0IS4U+5Jf820/kh5tlji7f2RuRucUThHIn8nofxLBQBS+WfLHoLP4wcm0bz+Sk0Wn/BZaxC+UEn+NkL5WxWVPxCNPPjZ6s1TR9K8/hrB67r+z+/r9iZ3FslfRgAoJ3/8eqdPeJamfhmv9Af004zOeA5uR5ta8sd3AHTGYB9N/WrN658QP+yMiLwrAheVkH9hACgn/74y8s8dCYjAlC0MjbSvv+yERGtG0hYaLf/KAQAsmHnImYPisbSvv0byerZMOovkTxgAuivIP3tSIPq5r9DUL+MVf0g/zeiMNxBO8krJf7hA/oMx8WHa+qWF5wzDU/sj4JFydwxspPzzasERFn94QDp9ILXrDy2bNQR+bAuCxWrylxsA6pG/iYd/MfLwy4r3qwPesaNbDuwJgD+pIf+lcwM20dQv4xV/UD/N6IjX9fP73jU0DkQ15D80ARdckepPK2tkv7TxTnHaD+rzTn2jPzg7WYv88wNAJfn3k8l//1cCYRhxeWbfQtv6w+cqWIMwKoldA/mXCQC7TAFhKBualOxXT7xuD/h8jx8skgYALP9uAvkvBQDBsSl9OE39Mt7yD+unGR3x+iOzw0rJfzhP/tLe/ziM0dYvrTzDTfe/uy8Qv7M/LMy7NJZ/5sRAkLYHk/8y3fHsR2lZf2Ze/DCS9VO2MJn85QSAWuRvCcJ9Zl642RmMv02NfvXI6/YJEaXln612H7TS1i/j7Qfopxkd8YZi8DdKyX84T/6ZvX/hZNr6pZ3XFwL/3ReGj8oJANXkLzcAYPk7li4XtPHJXZZNr56m9fpDwj3FFoS71ZC/hVD+BQHgr0ZO+Ixa/eqVZwgJn5WOAhDIvygAVJB/V+YoQJC2fhkvD6LZzBmvJA9fPjX8azintPwz3/3D39HWb9Pw0ukD7WHwbWcEClrKP1t2PgnMfsGk1fqzhOY68Ml+kvxDZPInDQCy5R8C0ByClxu59H+o1a/eeUjWv1FS/tkA0OkXYEfBI7Bp6Jfxapxob6bZee6YOKiU/NfnyT9z5r+wjrZ+m42Hxue4/hD8XbkAQCJ/OQGglPxzNw2KwHlrEMq63lqJ9Yeke5E9DOfVkr+FUP64jDzcim9xq2a/rcDrDgjrqsm/W6b8u3IhYP+jxWnpl/EomDnjFfOGYqJfDfkPjcPnaOy3WXl9UXGgLwzjGso/7+TA1C1XXJF+k9rrD88Difw2LP6c/Hky+ZMEADnyRyFkBsnfqWa/LcVLpw9EUn9OCfkXBoDs1QBU9ct42s6c8Yp5+A8skvWUEvIvDACDMXg5bf02O0969HAEbs0d+ieQP2kAIJX/0l0D0/aQGDBy6YPU6hffQtkSEoJqy78oAJSW/31GDlZ8bDWN2wvtPCT9S8vJv7tW+WcCwE58ySFt/bY6T9OZM14xrz8Gv6KG/NHe/7x9AnyAtn71wrPzQr8jOJsgkT9JAJAj/2wAcEhiFh/E55Ao3S8KFkcgsf++SP6FAaCM/KsFAFL5I/GnTEFwXrXlpX17oZXXEQLv6/GDfaXk300o/1IBoBPfGXDTti/Q1m+r8zSdOeMV85Cor1ZC/sV7/+IfaOxXTzzL6HMn2fnE3xot//wAIB0JCINH8m/xXG+/Rm72KFsQPNYI+VsqyN/Egz/Z/OJxWo1vq/A6OeH3issffb5jZPdlNPbbyjxNZ854xdPQuPig0vLH5YrBC2nsV2+8NUOXHmr3TV/bFwHzZR8DrKL88+oZ9N4x9faLD7PbQuC5kvLnyeRfKQAQyT8I95kC4IflzvBv5Pi2Aq9rbOrCogBAKP+ik/+W5C8FgLGZrTT228o8TWfOeMun9X9PvxnJW6hX/qUCwOBWeDxt/eqZZ4/C/+kPidvUln+FAJC2B8Frjs0vnVRrv3hvG8n/5XrlXy4AFMrfUkL+5iB83RYSz6RtfPXMa/+/pz+itPw7lx4RvGb99w+hrd9W5umqmWbnuZA0VJH/OHyaxn71zsOH4ZGIJ0gCgOLyR7K2S5KOv9q75ZUT5fZrjc59BEn69bLy5xsgf16IGLnEO5QaDzlTq/O6PPGns/LvIZR/dyX5ZyuQ/ByN/bYqT1fNNDvPPT53Wb3yLxUA3BH4Sxr7bQleOn2gIwgv7Q+DeaXlXy4AZOWfLVsg8YZpyyufIO23LyaehCS9XQn5lwoApeRvyZd/EOwzB+BFqowH4xHxOkenf6G4/NHrHT5wPo39Mh4NM29xHtpTDystf1x9E/B0GvttJZ4tJJ6NhL2r0fKXAgCuINhtC5a+RW7+ZAmnPo6kv6Oi/Hk15Q93mIMi8eDQMr5643Vzqa/kLgeUEQAqyT9zQyBxC439Mp7WM2e8A9ZPzL1Uj/xLH/4XE9kbxNDWb6vxjFHw/r4Q/IsS8i8VAErJXwoA+HXp6gAUQNDefbnlk+S/dF9/JeRfGADKyd+yJH8zDx6yB4T3Nmo8GK88D59wieQfJ5V/N4H8cXVz4Cka+215nq6aaULe12KJt6+fgAtKyl8KAFHxjzT226o8fKInEvWdjZK/fb/8pUJifwP9fNEJoX3j4glVD/vjCqkjf1T/R3KWv9LjwXjleUjY9ykpf1wdPjBf7fHAWvXbsjxdNdOkPFdUXFWP/MsFgIEo/AWN/bY6z8JNnm/nE3trkX/Rdf+E8t8fAsCr5qB4bHZ5HGHxQ/g1IvmHyeRvI5S/OQj2mnnxa1qPB+MV87p84BqiQ/+E8s98RYD+5eBpNPbbkjxdNdPEvKHY3EX1yL9cAHBGBCON/TLeGQeZxravdPDJSbXk7ygh/1wICIGXugPgA/iQuy0In9dC/uj9aTMvrKRlPBhv+YTE3qO0/HG1ceDrNPbbkjxdNdPEvIEY2Ki0/IfQ56x3/+tYGvtlvExZxl48Ecn6aVL55weAWuWfLSTgZ3ERy19mAKh42D8IniK5q1+jx4Px9k/4tsDV5N9FKP/8ANDJgZto7Lclebpqpol5QzH451rlXyoAYPkPRmZfp7VfxtvPs0+kj7RH4H1Kyp8kAOSdF9Bg+Yt/tMUSb6d1PBhv/4TE/bqi8pcK3Edrvy3H01UzTcwbjsxOKin/IfR5dygeo7VfxlvOwycHOkJgE0kA0ET+MgJA5e/84WilJxbSMh6Ml5m6ORAqJ/+iAFBG/sUBQHiD1n5bjqerZpqUZ7/joffUKv/CAJCVPy4nP/VTGvtlvDK8dPpAWxD8tF75ywkADZM/LyyaeOFHTTUejHdAlx9cVa/8iwMATK/ePHUkjf22HE9XzTQpzzm27VSl5S8FgMD0ehr7ZbzKPHsQnIeEX3TnQM3kTxgArOX3/OctIXhus45HK/PavSlnKfl31SF/XN0B4dM09ttyPF0106Q8V2BXfy3yX19B/rj6vNvPpLFfxqs+mYPQ7AiDufybBpHInzQA2Bokf7TXv9cUgPZGrz/GU4bX7oGn1iP/cgGggwNdNPbbqjxNZ97qPGdw5vtKy186AhDefRSN/TIe2WQJp1b3haGghvxtpPInCABY/tbSh/2ByQ/atVp/jFc/rz2cek+h/Lvql3+6fXT6OzT224o8TWfOeGccNBCK3y1X/uuryH8wBmZp7ZfxyCcrn/oKknWcRP4kAUAt+RcGAHMQzFj5yjd8acT6Y7z6efgxvrXIv1QAwPLv8KDPj87cRGu/rcTTdOaMl+ENxMBWJeUvXQIYg/+itV/Gk8cz3v3Kl22B5LRS8i8KAOXkXyUAlJU/D6ZsQSD7sa/NMh6txuv0JJ5YFgDqlL9Uo9NBWvttJZ6mM2e8DG8oBh+TGwAqyV96BkAMRmntl/Hk82ybX/gcEveucvKvFgDUlL912Xf+YNLiEz5L2/pjvNp5nWPxsFz5FwaAZfLHNRb/E639thJP05kzXoY3PA5eVVL+uNxReDOt/TJebTy7L/FpexDurkf+NlL5VwgA5eRvDoJdtmDqk7SuP8arjdc5OnO9FACUkr9Uiedp7beVeJrOnPEy0/AEhMSH/gnkj8sVBVfS2i/j1c4zBVKfwI/1JQ0Aass/FwB4sBM/Tpj29cd48nmdI5OXYfl3E8o/PwCUln8Sv87OUaKAp+nMGe8A6TawSstfeghQDJxHY7+MVz/PERA+bQ/BmWoBoFD+NlL5lwkA5eSf+c6f7fnrldfJpc5VWP6ZhwJF0ofR2G8r8XTVTDPynL8WjyWV/zCh/KUAEAIWGvtlPGV4Fh/4byT5uCryLxEASskflzkAZk0B8KVmW3+MR87r9kGj3ABQTf7Sz4TA+2jst5V4umqmGXnuqPBpUvkXBYAy8sflGBe/SmO/jKcczxaEX0GyF0jkb1NB/pagAC2B8tsZ7euP8ch43Zz4VaXlj2vNmHgCjf22NE9XzTQBzzkOT1Va/kPj+CRA4dM09st4yvLMvLAGSXtBMfmHSeUPFozh1OpG98t4jed1Bvd8kjQAkMpf+gogIJxMY78ty9NVM03Cc0eENSTyHyaUfzYAOGPC0TT2y3jK8qxheH01+dsUlr/0uvTgH/jLRvfLeI3nrePA+5WWP64uDp5OY78tydNVM03Ec4WhSWn5D8XgIn68LI39Mp5yPAsP/1dR+YfJ5C+9v1TmILykWdcf45Hx8OObqx/6lyd/KQD4Um009ttyPF0102S8gZA4UE3+w4TyzwWAcVGgtV/GU0r+wkD20H8l+dtVlL90FCAEFsxB0dVs64/x5PE6fYJYSf749sBy5L90rkDJE5Vp6LdleLpqpgl57ij4tsLyTw/GxASt/TJe/Tz8vb89BPYoKv8wmfwLA0DmqwCwzxQUSz70h8b1x3jyeUj0KSXlL50DwAlDtPbbMjxdNdOEvIEIvLSS/IcJ5b88AMApWvtlvDrlH4SnIPkDEvnL3fuvRf77C0B8VQLt64/xauN1+eBMOfkXBQAC+eNq58C3ae23ZXi6aqYJee4Y+ImS8l86B2Anrf0yXu08a2TuRHsITpLKX04AIJF/5QAg1XT2boA0rj/Gq53X6RN2Kyl/6SsAv3Aprf22DE9XzTQhbzAKbygn/2FC+RcGgIEoeJ3WfhmvNl53AHzAFgavOjSUP0EAwF8HbOsNxt9P2/pjvPp4SNivl5L/sgAgQ/5LdTWt/bYMT1fNNCHPHYU31Sv/gsP/aVco8Qqt/TKefJ6Rm3krku+TcuRPGgDw/QGUkv9SAO6exlcAACAASURBVEibfIkn1157/ztpWX+MVz8PSf8VheWPPiP+hNZ+W4anq2aakOfm48UBAMl/fY3yH4zMpt0h6UlbVPbLeHLln/4PJPOt0i1/NZQ/4d5/5tkAqIxc/L6vXvCTw7Ref4ynDA+J//lC+ecCQA3yX7oK4Me09tsyPF0104Q8dzB+Qz3yzwaArPxxDYQTz9DaL+PJ49mC4C658icJAJL8eXXkb86FgJktWq8/xlOG1+kVnlZY/umO0fiPae231XiazryVeU5+6rpC+cvd+8+Xv3QEIJz4N639Mh75hOR+VVb+dg3lXy0AZOVfGADM6HVzCF6u1fpjPOV4nZ7Ek0UBoB75o/DQPjL1I1r7bSWepjNvdZ4rOPWLWuWPq1D+mSMAyWdo7ZfxyCY7D52OEFzMyr8oAJSRf7UAkJN/YQBQQf6WzPuL5qAw2Oj1x3jK8jpH488oKX9cbVumfkBrv63C03TmjHfGQe5Q/Gf58pcTAErJXzoCEBVeprVfxqs+mYPwLOlGP2rKnyeTf6UAkC9/Syn5LxX6/70kDw6idTwY74yDOjzxl3IBwFe//KUjAKOTV9Lab6vwNJ05453xZlc09ZOiWwETHfovLX8pFIzD7bT2y3iVp/5w6lNI5PF8+dsJ5V8pAKgtf0sZ+edCAA/jpkDqE802HoyXYaEAsF1J+UsBYGzyclr7bRWepjNnvDMOcMfgj5SUv/Qo4BicprVfxis/GWPC0fhaf9Xlz5PJv1wAkCv/vCMBr3QHUu9ulvFgvP28Lk9yCss/cylg/fKXvgLwzV5Ma7+twtN05ownPQvgB3ICAJY/fjZAOfkvnRSYorVfxis9Oe9PH+IIw78Vyt9OKP9yAaCS/C0hsBVXvfK3EMh/fwiAf94wkT6Y9vFgvOW8Tk4QlJT/0jkEF9Hab6vwNJ054+FnAYCrlJR/puAeWvtlvNKTLSxyDZE/n5G/NQgfM3LpI9oi6cOQ2P9GEgAUkL9UxqAwRvt4MN5yXpcP7JMbAKrIP93hm/sOrf22Ck9XzTQjbyAKLyEJAFn5FwWAIvlLzwJYPCCdPpDGfhmveLKHwQ9Kyd9OKP9SAaCK/J83crNHZeeP/xu/Vov8LYTyzw8ASyHgClrHg/GW8/DNqPbfBlgZ+S/9zLdo7LeVeLpqphl57nHxG4rKf6nwIWUa+2W85ZMlPGdFkl9oiPxDkvx3mifSHy5cDnNQPBa990apAKC0/E28dLvgxd7R3QO0jQfjFfPwkSKl5Y+r3Se4aOy3pXm6aqYJeANRaK8UAPLlvywAVJA/Lmtk9l009st4+yfp0b5hAEvJ304o/8IAUEX+sxYf+O9yy2Pyg88j4adshPK3Eso/PwBI8vcnlyoBjBu3nUbLeDBead5qbvYo0gBAKv/Mz85109hvy/J01UyT8JwxYR2p/HMBoIr8pScChuY+SmO/jJeZ+iLwGCT57fXK304q/xDYa+ZTbdWWy8wLK5Hc9ygp/2wAWC7/TBl9yZ3d3sQHtR4PxivP6+LFk5SWv/TzHvFMGvttSZ6ummkinnMcnqq0/AdR9cfgV2jsl/EOOMCxKX24LQSeKCd/h8LyR+8vWMLQSbp85qDosvDCYiX5y937LyV/qdDrZh78E5+MqNV4MF5lXrsHnqq4/FG1BYSTaey35Xi6aqbJeM7I3Ikk8pcCAIH8swHAPQFyh9do6rfleen0gVYe8ErI304m/7QlPCfremvcl8k7eZkS8sdVUf65rwagT87yUTu+OuR1ekCXkvLPBoB1fvE4GvttKZ6ummlCnjMmHK20/KUjAFFxmMZ+W51nCYHvV5K/3L3/avK3huZuqLVfk3fqllLylxMASOSfrV5euLTR48F41XmdnDiotPxxreQS76Cx35bi6aqZJuQZufRB1eQvvU4g//wAMBCdu4TGfluZZwnMttuDyXkl5G8n2fMPCcErrki/qdZ+T3FYD7b4E1yt8sf3ByCVv3QUIAgWevygq1HjwXhkPHy9vlLyzwUADiyefn/6P2nst6V4umqmSXlDMTCnpPxxuSLg57T224o8W1T4GJJ9spL85QSA6nv+4kP5d9yrtV9HZPIQc1B4WG4AkCv/XPEwYY3Mnaj2eDAeOQ9J+2pF5Y8vAeQEgdZ+W4qnq2aalDcYg5Pl5J85MiBz7z8G005+ZhOt/bYar3fL62+1BZLPVpM/aQCwVZN/ELxiCafeo1S/+JJSJPQX5cgfPxtAtvz3Hwl4wRZLvF2t8WA8ebwOP7xDCfkvCwA++Aat/bYUT1fNNClvIJJ8SUn5D0Rm085QPEprv63E27DhwTdZ/YnfNEr+thCM2yfmPqZ0v+Zx8QQUAKbVln/uToE8uA/fgY728W0FXqcvxSspf+kKAA4+TWu/LcXTVTNNyhsIJR4rJX+5ASArf1yuYPJPtPbbSjwrN30difxJAgCWv63iYX98rb+wUq1+jeHUaksQ7Ksm/6IAIFP+uZMC/amf0j6+rcDr8sH765V/YQBo54SHae23pXi6aqZJee5wfLwe+Q8VyB+XO5R4jtZ+W4VnGttttQeSi42Q/1IAUP3e6mjP/NxGyD97u+Du0V19tI5vq/A6OPiMkvKXLgHkAEdrv63I03Tmrc5z8dO/KpS/nABQKP+lEmjttxV41tFtn0TCniWRf7UAkJV/UQDIkz+qXzaqXzM/d0M5+S8LAPXIf3+ISBm2PP9Z2sa3lXgdPiFVj/yL9/5Bum105gZa+201nqYzZ7wzDurnp39Qq/wHS8tfCgWDW4uvs6WhX73zem96+J32QOLZhsk/CH6Lvy9vVL/40kJTEEw0QP6Z2wVziedX3bXtyFrHg/bthWZep3fnO5WWfzv6fNuWqYtp7LfVeJrOnPEyPFc0tb74boB1yh+97wyCz9HYr9559kA8Qir/SgEgX/62sof94ZP4aW2N7hffuheFgH/kyz8XAJSUPy70ujEAA7WOB+3bC828to2vfL4e+XeWkD+ujs27+mnst9V4ms6c8TI8d0RYU4v8ByvIXwoA44KBxn71zLNyU5c7gsrL31Zqzz8EdznC4oe06tdw19PHmf2J7WrJ37Qkf5N0aaBU35U7HrRvL7TzOrbs7q1H/p0l5C8FgI2vn0Vjv63G03TmjJfhDYX3fFxOACCRf+ZmQPACGvvVK8/i2X62nU/sywWAKvIvFwDI5A9EKw9P07JfzMGP80UhAEgBQF3545/bh37+LC37bTXeupHd5ystfykA3PrCR2nst9V4ms6c8TLTQCj9FtIAkJV/UQAokH8mAIjX0divHnmWX/37w0j6u9WQv634hL8FUwBYtOw3n2cY2+0wBYUFJeVvKpT/Uhl5uNMYBe/Xst9W4nWMTv2sVvl3lpF/+1hi0bBx+lAa+201nqYzZ7z909A4nFVS/tITAaOVvzfV0/rTktd24R1H2AOJR7D8pQBAIP9SAYBQ/vjBPFdr2W8pHpLz1UrK31xC/rkQEBAeLryPfKP7bRUekrVXUfnjEwA5ME1rv63G01UzzcwbGp97vlIAyJf/IIH8pSMAUfgXWvvVE8/KzdyslvxtBfJHtZXkAT8NX3/p9IGmAIiqLf+8EPBzTfttER6+YU8t8u8oI38pFHDwCVr7bTWerpppZt5gTHxQSfln7gwobqO1X73wrJ4dFgefXJQCQJhM/oUBgFj+Ifi8Mxh/m5b9VuLhZTPz8Pl65U8UAIJgwcALnVr22wq8Th/YpqT8l84JuJfWfluep6tmmojnjokcifwHCeWfCQBgvvCJcLT0qwee6Y5nP4pEHVdL/vY8+VuDcNYSTn1cy35JeKZA6hMmHs6qKf+88wGm0WePbZbtpdl4Ri59aIcPzMuVf0cF+WeeAwDuprHflufpqpkm47mi8Gol5Z+t/nDqUzT22+y8nstvODz3vT+Sf1+ETP6OGuSP/n/REp6zatmvHJ4pKBjMaA+9FvnLCQC9AZDu5RKPWi/f9Bbat5dm5LX79nxKaflnAoDwPRr7bWmerpppQt5ASByoJv9BmfJfuhTQRmO/zc6z+qZurUX+DkL55wcAS0j4kdb9yuUVnhSoivx9yUx54jdo3a8eeZ1+aJYr/6IAUCD/pTLS2G/L8nTVTJPyhibAl5SWvxQAYuJVNPbbzLzc9/5L8pe79y9H/iQn/VG5/vJOCiSVP2kAwPcHyMkfF5dY7BmbttC6vTQrr4sTrlBB/ml8ZIHGfluSp6tmmphnn0gfORSDi+XkP1iD/JeOAHho7LdZefh7fzs/O1OL/B2E8s8LAC/YYom3a9lvPbzVm6eORLJ+VlX5ZysgJIwcPF7LfvXG6/CBETny7yCQP/r5RXwbaRr7bUmerpppct5AFOwuJ/+hGuSPjxi4gonHaO232Xj4e39bIPH3fPnLCQBy5G8NQcHiSzX9nlLv6LZPGrnELMkjgknkj58NUCx/gE8ITPfy8FEjlz5Iy371xOvkhEcUlb90BYDwGq39tiRPV800Oc8dSvxNSfnjEwZdoWSC1n6bjWfxz/yyVvnbCeW/FAAWrMHKz3FopvVnGNlhMfoTC0rIvygALMk/W728+BOt+9ULr8sH46Ty7yCQ/9IRgPtp7bclebpqpsl5Lj7hKSV/uQFgoOApgYZbH/kAjf02E884ur3dHgYL+fInDQAy5Y9eryyxZlx/vZ7pays9K0AJ+WcKzFsCsyu07rfZed0B4b2Ky1/6/h/cQWO/LcvTVTNNzusPzPxQafnjsnp3rqKx32bhtd/856OR/N8olD9JAMDytxPK3y4d+hcfMnLp/9DT+sP/v2HDg29Cgr6/HvkvCwAl5Z+r7d2B1Lv1tP4azevwiGeSyr+DUP6ZSwDhd2jst2V5umqmyXn93K7+QvnLCQCl5I+rLwI20NhvM/BOcdoPsoWErY2Qvz0EJ/X8oBsjJxxtDICdpAGgRvln6zf4SgQ9rb9G8pDQv0Yq/w5C+UtHAMYyd2+krd+W5emqmSbn9Y1u+4LS8pdOBIzB22jstxl41pBwUSn5VwsAWfkXBYBy8g/DeZNfWKt1v2rzTCHxbDMP98mVfy4AkMlfKoMPnK91v83K6/LBmxWXPwfTa8dmT6Kx31bnaTpzxsvwHJHJQwZjYEFuAKgkf/y+OyY+TGO/tPPM3sRnkczFBsg/bQmKV2rdb6N4KARcVSkAKCF/KQAEwB4jBz6ndb/NyOvwgYdI5N9JKP+lWwDP46s0aOy3lXmazpzxlvOQsF9VUv5SAIjCBK390sqz3Z443B6Cz8vd+8+Xv51Q/rYQvK/czX6adf1V4uFekeTvKxUASslfCgAy5Z+tngB4Zs01W9+qp/WnOi+dPhAJO6Gk/PHefxsnvEBlvy3M03TmjFfMc8fAvaQBgET+2eqfED9MY7+08uxB4VcNkX8YbreEU+/Rut9G86yR2XeZePiamvLP3i64Z2zqdq37bSYekvXxJPKXGwDWcYCnsd9W5mk6c8Yr5rnHxWuVlr8UAMKw4sNk9LL+lOBZg6C9LwwX5QSAQvnbCeSPPjNvC4lnat2vVjwk6dN6ebC3kvyl1+uQf/ZWwZ0jOwxa99ssPPwMAKXl3+YF6bVbpq+isd9W5mk6c8Yr5uGH91QLAHLlj8sZBdfS2C9tPLw3juS8S3X5Z+72V/KpaM28/uROSNbfU1X+S9XDJXf0juw+Sut+m4GHJP/javKX9d0/kn/bWDLddrcUwqjrt5V5ms6c8YonJP8TlJZ/5kRAuJXGfmnjIaGHy8m/VAAoJX87gfxtoeLL1PSw/uROx45uObCXi4+Xkn/myED98s+eQNgbgFGt+20GXvtYfKvi8kfVedtTx9PYbyvzNJ0545WYkBQGY3BWSfkPxKQA8DqV/VLEs4XBeiXkb68u/9e6+OQ7Ky0ffsZ92w0PHt078tpHjVz8E6YA+JIpKKwyBUGXJQwdVl78ujkIvikVDy+w8MIVuMwheLmFB1dZgvCXZl74pZmbuQHVzWZuerNUvpnN6DOb0Hvh/DLx6LWguDFXPLzezIvX4UJivc4UFK9E87/c5Jv+vombvrKXm7yw17P720bv5LeN/tTX0c84evygC7FW4mU1hFMfN0+kP4z73DCRPrjSeOA+UY+vqin/7M90B4QhWrc/WnjtYzOvV5I/aQDANwfKyr9tLDFDa7+tzNNVM3rhIVn/VSn5ZwPAQBQu4hOvaOyXBp5jKzweST1FGgBqlb8UAILgcVtIiCDR/sEagn9BgeBxa1B42cond1gDyQT6dwFVWip8G+FMaCAq61JZgiBtCSSLC70uvU9Yucv1ZDzSt/Td/sACChUJEw93oM+81MuDf/b6En9Be/9/6PVOh43exD/z5S83AJDIvzcA0wY/SPb4xeNo2/5o4a39+cPvVUr++PbA2QCwbjT+AI39tjpPV83ohTcQBXcqKv+l6o8Ia2jsV2sevizNHhYfVkL+jiryL/HIX0nyOeHnl0rylxsA6pV/4V3/Kn3nr5b8swEAV48f/lmPt1tWgtd5zxttleRPEgAK5Y9r7ZbpG2nsl/FomjnjSVN/VNyghPyLAwC8lMZ+G80zXHXrYXZ+9kOWsPhVR2SP2x4EWyrJPz8ANFz+MgMAzfI3E8pfTgAglX9+AFg6EnBPdwD2G3ziGeageOzp96f/s1m3ZyV57aNT31NC/oUBoM07O0hjv4xHy8wZLze5YvAUJeRfGAD6IqkIjf0qzcPfO9uCwmdsfHKdmZu8wOaP32j3xwP2QPJBO5/Y5ggJ89WEX4v85QYALeQvJwBoJX/SAFCr/MsVCgXxbm/i8S7vzL09nul7esYmv989sruvxyuc0eOf+0i5mzWpvT03ktc2OhMqJ/9qAaC8/PHtgoXP0tgv49Ewc8ZbNhm59KEDUWFeSfm7ozDtDM++QWO/cnn4XAZ7FP6PIwzW28PitX1hyKH6E/r/l/sjcC4jbSTlYLK40Oty5J8NAJrIX0YAoF3+Jg3lTxIAkPzTBk66XHB54dfx+9JXB2DOEAAv9gTEB3r8wqjBB6/u8gkD6N9TVnKJd9Dy+1EPr8ObeqNe+S8LAPgqAB++JXP6IBr7ZTytZ854JXnu8Oyz9cg/PwBg+SOeVI6NzXEpju0qzxGOSOoEe0hYh+R6sSMsbnJExAf6Q+I2JPl0uVJa/rhI5C8nAGglf9IAYA5qJ3+SAKCF/Aurp0QZ/DCOPvPPLn8q2D0Wv7pj867+jl9tO7Xzx799B+2/b/j/u72JD5aTf6UAUEn+mVsAw8dp7JfxtJ4545XlOflEUGn5SwHAP+WipV98SNUZSn3E6tnZbfNNXWwPzPzKwccf6AsmX+uLgAVnFN/ASCwr+1JFu/xtpPInDADWJpC/SUP5VwsAWfkXBQCZ8s9WN/pcN/q8VN5MdXkTC51+4ZUuP7wPhYNbuwPg/B6/sNbIweOrfa3QyL9X7T5olRsACuWfCwBL8s8EAHGzEsundL+Ml/mAfprREa+Pn/perfLPXftfIH9c/Xz8Ni36dQbjb0NC/XJ/RDzHGQV3OCPgkb6wAPtDaJkKC4k3K385AUBp+ePPkcifNACoIX8rofxJAgCWvzmgnfyrBQAa5F8pACyTf14A6PYBfOVB6QqAvV1+8EyXXxjr9sELu7nU6u5A6t31/r7V8vvb6QM3Ki1/6RHAHnCe2n9fGK9Gnq6a0RGvz/PaV5SWvxQAIuBRtftF8jymL7bH2B8Wr+yLiL7+MHzOGYULLiTzbEnSVlD+fU0gfxup/AkCgFryLwoAdcq/KAA0UP6VAkC+/A1ayX+puktUFyfs7PAktnaMTl3XvmVyuP2ebScbDN8+WM2/Vx2c8DfSAFBK/lIAKJC/dAQgIJys5N8XpfplvAOWBYDmb0ZHPHypmjsKoFz5S7f9LSN/6fUY3OO8P32IEv2e69l1cF9I+Gx2rx4J/8H+KIzni75UOQnlTxoA1JA//jyJ/EkCgFryLwoAZeRfLQCoKX8TofwrBQBa5F8uABTJn6tT/uhzXdJXB/urE5cPpNB7/+j0w1Ek5Qu7OHi6kUsfocTfq9UT6YM7OTCntPzbvQLIXmJZz/Ip8feK8Up/WD/N6IxX6o6A9ch//+WA8HS5y7dm6NJDbZtf+bIjMHlhPz/DIek/74ot36snKTXk39cE8i8KAOXkXyUAqCn/ZQGgyeVfLgAUyt+gofxLBYBS8u/KyD/dhd8vqE4/mO/khGeRvDd3cOAbnUHhM/k3OSL9e9XugaeS7P2Xk7/0eqH8pe//wR9r/ftXy8R4Mnm6akZnPHds7kZ5h/6ryx8XknDJp9DlT7ZY4u1IhG0OPv6zvuDMfc5gMulEopYKiVKu+LPydxLKnyQAqCX/ogBQRv7VAoCa8rcSyr9SAFBb/iZC+ZcLAI2Qv4FQ/qUCQEn5c42Tf8lAIElbENC/f0bB4Oa2Lbsd3Tc9+l/V/l51+ue+q7T8lx4DfA0tf08ZrwxEs5kzXkVefxhalZa/FACiMJK/LOv/nn5z7lB+RNzcH4XPuyJg0RVeEn5+NUj+1QJAVv5FAYBC+dtI5V8hAKgt/1wA0IH8SwWAhsnfTyb/wgBQTv5dsuW/JG4k5eVP9Evs7BibCXZwgvTVweqCBzS1c0KwUgCoJP/M+2VqTOik5e8p4yk00d6MXngDIfA+UvnjEwZJ5I/LFYU7nNE9dmd07mZ8Nv5AFIpu6YmBmULvp9WQf1EAoFD+ywJABflXCgBqy99KKP9yAaAR8jcRyr9UAGiU/A2E8i8MAI2Ufzeh/PMDQLH8i+/tj4KA2O4THkbyvg6VsZMTim4ARCr/sgHACxZXLF3RQMPfU8ZTYKK9Gb3xkLC3KSn/gTzRl6qs/IsCQAPlXykA5Mu/T0P5lwsAhfK3kcq/TABohPylAKAT+RcGgIbKP0Am/x6N5U9adclf+v5feIG2v6eMV8dEezN65DkjYqCa/IsCAIXydzaB/HMBQAv5lwgApeRvJZR/qQDQKPmbCOVfGAAaKf9eQvkbNJS/3ACghfwrHv73ilto+3vKeMt5ms6c8arzkKi+o5T8KwWAfPkvCwANln+5AFAo/z4N5V8qAJSSv01D+RcGgHLyl17XSP75AUAJ+ecHgIbLX2YAoFn+nUrIH9W6MbCBtr+njLecp+nMGa86rz+69wuV5L8sAFAqf2cTyF8KAFrJP0wmf2sTyN+sofyzAaCa/OUGAC3kLycAaCX/agEg+wRAmv6eMt5ynqYzZ7zq0xX3p/8TCR+Uk38uAFSRf7kAUCj/XABQUP5OQvmXCgCl5N+nofwLA0A5+ds0lL+VUP6Z97WRfzYA0Cx/A6n8ZQQA2uXfoZD8szcAou3vKeMt52k6c8arPFnCqff0R8UN7qg43Sj5SwGAcvn3KSx/6XWt5B8mk7+tCeQvd+9fSfnjIpG/nACgtPy7CeVPGgDw/QG0kn/VvX8OTq71ptavuvGR99Hy95Txinm6akYPPCTm4/qj8GL075/dMbBQac9fCgAE8i8VABolfyeh/AsDQCPln3lfXgCoJH+7yvK3BMEeaxAmkHAn0X9vQ/US+v/Hs2XGFRAeMPnixcWD+8y8EMZlCoLQsuLhfUYe/LFEPdDLg3/2+pOP9/oSUiHWS0Z/4hX03qSZhwnE3SNn7592+feQyp8wAKghf3x7YCXl36GQ/JduACQ9GGjtWGJ+zUj8wTWbpy9sv+W545v977PeeLpqpll57qjwaXcM/mgwBp9AtVjtO3+15C+9Trn8+5tA/vkBAAk7ZQuDV61h+AR6/2FbEPzWEhJC6N97LKG5G5G8rzbxwiUmbvJ8k3eXyziyy2Ac2b6qd/Nrp9miwses0bmPWELgfV188p1GLn0o7dszXka8rN0B4b142c0x8SSDD3zRyIlfNfBCJ5KwvduX2mD0Tn+vxzN1jcEbv7HXO3NPDzcT7PWDe40B4WEk9MdRsNiGfnaW7NA/mfxJA4Aa8u8mlD9JAFBL/kUBoIz8qwWArPxxrcsvj7DY7oWPrvMKl63mZj+mxvbHeHXydNUMrbx0+kDnODx1YBxej4T/Isl1/kUVI5N/YQBopPxdhPLPDwCNlr/cALD0SN/tNn88ZuWmN1t9M9dbfNOXWUKpr6E9YaMlLH7VFkx9Eksb32GRyu2viXj4e2QcJkzR1CdMfvHMbg709gbBOb1+4WIDD37W60/d3eNJRHq4xBtKyb+HVP4EAUAt+RcFAArlvywA4NelewPsr3UceAbVT9bx4Av4byKN219L8XTVDIU8ZxB8zh2duwHJe7ucO/w1Qv6Z9+mWv9wAoIb8bYHEPuuWbac14/anZ17vPdtOMfgSe8vJnyQAqCX/ogBQRv7VAoCa8u8glH/FG//IkH9hreXAtjYfuGYNl/pkM25/Tc/TVTMU8YZ/veeYgejcJWhv/+9yH+xTTv6Z9+UFgEbLX24A0EL+cgJA7pG+3MzPmmn7ayVe1+j0z+qVf1EAKCf/KgFATfkvCwCUyr9NhvyLjgx4wdMoEPxgzZ0vnNBM21/T8nTVDAW8zmvvParfP3meOwofGsw7ka/R8h8glL/cAKCF/CsFACToHUjsUHX5++PP9VztPZL27a9VeY7I5CFI5s/IDQCy5e8HAAn7dRL5dxPKv1IAUFv+HYTyLxcAlJT/UgCQPr90AuF96zbvHFp59b3vpH37a0qerprRkGe74CeH9Xm3dzv5eHAgkgSDSNZDMsVPIn+5e/9ayF9OACCXv5hAMn4CVcQehtfbI+AcKw+/bORm3moLCp9BP79PjvxJA4A9K38+uWDxbD+b1u2P8TI8JOBTDTyYJw0A+fLvId7zB/sMIeGzRi59UI9/7iPdAdCN5nspql91+oT7u7yJl7s9iUU15J8LABTLv00B+RfWWo8grvXC8XUeYPncbdXPrdFq+2s6nq6a0YDn2vzqp5184pbB0Oz0IBK1VEvylxsAlJT/AKH85QQApeUviT1f+nxiHsn6BXsYRJHw4oppNwAAIABJREFUr3FE9rgdMXiKLZZ4e9lBSKcPdITgX9WUPy6zb+YWGrc/xivmdfuEG1WTfyB7d0Dh4cIT1/KXb911vzuqbeO209q3TLq7uNQPu3yQRyHguW4f2EcaABoh/w5C+ZcKAI2Sv/R6Xq0dE3av9oKfrRkTT6Bx+2sqnq6aaRAP353PGRLM7lDyT4Ph5GJO/CrLX04A0Er+pAEAyX+Xg08+6AjM3Gn27r4A7V2vMlz5u7fJHQ97BHxdrvxJAgCWvz17eZ8//uLqH0ffRsv2x3iVeW2R9GGGAHixUgAolH+PDPnvv6ufMCx3+fDea2dwzyc7OWjr8gs/koKBHzzT6QcL1eQvBQCN5F8YAMrJv01l+S8rD1hcy8H7Sh0V0NP2rCpPV82ozENSP2EwCm8YiILJZdIvIX85AUBp+bsJ5U8aAOqRf38Uwr4wfLQvLPwK7dl/2x4Vz+jzvvE2JcbDEUi9G7Fn1JK/fenQP74un4btj/HIeT1+8WwDDxYUl39eAEB77lNGbvYoJfrFX2W1e+CpnRz4ejs3e2unN/HXDm8cqin/jiaQf+79asWBHWs84OpVY+KxNGx/TcPTVTMq8K64Iv0mJPyOwXEYGxwHC1jyWsifNABoKf/+CNjbH4bP9UVEHxLpxfYIPGvDRPpgtcbXHgRb5Mq/WgDIlz/e+7dwM3fqaXtuJZ7BD+4gkX9PDfLffxQgtVGtftcMXXpo+z3bTm4fmRru4Gb/D8n8z52cABot//wAUEn+7VrJP/vVAKrVHmFh1Uj892vv2eX46gU/OUxP27MqPF01oyDPGROOdo+Dnw5NiDuHJ8Q0rqFxMvmTBgA58icJAFj+bkL5kwSAynf4gxDt3f+tPwJv74+I5/RlTor6j0aNLz6SgCS/oJb8pb1/f+K13pseZmcfNylv9eapI3sC4FXF5F8QAKSz/T2JxY6Nr5/VqH7x71gnl/pkBye6OzlwU4cf/KnDJ0C58u9sAvnLCQBY/ms8QnrNaGJ/jcy8vuqeqSvXbdz9LrXGo+l5umpGAZ4rNPexwSjYhGQvZsUvV/4kAUBr+VcLAIXy7+MT2x18ImILCv/PGYanktzlTq3xxfNGsn5KrvwrBYBC+eO9/94tO7uafXtudZ6BT7VVkn9PPfJfusyv05P499Lepib94rsldvjAF5GE/7edE3wdXOp1peSfDQDV5C83ACgp/3Wl5J8t9DoKB8JqT+qWdf65jzRiPJqRp+nMaeC5YvCUgXExgEQ/ny/+rPyHotrJv1oAyMq/KADULH9hvj+UfL4vEB9x+Ka+bt3ywsdpGl9bSLhMTfnjsvjiflr6Zbz6eEjWvnLyN5DKP1Ba/rkQMDL5PVr6xZ9bc8u/ju3Ysru3fXTqF+1jM3/pGEvM5Z9DQLv85QSAKvLP1WqvsLDGC8ZXc/C0Ro8HzTxNZ64lD3+/PzgObUjwfy+Ufq3yrxYAaJB/uQDgjIoP2/zCyr6f/OHttI6vnZ/9kD2QAHLlXy4AlJK/LZCcsXmn30tDv4xXP6/jtsePQZKeUUv+0vX+PkFA73+Qhn5L8dZ54od1eMQzO33iH+Xs/ZPIX04AUFr+awnlL31FkFcoDDy0ZgR0YQdoMR608DSduVa89ZH0YQOxuQuGYvDlcuLPl39RAGig/CsFgHz5u+uUvytzxv6TtI8vkv+va5F/qQBQSv7S3n8o9TVa+mU8ZXjdI7s3FMpfbgAoJ3/8uvR+AEZo6bccr4MDj9Muf9IAUKv8C4LAs2s84NzT704f0kzbs1I8TWfeaB4+I90dmzsfiX3X+grir1X+lQIALfIvu/e/9J2/ZfS5k2gdX4t3Z4/a8rcFi2/wolW/jKcc7xSH9eAeb/IBteSfO0IQAN009FuK1zkmHtvJgUWyQ/9k8icNAGrIfy2h/CsFgFwQwDcX2jR56Znfzd3qm+rtWSmepjNvFA/fstM9IX5tOAZfw+LPFon8lwWABsu/XAAolL9bIfnjsvmmLqZxfNdcs/Wt9kB8Wy3yLwwAZeUfEvbgR/nS0C/jKc/r9AknoQAwJzcAEMs/cxOf19DfmyNo6LeQh+R6gdLyJwkAcuRPEgAUlz/63Gr0eVwrt8y8tmbz5IUrr/IcQfv2rARP05mrzcNni7vGwYbhcXGZ+OXIPxcAqsi/XACgSf6lAkDR2f7B5EM0jq/FP/1LNeWPX7eGwI9p6Zfx1OEZfOCHasg/GwC6M3fx+ykt/eZPSNa/J5E/fjaAVvKvFgCy8i8KAGXkXy0A5Mt/9cj+WjWWemnNiOCudmkzTeNbC0/TmavF27DhwTchWbrwd/yF4q8UAGiSf6kAUEr+bgXln6nEPkuArutm8VUIDj45V4v88wNAJfnbw/BF5/3pQ2jol/HU4+GvAZHYnyGSv1++/DNHAcCeHv/ciTT0m53WjSTe3uEDe5WUf7UAQIP8K37/ny///AAwJiAmkAr9zMv4HAGSINCMvx+6auYUp/0gdwS4BmJzL5QTvxz5SwGAQP6lAoAq8g8lF5GgH+/3T/3INvb6Wa5QYt5NKP/CAFDpJj99UXGApvG1B+L3qiz/BUtY/Cot/TKeurwej3hmjx8sKiX/wgCw9FVAjJZ+8bSOE/pJ5F8UAKrJ3wv2rfXBU9o44VL034+gWqxV/pUCQL781zZI/vm1ahT8e7UHGpUaD6XHt1aebppxcG+cPhgDf68k/nIBgDb55wcAdwzOuyLwT32B+MW2zU9/JH/94deVlj9+H4kzTMv4mke3d9cq/2wAqCR/6f2weA8t/TJeY3jdAXB3Rflztcs/91WAR1hLS78dXiGgpPzzAsD9+fNBrx2z1gu/tXY0/sDascS8lvIvFwCK5D9aWf75tdoDHljlEU6udzyUHl/FeM3WjOPWRz4wEIrfPRgTFpSUv/Q6gfwLA4AS8kfSn3NFwUOuKLykLxh/f7n154zOfVduACC7tz8USA+Hqzm+PZffcLiDTzyjsvxn8EOFat3+aP/9YLzS00ou8Y4eH5gqK//CAFBG/hUDgE949vPXbnuz1v2unkgf3O4DqWryXxYASOSPCkn2m+WWr+2GB49et3nn0NqRGX6NJwWIzheoIv+1Gsp/KQCkV+HnDYyBLWs54WhatmdFeM3UjPXyTW9xBqd+MBRJCsNI1iTyLwwANMkfSX+vKwZ/446IbvtE+kiS9ef8tXisOwoXlZV/pmxhoVPL8cVl9k5dVqv8cVWTPy5rCJxb6/LR/PvBeNWnTg6co5b8pa8B0Oc6RqYv1rrfLl+qjUT+uQBQRf55e/+LqzeDD5AsH34uwzoPtCMxj7dxYK/a8i8VAErKf1Se/PNr1ShIrNkyfdFp595wOA3bc1082n45K/Gc3I6ewXDihWEkazXkn3lfXgCoVf5I/E/iPf2BEHhfLesPyfufJAFAjvylrwFC4G6txheX6ZbHjkHyT6opf1R/I73mv5l+PxiPcEJj3xMAfyqSP0cm/0oBAMu/S3pOQHJ23e3//KCW/SLh3qm4/DP//ddalg8ffWnjBDeS/O+XnTNQRf5rNZR/YQBYhT63Cl8tMCJdOvj86o277Jpvz7XyqPzlLMFz3PPCye5w8kFJ/DLlv14F+Q/VKH+01/5sfxT8sH9C/HC9688ZBT9QWv5SReCOcnJsxPZi882M1ip//Llq8kf/PW8Lgs/Vunw0/n4wnnxed0A4udsn7FND/tnqGJnepFW/+Fa3SNTbq8lfCgAE8l9+5r/wvXqXb51fPG6dV7hsnQc8VU3+awnlX3Tb33Ly99Qv/2U1KmxdMyae0MjxrZtH8y9nlme46tbD3MGZHw/FknO1yn89ofzl7v2Tyh/9/y4k/ptdEfB5JdefI5D6RKUAUJP8l6rUmfGN2F7MW974H/yoX7Xkj8sWTt1a6/LR9vvBePXxuj3TtxUFgCryLxcACuUvBQBvYqHTM/sFLfrt4uDp6sgfP2547qNKjsfqUeGza73CL9aOJXY0RP5eMvmvIZE/ej3zPoArx4SLSO8foPnvB+2/nI4tr35xMJJ4Mid+SuQ/RCR/uOCOivhkPie+G6Fa668/Cp8vvfdfu/ylZwNE4O1qj28hD1/KiWT911rlj88ZqCZ/exDutsUSb1drPBivuXid1957VJc3sUMN+UtfA/ikp/D9Ve4tppXot51L3VJN/tLrBPLPDwDrOPAvtcaju3vDIet+9fratSPTwbUjiX1Y/usI5b9WQ/kvBQCpVo+BfxZeLaDG+NbNo/WXs+fO7Qe5Q/EfDUeTe+qV/3pC+csJAJXkPzAu7nTH5m50/aYxz592RuEvlJb/0lcHu7NPy2rUxmoNzg6rKX9p7z8outQcD8ZrPl7X6M4hKQAQyL/kdf8V5N+VuS8A+u/q252S/eYf/ldS/ktn//+wEeO7djT+/nVe4ZJ1HvCKovKXGQDkyD9XHmHvSg/4aamdP2p+P2j85RwIz35hMJz89zLxUyT/wRLyd4cTC64IlPb28S2IG7n+nGHwpUL549sD1yP/bDkC4orGyT91pCMi7qxV/kUBoJT8Q/DP1fbEqPnlZLyG8rp88AES+Rfd+a+M/Lvy5C8FAA7sMnIzb21Uv51jqbOqyT/zvsy9f/xd/aZtX2jk+OIw0zYmrFzrhX4k+r2VAoAW8i8ZALI1Cp5cOQK+IKdfpddfpQ9T88uJH9PrisGb0V7/vFLyHyaUP2kAKJS/O5Sc7Ofj19gi8Q9U71Cl9YeEhsT/utLyz1wNkLqrURurLQKvq0f+ywJAKfmHwd7+cOpTqo8H4zUlz4C2jZ4A2KuG/HPlAz9rVL8dHLhNDfmjvfJXtBzfs0fB+5Ccr1w7BnbVJH8ZAaBu+edK2LfKA35y+s2Th1D1+0HLL6crIpw8NA6eKxI/ZfIf3L/H/7TDv3uDjZKnRrki4Pas/IsCQI3yx5/rDyZ34+/k1N5Y+8bFE/pCYI9a8s8EAPjLRo0H4zUnr8sHryMNAJXk311K/tLXAGCux1/6q0El+8UnobV5wa5K8pcbALK39127eepGGsYX3+BonVccWOsBT6zVUP5kAQCkV44K6RWbE0+uuvO5T9Ow/nIQzWa+NEmP6h0HUGn5DxPKnyQAZPb8kwuuYPJP/dwuO36+uOaDlzfZ/MJKpeWfZZhHdqxTe2O1h0GwHvnnAkAZ+eMT/5zB+NtqXT6l+2U8Onn4hjVI3jvUkP/+ECD41O63zZNYoZT827nl9/Zfe8/rZ9I2vmtGU19ZM5IIIEHPV5Q/YQBYrYb8tySWKi6u2jh5IU3rT5OZ9/HJd6K9/nvXTyDJx7STf7UAMBADwBWKb3RueuUztP5xW7P++4cgWU8tCwAKyB+Xwzd9j5r9OmLwlL4wXFRL/pnv/oXhWpdP6X4Zj25el08YrhQAqsm/WgBAP7fY4QNfVLPftrGZuyrJX04AWPZgn9HkrqUjglSO7+pbX/j4qs1Tt6EwkGqE/EkCAJb/ypz899fZoyn/2QTnhKi9/jSZ+WAUfAHt9b+qlvyLAkAt8o+BpCuSurb3tr++txn+uPXxiTGl5Y8LBbXJ7huekPVcbDn9OsLiw/XIXwoAleQfhI9peVMjxmsuHj7hrNsHHlVF/kvVwYEH1Or3zO/+/NA2T3K3EvJv8xY81W9k+lfNML4rRna8Y7VHvAoJOi4nAGD5r1ZB/kUBAL+O3kf/Pr96tPJ5SWquP1mTYvKPgXOQ+MWs/IsCQAPlXyYAxN3j4rV27853av3HSA7P5t1hVlr+/bjQ67bI3Bo1+kXi7lVT/o4QXLRH4f9oMR6M17y8Lg6e1oP21PMDAIn8SQMArjbvbKca/bbd80ZbJfmTBoAi+ePD/xu3dzTT+J7OpY9A4j8fyXonqfyLAkAZ+VcLANXkv78EccWYMKjF+pP1w/XOHF8ehyR99zm/xsJWT/7DNcp/MAanBmLwCvwwHpr+GJHyDNfyb0ESTyklf+eS/J34csCIuFHpfvGJSkjsz9Qjf+n1cvKXDv2LXq3Gg/Gam4fE7pErf9IAgO8P0OFJPLVm6NJDle63bWT6biXk31Yg/3VjiQS+P0u9y6fF+OIgsNorXIRkvrvR8l9ZUf77a9WocOPp96f/s5HrT5WVXWr6Wizx9vXj8PeF8l8WABos/2wAcMfgtCsmXvV1tJEo1a/S64+U54yIPqXlj6svDBNKPyLYHgbnqSl/ewgA9PljtBwPxmteXkcIvA8JfbZbFfknpWrbvPtrisr/wjuOaPMkp8vJnyQAlJY/WlYPuKfe5dN6fPGVA0j45672CG+Ukv9qQvlXCgC1yD9bK0bBb0+/e/nJymquP1VXdnZyheY+hiT9YiPkPyxD/oPjEOBD/Y5704cr2a/S608ODz/GVwn5O/Pkny1bBJqV6rctkj4MSXpHPfLPvF9p7x9cpfV4MF5z87p9s1eQyp8kAEi3BfYmcwGg3ZPYYbjyd29Tqt/2zbusleRfLQBk5V8UAKTXhZX1Lh8t44vvzoe/GkB73Qk15b9Shvyzdfao8PzKkdkTG7H+VF/Z7ph49vpxMVFK/rkA0GD5o/f3uGPgdtfE7FFK96s1Dx9WR7KeVFr+0lGACIwp1a8jLP5QZflvQ+viUK3Hg/Gam9dxZfTITk/8ZTXkn61O7+wVSvXbNpaIqCJ/L9xO+oCbSstH2/iuuvGR963cNHXTqi2JPasJ5V8uACgh//0Fp87anPqy2utP1ZU9OL7HjE/2Kyd/KQAoKP/havIfh4torz/mjMydqEa/tPCcUXBHPfJ3lZB/JgCAvY5A6t31Lp8xJhztiMBUPfKvFgCsIWChZTwYr7l5nZt32arJv/q1/xn5FwUAJOtOP0h1B4T31ttv+81/PrrdK8yVk3+lAJAv/7ZC+eNLAT3C9fUuH63ji2v1jU8dv2rzzF0rx1ILSsl/Zc3yl64OSJ+9JQ7Ovmt7t5rrT7WVPTQBvn3OBJxvpPyHK8h/YFz8S98EPE2tfmniuaLwf5SWf7YcEXB+vctnD4E71ZQ/4j9E03gwXvPzOsfiD6gifx+UqssHb6633zZv6jw15C+Vv/JjzBs9HmrxkOC/tHoM/FFOAFBD/rnzBjbH963YtHO4YetPiZXtHp+7DMl/sZL8pdcbIP+hcbjTGYN9iqwcgokWnjMKXqlF/tUCQH8EPFLP8vXFxJP6wmBfPfKvFADsYbhg5Sl98AbjNS2vy5c4ucsPFuQGgHz5LwsAefLH1eEHe9aVuUUwab/tnPBXuQGgUP5tpeTvBc/RNh5q89aMQTOS8fZqAaCc/FcqIf/9IWBxxUjq26qvPyVWNtrTvhKLv9HyX18s/vnBGLjraxWe+66XjbXU1BcWr61F/tUCAC58Umety9cXhjG15J+53784RuN4aMUzGL59sCm698MGPtVmDMILjUHwQyMPrzMFwEb0r2+p7jb44XWGAH5v7gJjQFjX4xePO3Z0y4HN1q+aPCTzLWrIPxcCfIK/1uVbMyaegLiLissfH/7nwJU0jofavBWb0ofjx/muHhP2aSb/5TcNulS1fpVY2YPj4Kck8s+8r578B8fhP/CdBhVbOQQTbbz+8J6PqyF/6VyAELimluWzBeFXyt3yl1T+Vfb+RUdY/BCN49EonuH/Hn6vYcsuu9EzfYfJn3wSyXzOHITpUmWqUEYepHt9CRHVE0bPzG1dm3dZu65/6D209dtIHpLhMZ1+AZIEgEL55wJAGflLhQTexcEv17J8bR7hR3L2/kvJv62E/NHPLdZ7ZEKt8WgUDwWgz60aE/6WHwAqyX+VKvLP1NkjwiWK96vEyh4eBz/QSv7rc+IXE+7Y3Pn4Vp6KrRyCiVZeXxQ+Lkf+xAEgLLxyitN+kNzlc4SEv9Ur/0oBwBaC19E8HmrxescSxxi8k5cbufiTRn9iAYk/LRWSeK3yN6LPZ6vXt1QBYd7Iw8dMPLwYXyOvVb9a8rp84Jpa5C8FgEryzxV4UPbypdMHtnPCy4rLP/Pzf6V5PBrFw05ZNQq+scoDZxot//wAgGvlKPxfxfpVYuUMxOAF5xJ8578/ICgvf7QMvxkg+KNE48alFq8/DC9RWv745kB9SM5m7/YVcpbPFgY9asrfHoLT+Gl/NI+Hkjx8HbMxKLrQHv79Zn9iPid9AvlXCgDl5Y9e52FeARwGfmPgoaPS5WG0rr9aefhpgSgETJYLAPXJP3tCYKpNzvJ1cfB00r3/cvJvKyH/zOH/uYrfPWs9Ho3mrfROv3fF5vh4OfnLDQBy5S/ViLC4cqT0w81k91vvykF73UPn/BouaCV/VIIzBs4jWVbaNy6leSZf4r+coeQ8ifxJAgCWP342AA4A9kB8E/HyoT2UvjB8sl75VwoA1iD8Du3joQRvw0T6YCT9YTMPXsKSLxK/gvLPBYAi+RdUALyK/v1Oq9x3ocMHvilH/tLrhPLvlIQNHsW/M6TLh37+rnrl315C/uj1fWs54Wjax0ML3qp7dn8NiT+ltvxLBoDMVwHzZ40tvzFbTf3Ws3Lc43NrzpmAe88llL+cAEAi/6Fx+PeB0NxH5Q4e7RuXkry+QPJBpeXfJ4l6No5vkkKyfLYItKkpf3sYvojvUd4M41ErD+9lm3j4v+Yg2CVJvEb5lwsANcs/rwx+4Q0DB76BD5fStv6U5OH7tXf5wHNqyD9bSL49JMuHQxeSd7xaAJAtf+naf/CbZhgPrXgr7njxxBWjqYeXnRjYAPnnhYC5FVvgV+rqt9aVMxgTTzpnQpzRQv7o3/mBGPjZFWUenEAyeLRvXErxHNzUBpJHBJPIPz8ASEcBQqK72rJgGSCpP1Wv/CsFALNfsDbLeNTCMwXAl5D8H8sJvA75lwoApeQvBQAZ8l8WBALg8a5Nb5xOy/pTg4cCQA+J/DPvyyv8dUGHJ/nv7u4Nh1Rbvnaf4KpX/uUCQLsv5WyW8dCKh/++rR4F568cE/aQBgBS+VcLAFIIGAXTK8dSH62531pWjjMmHL1+XHwVy/8cQvmTBoBq8h8aB9uGJsCXlBi8WqZm45mv+91RzlBSVFr+fZKsxYeqLY8jssetpvztIfC3ZhoPOTx8ToM5KN6D9voXmkX++HOZ8wYS8z2e6Ts6f/zbd+hlPAonfMKeSvLPPCdg8y5nteVr58ADlQJArfJfxwkQn++g5vrTE2/lCPjcylHhRSXlTxQARoT0WZsTz634xR/fU1O/clcOTjxIxA9oIf/BmPgHa2T2XUoPnt55SNbRincGJJD/sgCAZC29F4GL2XsClJrwYWsk6RfqlX+5AIDkn7aM7VjRbONBwsM3M8Lf8y+Td53yLwwA5eQvvV6X/PeXwZd8zuhLnNzo9dcIXo83+d8d3sRCOfnLDQD58pcCwFj8+TO/+/NDyy0fvjyv3LX/pPIvf/hfKHqMNu3joTUPB6aVY0K4kfI/e3MiU/fM/H7p0dLy+pW7cgbH4Q1Z+Z9DKH+SAFBR/uNwcSA2d1O1y/sK+9LTxlUPrz8MrfXKPxcA9stfKkdEvK7cMtkj4Otqyt/qn4k243hUm/BJfpYQgM0u/+w5BKjmenzwO806HpV4HZ6ETw355x4X7J0dLLcMHT7ws3J7//XIXzr8PyZ0NmL96Y6XTh+4alS4eMWYsFCP/Am+/98v/2zdPf3DWvslmgYj0Cxd7idT/tUCQCX5D43D1EB0j6X60u2fqNkYKOHhM8f7ozBOGgBI5S9dEhiGu/ElaYXLhOfpiIBX65V/qQCA5W8LJOatW176VDOOR7kpc6If2GQJFYhbAfmbCeWfeV85+Wfez5QhAG4jCfG0jAcJr+OW507s8Cb2FMpfTgAoJ3/pdR94+XO3pYse2oJf6+DgztJ7/2TyL/vdvxdO5s+zmcaDFt5qDnSvHAXJhskf1VkjqQX03tqamq42ubbC/0Lij2flXxQAVJH/3IuuYOqTcpaTxo2BBl5fBNxWq/ylAFBC/rmjAFFQFNBsIXC+WvK388m0zR/f3MzjUTg5708fYuaFCJZ/fgBodvnnBwBcPQEYLbxckMbxkMNrH5u+XQ355/3MNwqXA73Wq4b8l+qXzTwetPDOHps9acWI8Kxc+VcKAOXkL72O3j9rFOz66mjqPTU1X3ZKpw9EQr6/FvlXCgCV5D8Yg0/gkw1lrXCKNwatef3h1KeqBYBa5C8dBQjB3+XPC/+BR7LeXq/8CwNATv58Ys7yq2dOaObxyJ8yJ/sJD6slfzOh/OUGALnyzx0J8Al/6Ail30LreMjltfmn3oOkn5IbAEjkv/RzO9oi6cPylwWJ/t5S8m/3kMm/UgBY50l9opnHgybeiusfes+KTTN/aYT8s3XWFrAVO5tk+YimwfG57+bL/xy15T8uPjhQ4g9EtWZo3xi05vWH4aNy5V9J/LmKwvnsPfjxZA/B/6eW/HFZuJn/08N44AmHJST/P2flnw0AWshfTgAgkX+5ACCFAD94EB/1oG08auXhWwSrIf/cfQE4eEF2WXr88IPtPjCvivw54WE9jAdNvDPwlTCbZu4jkX+FG/8QyT9bXx0B55AsX9VGvvZb8bhzJgCoRf7lAkBl+cOt6wvSrpyVTfvGoCUP7cmfVyoA1CX/7NcAYXA1ngcObo4QmKxX/vkBIF/+Nj4pmG557Bg9jIf0nX8ARNWUv1lD+VcKANLXAX4Qw+uAlvGoh9cZjL+tywdnSAKAXPlLkufgTsem9OF4Xu1e8INS8i8KAGXkXykAdHiFAT2MB228tos2Hn7WaMrbCPkv1ezpm8EHqi1f1WaGouA3+fI/R035R8A9cs70L7eyad8YtOJhOTujMOUilH/ufaIAALfjP+a2UOr7ask/s/c/dY1exiN7wl9+aSV/0gCglPxzIcA3eyst41Evr4sTLlVa/p35ovcKl+C/j+2c8Koa8kefSdpuTxyul/GgjYf/Pq4cS90qJwDUKH+pVowIgWrLV7GZgahorlX+pQJAJfkPRMGdSq7sWqZW4PVFwGal5d+/JG0NuOB1AAAgAElEQVRrQOizB5PxeuWfDQCF8rfyyamun9/3Lj2Mh8UP/1dt+Zs0lD9JADD4QdrAJdNdo7u/rvV4KMHDe+gdPrBDDflLsvfBafSzllLyXxYAKsi/4uF/b+o2Wn4/9MxbOSbcpLb894cA0F5p+co2c65n18Hro7PbigKACvIfjIk8yUkLtaxsxls+OcPwVBL5ywkA2bP97XwCKiF/XIXyz+z9x7+n9fpTgmcKCCdbgkBcfuhfO/mTBAC15N+DqtubmOvc+PIXafj9qJeHpHyeUvIvDAAZ6QuCOvIH6baNr35J6/XXCjzpWRmjqbFKAUAJ+Z8llfAcvqSz3PKVbcYdil9WKP9zCOVfGAAqyn8C3lfqOnKlVjbjFU99YfBvpeS/9P1/3Sf8VZO/jU++4YhMHlK9O/XXXz08fPY7EvQLasvfpKH8qwWArPyzAUAKAVzyGXz4udHjoTQP/7Ht9IEXlZB/qQBQSv65AFBF/mXv+oc+t2408Q8a1l+r8PB2snIUTMiV/wpC+e8PAADfH+A84uXDL9rveOg96yPJuNryH54Q/8HO9m88z+abvriS/OV996+s/DNHEpLFe/986uu0rL96ePje/oXyN/9/9s4Evo3i3uPhvbZQ7pZSCry2lJZerxc9XimFksS3rcOWLNuSr5wUSgq0pdyFchQoFCiUtoQriW1dq9NH0os2FChHoUeg4Qp3bl+SrJ2VkzjWm1lZjrzaY1ba1c5Ku5/P/5NYsn67v5m1vr+9ZkLawV8qAJQC/mzB122B5P2l7g819JoouodE+PMFABb+8PONG0YvIaX9KkXvLCr9/moP/WRuAFAe/lCvLz5ae/PGD2HBH725IjJ+Jxf+F2DCPzcASIzw93p3OHFCqRrb0Duk13zXX0/qjiRSxcK/u0Twd0XBG+c/nz8amlbtVzD8A8zZ7VFwkAv/vABQJPzzAkAJ4S/x6N88/O0c+NvZQYLAjD0Avq7X/s0u6BSvlQIvFgN//tP/+fBnA0Cx8PfGmKa7Hz2RlParJL1z3PEPVHuYl3HgLzsAZCYKytSG0eux4N9+x+YTFhz9qwD/1ZsYZtUI/ZVSN7ahd0ivKxQP8cEfNwCoAX/0+bwAwF4OYHinJdWy/eTqoTuA28PgP6WAf5sI/OHP0xDGLzkiqcfaImCTIwQ22UOpx+DrL8P/T5cK/nYO/LMFf36+HIYLtvqTNpLgzw0AWfijMnliA6S1XyXpVQ8kv1jtSQLV4I90+uKjDVf9/jhR+CMTy8KT13PhLzcASM3qt3xT6kKtGtvQy1Sbb09DMfDvLhX8o8yr5fBoaEd4+kd88F8QAFSAP6x9sEYg3C92RKc+L9aW6D30O62B5CV2f2yTnYrvlwN/wZH/MOE/HwLC4t8PJPYvn57ZG/tnIfDPu/tfAP7s60XCn63+HYtJbL9K0qtat6dHDP6yAgAH/vPlTn5f1Izrh7cdCY/+d6oJ/5UjtFfrxjb0Fr/3NM/AYRDmb8gNAGrBPy8AQPijRwFdEaabxPaTo4dG++uIMHtLAf9sAGgNgp2OEHOFnOmzuX7tv3nq5Fbf+DUQ2DuVhL9dBP5zlwLe5ZsAR6n+KJWeZWC0lQT4m0Xg3+iNvUJq+1Wc3oaJDcXCv1oQ/jR6IuDNvAOAXDM9wb0uLvzlBAAp+K/exLz2PSp9NBGNbegt6hqir5cTALLwzwsAKsFf7tE/qf3RFgGX8sF/PgAoCH94pJ5whOnL12xKH66UX/RIMATzFRDoU3ICQCHwz5Y1AC5Qqz9KqWf2xf4pB/5WTPhn3i8O/qgaBiauILn9KklvyeX+Y6v74lu48McOAKLwz1wagL9Tx92IeTOrBuOPFgp/ND6AGPzh+zPLR8A3SWlsQ2/Roo7B5EkQ7Pu0hv+CADAHf1TtQ/tcJLcfzoIece0Ig3dLAn8qtrnZH+Md/lMJv3C9H20Ngc3FwN+OAf9MgTfQfRNK90ep9SyeqWY14C83APDBv9Eb31ftG/swye1XaXp1A7Ev1Xjo/YXAv1oC/mx56QB3QzJH/31bP3H+RjCTC3/cACAN/xS66/8e0hrb0GNHBhyRCgC58O8uEfy7hsBW3MGhSO4PR4hezgd/NgAoBf9AfLaVmrhlzZonZN0rUYhfdEbGHmFucYTArFAAKB7+7LTBaUsoM800yf0rqQf3YUsA/ENOACgF/Nmjf38yIGlO6/arQL1qN/i5rACAC3+26P3fcedcFsyufNUwfVmh8EfDA4vBf/Wm1E7cCX703nl604OwrdcS/vMBIBf+sDrCjFMP7Se1QPhvVhX+wfhMq2/solL7dQTBhY4wmJED/1ZM+GcDQHOQ+R3p/YujZw7QViXhLycACMGffT2Qkm26HPqDdD3T2vSREOzvyoF/XgDghX+mlrrpVbkbxK4cQvpJuQEAB/6oeobp1aQ2tqG3aBEE/Us48O8uEfw7B5mXy+FRMHhk/lEI+5m8ABBR7sjf4R37vlZ+bUF6JToToAb8UbUE6AOWtVs+Rmr/ytGDAH9eKgCUEv4mH9iip/arNL2aAXqZZAAoAP5VbvbfTQs2Cg3I891NzIFC4J8XADjwP39jeXyZl7Ne5yD4vhbwZwMAB/6onNHMqV+9tJ+QXpt//KeqwZ+95j9xi9Z+IbBvxYG/3ADQAj/XAj9vGRi/nNT+laNnoYBFCfjjBgCTGPzZSwM5R4E6aL9K08vMFwBewIF/NS785wLA0gF6XzU1edz8ylZtYjrlHP1jwx899rcxtZz0xq50PdNQ+sjuQSYmBv/uEsHfFWVelLr2T1r7CenBI/QXuPDPPA2gzA1/pbjmL7WgLypbgH5MKfjbc+DPlm/y76T2r1w9s59+TmiioFLC3+xnxs5bl8aeV4OU9qs0vSp3slNR+GfPAKAQkDNL4KJVI+DhQuC/IADwwH/1RvDu9ZvT79FDY1e6HoTvL8Xg360w/NnXOfCfu/bfpsf24+qhZ+jbQvGDasDfEUhMqXm3v1w929pXPmkLJJJC8JcTABbAPzNT4IFymQLa6gPmYuCPEwAQ/E2iR/5MuokCt+mx/SpN7zzITvTsvhj8qwuAPxsAPPSd8yuCUH8VJwDIgf/c0f9NemnsStfrGkx9ojtKz5QK/pn3F1ZnlPmP2NE/ye3H1Wt17+3iwl9uAOCDPxsAwvTlxPnNDBhUFPxtXPjPVXMg2UKa30L1INj/kQt/S4nhb6LAfvjvx/TafpWmt9RNX60I/DkBANY/2O1As/F993fMQakAwIX/fAAQgD967h9+yQvuaCQ2dqXrdYXiw3zw7ykB/KVG/dND++XqOajJh9SBP9il5CA/Svm13eo/1hZI7OLCHzcACMEfnRFoDjL3kua3UD0I/VbuLIE48JcKAFn45wWABfBHNwbSVCn9GnrF6S1dD06FgJ8RmiioQPinl/YnZ865YfjYRcuHmPOUhz8a8pf5m94au9L1Ony76koBf74A4BoEb+UO/KLH9svVawvE/5MLfzkBQAj+bZmJfWQf/Zeq/VpD9JWFwt8mAH9b5v1/kei3ID00LgAFtqoFf5MI/NkKM+eU1K+hV7Re1QC9uSj4cwPAAPxcXzy99P63vrlo9cbpS8QCAB/82QAgAn9UK4aZq/XY2JWu1xWOv5ALf7kBoBD4s3f+DwLeCWD01n6o7PZLD28P06lc+OMGADH4w6P//Q5q6kTS/Gb10LwDthDYJycASMI/8zugHAaFyuo1uveuzgsAIvAXCwCy4E8xkkFKD+1XcXobJi7nmyioGPizAeDhPSsXrdrI3K80/NkZ/4bpL+uysStcr5Mau0hN+PNe+x9kdqIhc8uh/dDPbcP7P6k0/Nn3I8wIiX5z9SD0N+EGgCz88wJALvznCue6tV72l6U/vO1Is2/ybaXhbxKHP3r0T/SJLL20X8XpPbjtzILh7+GHf6bG71i0ciMzwhcAhODPvi4Bf1hT3MSum8aucL2uobEjegaZMbkBoFD4s0f/EebH5dJ+6HVbBJjlBgAp+KNqDYH86TwJ8Ju7tITApUrDP3MWgDOJCSF+C9Vrco/+AAf+QgFAPvyZUbFH//TWfpWkd3aX83AI/lgW/tWKwB9q9U16F63+Xeo5heGfd/1fT41t6KGBgVJ3qAF/gTv/x0ycYaL13n4d4ekfKQ1/VI7o1OdJ9Ju7tA0nvyAVAHLhb8OBP3o8MAQuJtFvoXqWG4aPNfvBHqXgbxKHf7qJSt1cTu1XcXp9sc1Z+MsOADzwZ8udfGzR+RtT716ACf/M+9K1amOqT9eNXeF66OmNnkFwQG34Z679p36qtV+l9doj4BbcAIALf/hzSg8jaqIbOe0hMK0k/G3sZ8ENJPotRs/sp6+WGwAKgz/YB6FxitZ+Db3C9aoGkmsVhT98fekA/dqi725KTeDCHzsAjKRu1HNjG3qLFnUNpUJKwp8/AIBEbyR2PAl+ldRrDzP3KAl/9ug/wrxEql/uAo/+X8aBvw0T/qisQeYuUv0WqlffP34shHoMNwAIwd8kAv+5AOAjwa+hV7helYe+SnYAEIF/JhyA3Ysu+B0DlIR/5gZAcKmeG9vQgwFghDlbXfij0//gDlL8KqnXFmbWSQUAOfBnA0AYPE6qX+5iC6WeUBL+7CUACjxAqt9i9Cx+cIua8GeH/g2Bs0jxa+gVpgfBf4Gi8M8MB5xY9N1NzAwO/OUEgJ6hqdV6bmxDL7NASP9TCfjzBoAhhnGM0B8hya9SejAABJSEf+YJgJwZvAjzy11sIbBJCv42GfC3BZl0c+DQUSxpfovRM7mnPmSmaFosAIjB3ywFf4p5liS/hl5hejWeZBd2AHBLwz9T9P5F528EM0rCHz0i2B0cvUDPjW3oZRYI6n+pAv+cAECSX6X0xAJAIfAXCwAk+OUuuQGgaPhzAgCJfovREwoASsCfLT/zT5L8GnqF6aEAoCz8swFgOAGk4I8bABD80QiBvcGxH+m5sQ29RYtcEeY7SsBfMACgGwDDydtJ8aukHroEoCT8hS4BkOKXu2QvAQjB3yYT/nMB4EFS/RajZ/KB24SO/qXgjxUAMqP/fYsUv4ZeYXroEgAW/Ptx4Q/SSwZAfNHqoakJJeGPallw/Gd6bmxDjz36D6sJfzQVcGc4Ebfe8YcTSfCrpB66CVBJ+GfGAFh4EyBJfrkLBPcrYvC348I/JwBYAvRdpPotVM8aiR1vDoC4qvCfuwmQBL+GXuF66CZALPhzA4AA/Nl7ANBNgKsGY++KwR8nAOTCH9XyaGxAz41d6XroMcDunMcAC4W/yM1/CP5sdfjGbtTar9J6bWH6Z0rCf+4MwHR2rgTS/OYuaBubA8l9SsK/JQDSzZ6Jm0j0W4yeOUD/hO/oHwf+cgJAo5/eV33fix/X2q+hV7hetQesVRT+7BkA+rVFK4fizysJ/0wASPxNz41d6XqdQ6lfKAF//oF/DsEflSuUGEWDopRT+7WHmR8qCf+2uUIDAZHoN3exhWNfEoO/3ACA4N/iT6StvtEfkui3UL2uvvRR5gAzWij8cQMAGh+AHSHQPXlbObVfpelBaP9ZEv79ePDPBoClA/Rji1ZEJ4eF4C8VAPjgj2rVRjCFM2gJqY1dyXq9m9NHdA8yY6WA//xZgAj9Q638qqGHhgJWCv65AaA1mLyYRL+5ei2eicuVhj8q+8BOE4l+C9WDAP9R/ql/leAPq9ETH1tyuf/Ycmm/StJDLIWwTygK/8w9AP2LVo4wv1ES/tmJglaN0F/RY2NXuh6E+4VKwJ8bAITgj153RZnt5z+ffq8WftXQaw+nPqk0/B3wc61UbBOJfnP1WnyTfxSCv5wAkAt/9gzA2pc+RaLfQvTQxFdmKrmjUPjjBIBc+M/XwN5V5dB+laZ3Xl/yC5Lw78eD/4IA4Aa3LVo+BC6WGwCk4I9qxRBzrR4bu9L1uqLMllLCvzMzG2C6I0Sv1sKvGnpr1jzxX23BeKpY+LfnwN8BP28PxPc33/P0KaT5zeo13f/c/9io+H6l4d/sj4OzezvfR5rfQvVMPnABF/5oYiBV4Y/KR/9bC7+GXnF6EPY/Vhr+qKr6k72Lujcx5ygN/7n5AJ7SY2NXsl7HYKpGCfjnBgAx+M9NBcyWK8Js08NY97h6bVRsa7Hwb8+Bf7ZaveNXk+gX6bT4Rq8Tgj9uAEDjA+TCnz369ye2kOi3ED10k6SFAtsKhb9UABCE/9yIgU0B5txS+jX0iter8dCPicK/Hw/+eQHAQ5+5qOsP6aPO3wQO4gQAXPjP/e7M+X9Ki87hTWJjV7JeVxSMaAH/+bMAYcZZSr9q6jmoyQeVhj8bAALxXWjKZtL8mq8PH9dCxXcXDX8qkR8AQvR9pPktVM8UZLq58M8LACrBP/M7dLCUfg294vSWrgenLnXTM0rDf+kAfeC8X899j0BYv6Ik/OcvA2w0pqDUi57TP3V6Vzg+Uyz8swFACv58AcAZBYKnKElvP66efWBvZzHwb+OBP1vo9TBzJWl+bd6xnwrBHycACMGffQQwAGyk+S1IL50+DEL8xULhLxYAcOCfGRkQHKj1Mh/VZftVoB48Sr9WFP5uPPjzBIDn0fawK1m5ETwkFgAKgT/7uRFm+/Wb0+/RS2NXsp4rGPtVKeHPFwDYEBABzXpsP65e69pnT24L0weVhj97U2CYmYK/J/klXiq/trWvfNrmj4Oi4c8NAOhegBCYsebMGEmC30L1IPgdXPgvCABqwz9bAfBzPbZfpemdB9lZ7abfUgL+VQvhn16yYQINrPU+dkWrNjGdQgGgUPhna/lIaqUeGruS9Rp+/vvjOiOJWLHwR1UM/Nl7AaLMFnSkpKf2E9KDIN9SCPzbxOA/f2Mgs5mEeyYaVl37fgjrJ4XgLxUAxODPPgoYBM8p1R9K+C1YL3P0/wIX/vMBQAL+QgFANvwzn5lE4xDoqv0qUK/aS3eLwt9TGPyX9sXTSx/e1TIfALrDiRO+u4k5oDT8M48DMq9kv6hIbuxK1uvwj/6glPAXCwDsvQBR0KKn9hPSaw3T16oB/2zZI8wtWvtt9kzcrQj8qXz4o7JSzOVK9YcSfgvVMweYNhLgn3MvQN5TNyS3X6XpoZtF4dH/i0rAv4oD/yUbYvuq54Zgn1/h6o2px3MDgBLwZ3VgdQ+DC0lu7ErX6wzFXy4W/uhzSsA/exbgNM/AYXppPyE9dJq+IwJm5MA/LwAIwJ89CxACs61B8D2t/Lb4Ji4Rg79YAMCBP9Q+YImCU5Tqj2L9FqwHj/5NFHiBC382AGDAny8AFAP/ufkBtpbLmbZy1FvaP7VSFP5yj/6zR/6o1k9uzG7f/ApXjoAfKA3/bABYMQJ22X/56PGkNnYl63X49phLCX+8AADSDv8ehx7aT0oPAnyzGvCfuwyAfmfGEQQXltpvs3fs0pYgPaMI/Ck++DPp5iDzR6X7Qws9i49uJwn+WY3GYGqJHtqv4vQeiB9V3R/boQT8q7jwR2cAHt6zOm/7VsCkff4m5oDS8F8FP7cKzRAYnvwNkY1d4XqdodimYuGPPq8k/F3w885gfMvZXc7DSW8/KT1HJLUMF/5tsuE/VyEwC4F7K7rUprZfdM1f6rS/WADAhT8bAPxMl9L9UWo9NCiUyZfYmhcAKDz4cwOAUvDPFB0ivf0qUa+qb+JOUfjLOfrnwn9DbF/VHU9/hHf74JH675WC//k58Ee1cigx0+t959ukNXYl69kf+PfHu8LxA6WCv1QAyMKfDQCw2r2720luPxw9dCcvhPw7SsI/LwDMFYTmY7a1r3xSLb/obn+pG/7EAgAv/Cl++MPfffM8nieIiu2PUuuZBka7SIJ/bgBo8NL7qn/7j1NJbr9K06t68O1vVPXFDojCHzcAcODP1obJAO/2oReXUXvb1IB/Tgh47bt9iaNJaexK13MGJ24sFv55AUAh+KPqCCdeRPcCkNp+uHrwCP1iKfi3FQn/1hBItwZYjWSrd/QntluVm/il/pbh4zPP+Qs/6qck/DOn/xde1lCyP0qlZ7dfeniTJ76VC//Mo4DyAoDS8G/00WiCoHR93+hVpLZfxend8Ojx1X2xrarBv4/VrBY009Ky5ohVQ4kdxcJ/NQ/82YKvrxhO+Ylo7ArXQ2OruyL0m8XCf0EAEIG/+KN/h+CfGwCc8PWOKGglsf3k6KEZFmEI2KME/PkCQBb+CyqY2NUaoq90UFMnFuoXje2Phve1+xN77SKD/EgFAEH4B/nh3xJkdqAJc9Tqj1LpWfr39hQDf7PC8J+/9j8Hf1QN7tgrpLZfxen1TfRLwh8nAKCRAXngv7Q/+Xreo8NcM8vD49epBf/Vc/cFLN+Yukjzxq5wvbYoXUsi/F058HehgYEGmRdy71Ympf3k6jmi4AdC8G9TGv6oQuyIgRDGYH9riNnUEgKXtg0nv4AeLxLcRvheazD2xRbPxI/tvsk/osmHEPjZKhH8UVkoIPj9QGr/cvXQwdSCo/85+Ms9+lcS/qhy4T9ffbuWkNZ+laZXtX7vBarCH50RGOD5u+Ka6b7tsQ+sGgGThcJ/tQT8524MTPVGwNe0amxDb/GizigTLBb+8wFAAv5CAUAK/tlqDzMO0tpP7sLCNQz+LTRFMA78uQFACv58BQPBPnuYeQX+zuMoGKCCcH/CHmRebQkkDwE/t2TA344L/xA//OF7/xQa4Ijk/uXqNblHlxcDf3Op4I/KT/eT1n6VpLd07etfq+qLMZLwlwoAc/DPCwBo5D832HsWlX4/30bkmVk5krpNLfgfCgHTbyzbJHx6Ui+dp0e95nDihK4hJkUa/F088GfPAkTBVqlR7/TQH/aBnec6gvGDWsGf/96BTLGQF4B/a+ngf7CZYr6l1/7N6i394W1Hmr2xbVz4ywkASsOfPfXPB38UCigAymW4Zb3pVf38iY9U902+qib80TgASwboq4Q2JM+Mg5o8DkJ6XC788wKAAPwzAQCND8Bs6dyUPrZUjW3oZfRcw8zlxcKfDQAY8OcLAHLgn62OML2ClPYrRq/VN7GBO0ug3ABQavjLDQCS8BcKABR4QO/9i6pxw+iaYuBvKiH8558IoMAaUtqvUvTqrxg+vnpD7Cks+IsFgBz4V/HAH/47Wt8/nsfZ7Mbwmlm5kblKLfhnA0AmBKSeRDdJqd3Yht4hvW54RE0a/F0i8M8UeHfNpvThJLRfMXqNd2w+oS2Q2KY1/LMBQBP48wSA5gD9Bt+XlN76F02LbPLGdnDhjxsA1IA/+rwY/NmiwAsktF+l6J1zwb1HVa2f/IPq8Ie1eIB/tNDsBvGaQXfhQlC/jQv/1QXAfz4EDINoKQYxMfQWLeodZL5dLPzZ1/lgHwVALAAUDv+5swARcKnW7aeEXrs/fiYMACm5AUAL+MsJAIXCvyVATzfz3BOkx/41uSeuKgb+Jin4+2lacfhnzwJ4wNe1br9K0EM3iFZvmAhW48JfKABw4F/FA/8lA/RrX1ubfq/oRgktK4eYdqXhzxcAUC0bodfpofP0rtcVBX1qwB+VK8J0dw6mJvkCgBj8OzHgz1aU2WMaSh9ZDv3hCIJLtII/ezOgVvDnCQDWALhA6/5QQq/21j+cACE+zoU/TgDAgj8FJiwU6JAD/7wAIAB/NgD4mfu1bL9K0GNHN90w/oAa8K/iwJ89+vfQTQVtcHZZuZH5vRT8VxcJ/5UjTHrl0FS6NxIP2q679yhSO0/veiui6WO6hphkMfDPvM8D/yizC93p7oyAn6oC//kbAunryqU/IIgfwQkAWsEfNwDYioA/33V/vfavyZ+8mQ/+UgEgC/+8AMA57d/ko69CZ0qbKPCO0vBvZMcHAAnT2kzALof+IE0PDaMNj/wfQvCvxoU/XwDAhP9SN00VtMG5C/zC/xgEe1IM/qsx4c8XALLwz9ayaOyPlhuGjyWt88pBrysM1qgB/67MNfpb0TpQyOiMMmNdmPCXFQCi7GWAhPnX7FjWuu8P9GXuCNHRUsIffU4z+HMCQHOQGeGOS6DXv7c69+iJ8Ah9Si34m/zMnq6+9FFoG+B7N+HAf0EAEIH/fABA//csvNlWr/1Bmp7psgePhvAPqQX/Kg78l7hBYul6cGpBG81dVowwl5UC/tlaPsL8DT2JUGhjk74zaKXXPcj8oxj4CwaAIWamazD1iex6XIPTVygOf3T0HwFpZyiR7vBP3lUO/YEWdGMjBPNm/lP/2sEfJwAg+NsKhD/8nSccnOeSSeiPQvXMFH2P3KP/XPibxOAPq8E//YPsdsCfP9ZEgRml4J8bABp89FPl0B8k6dXevPFD1Rtij2XhX40Lf24AwIT/3NH/Kpztw15WjoBHhSYKwoE/NwAIwZ99PfOI4Iudv6NPltvYpO8MWul1BOgzVYF/BuR/yl0X+mJ3RsFOKfjLCQBZ+LMBIJQALQ9vOU3P/ZG7oLDbGk49yYU/Gh5YSfijz2sG/5wA0BJIPc4N+CT1h1w9q5f5qImiU2rBHx797+IO4gJh/Qcx+M8HABnwnz8L4Et+Qc/9QZJezV1/Pam6L/6MmvCvyod/FHf7sM041/3ntFWDiQm14c++P1crhsFby4fpL+OaIX1n0FKvM8qsLQb+YgEAwr6Du31OavKHisE/egj+2WrzTz6k5/7gLnPzBUTUhH9eABCAv1QAyMI/LwDgwD/IDJfTkT9aTBRYJ+fonwt/kxj8KTSCX/5jXE0e0KoE/PkCQJ136pd67g9S9Jb+5rUvV/fHtuXCvxoX/p7C4L9kAOz5tsT8H7l+ZTVOr393+6rhxMHcuQLkBgBc+OcU3RtlOnG2j+SdQUs9BBcI6pga8Icg33v+84ceM8luH7rm5QzF3hWCP24A4IM/qvYwvb99U/qTeuwPoYUdLjhEP5KdFph0+Ntw4R86dMMfd0RHkvsDR6/RO/U5CwUOqAZ/P/0W32Nc6LUmP7NHaMTAQuHfAD/X4I6PsdesddgfpOgtfWR3B4T+VMHw9wsVGq0AACAASURBVODBv2rBdX/64GI3XSfHr+zGWRaZuEst+AsEAPT+7PKR6V9dz5kfXC87g9Z6XcOgoxj4i978F2XuFtq+dmp0jRD8cQIAC/9wPvzR5QB0Q6AzkgrosT+k9Oy+Pd9tDcQZJeG/IACIwF8sABQKf/Scf0uAuUyv/SGmZw4wg7hH/3zwN0kO8kMvF9q+Rn/yjmLgzw0ALPzRDIHo7MEju2167A+t9dAsq9XrRq+p6o8d5MJf9tG/DPjPPfN/rVy/shtnzZon/mvlSOoxuQGgYPjn1LLh1GPZ+QP0sDOQotc5xAwXA3/BABBlZp1D058V2r6G8396hCtCv64G/NmKgNn2CHO23voDR8+24fWvtlLxV0iFvw0X/iFmmz1Kn6n3/uCFv4/5Njz6ny0G/iYR+Df56G3ncQ56crev6cE3Ptvkic9ynx4oFv6o6gcmA3rrD631au558qTqDZN/nAd/ofD34MF/4dE/GBabL0XIb0GNgyC8cgS8hRsAcOCPEwAyNwem3u0dSp5N+s5Ail5vJHZ89yAzrTj8B9mR/56U2j5nNLVcbgCYhz83AOTCf646oszf9NQfcvTMvqljIMgfbg2Dg8XAfz4ASMBfKAAUAv+WEJixBZkHLNH0MeXSHwv00unDzBT9LM7RfyHwR2WlGJfU9jW6Y49zbyCUGwC48GcDgCcO6h5+h3/8eCXar9z0Hnr3rOr+2BtC8JcVAGTCf+kAePkcd/wDivjF/eUV0enPrNrITJQS/nNPB6SXD8ZnukOTv865TkXWzkCQXucQ+F4x8Bc9/R9JLZPaPpRKXVGwVQ34Z0tsumDS+qMQPQcF/s8RYp4nBf42afhvaaaYc0hpPzX00Ih8xcLfLDqaH/8MmNztM/fvWaE0/NlCswR66WV66Q+t9FrufeG/q9ePXVPVF9unCPzdePCvOnTkP17tnj5DEb9yG2f5SKoahoB9wqf+8eCPf/TPpFfAz2erNxL/l3P9O18kZWcgUa9rMPW4GvCHII91DY0dgbN9HWHGiRMAFsA/jAd/NgBEmNf4TpWS2B+F6qEbBNHwwRDyu+TAnw0AGPDnCwBy4d8SZHa0hFIXCZ2KLJf+QDfgWSj6DakAUDj8GQhfYMPZviVXho9p9NGxBU8EYAYAUfj72ZEB/6iH/tBKr34g+WkI+2cWgJ8H/tgBQCb8l7rp1BKv8CVQVeGfXVaMpJat3AgOlhr+2Vo+DEDPEPiB6EYW2zg61YNg/GjPEDNTKPzFj/6T+HM3pNOHQVBvUQP+7M2A7KWAhfsAif2hhB4aOKg1Qq+CUH9dSfhzA4AQ/G28w/uCd2wB5sfcx/tIbD8l9EwB8INi4S8RAJ5HfzO42weB/qDi8M8EgAONFP0R0vuj5Hqwb2oGkhdW9cdoReHfjwf/qswNfzOL3bRdEb/FNs7yIXDx6o3MbC780dwAOPDHCQBC8F8xN2gQe4PgCPNo5ybwPzjbS/TOpaCeM8JcrQb80VTALt+uKjnbBwHdIhQA8uAflgd/Z+YswFh2cBlS+0NJPXTGA0K7B9ajrSF6RmjEQLXgj67xw/qTPcB0Cd2oRnL7FapnjcSOh/DmnfAnGwCKhD+6+a9RzvY1BZhz5QQALPij34NV71s4Aydp/VFqPQj0U6o89O/ywC8Af6wAIBP+SwfoWVjLFPGrVONAuF+nFfyztXyEmYLg+nEhd0OSsHMprdcFj7oLhb9QAGDhH46/xc5qJXP7IKifURL+uQGADQFh8AuS+0MtvYbf/ue0Vt/4NXYq/s/WQHxGLvxbseEPZmwB8HxLgLnCEgWnaOVXSz2zD9xRLPzFAgAE7+Oytw8ekTb5wBtKwj8bABq89N9J7o9S6aFLcDUecDGEfFwO/CUDQBb+3AAgAH9UiwfAxYr5VbKxewaTP8tOC4wDf6kAIAf+OU8JoLMBW3oHwVlFN47EQrJeVyj5BTXg3wkB3REYv72Q7WuP7D/XFQWzovAPFwZ/9jJAhGasD776KRL7o1R6zfc8eVKzL9lqD9G/gcDeYgsDplD4t1BxppmKv9BMTf3GGqTt6OiXNL+l1LMFmY8LDfmLqlj4w9+bNYcOfW/J2T4I65skT/3LhX8mMMwK3WSmdX+USq/KB75R7Qb/YCGvMfyXuOkfK+pX6cZeFhy7ceVgYlYL+GcDAKrlI8zBZcOp/pW/j3+w4MbB8EuqHoT17YXCny8AZOHfGUrMtnve+EKh2+ccZAZF4R/Fgz83AHTA0NCBhgim4j4S+0MzPXh06KBSn7CH6QZ7APzAHgI32MLMXbYg/YgtlPKzBf9vDdB32XwTN9ncY5fZB3aabGtf+TQ7qIne/KqoZ6aAW/joHw/+YgGgyX9o+la529fgTX26yQdmlYD/ggDAhgBwA4n9obZeNTV5XI2bvhcCfqYQ+IsGgFz492PAH5327xe+HFOwXzUauyc0eS0bAkTgLxYAioX/ghpmRpdFwXLSdi419U7zDBzWFY6/rTj82QAQf66Y7eseSX3OGaEPqAF/VO2h+EHHure/RVJ/GHr61zOF6K+aA+CgavCnwL6mYOZIu1C/jX76aSH4NxYKf3QfgJ9+lbT+UFuv2su4ajzM7hoEchLgPwAuUsWvWo3dM5i8aNUImJEbAAqFv1AAWD6Mxg1gHxl83uXdUUXCzqW2Xod/15JC4c8NAAvgj07/+yd+UOz2tQcnH+aF/yAe/F0C8J8PAYHEkyT1h6Gnfz0LRT8mBH+zDw/+YgEA6txXrF94pH6REPzzAoAA/PkCAKpaCvwfSf2hll6tlzm72pP8GwJ/MfAXDABc+PdLnfan9y9x0z2qtZ+ajd0zDCwQ9HQp4M8XALLwzy0YBP68LER/Xg2/pOh1BiYeVgP+znB8f9tv/3Fqsdtnv/+5/+kIJqbUgD9b8PW20MIZCuVsH+n9a+iVVs8cYNrUhL+JAkmzJ3lSsX6bw4kTmnxgWmn4z90LcA8p/aGGXh01/ZlqLx2ocdOzpMB/qZumIfwbhbZZkfZTu7E7h1OLIZwnpQJAKeCPahl6fRgc6BkCDztG8J5xleNXaz3bdfce1RVOjBUC/9wAwIV/5vR/bKNSfjsCk7csgL/MACAG/7n33xF7Ll1q+0jtX0OvtHpoHzJT9NtC8M8LAALwl7j2/xOl/ELoD3Lh34gJf7EAUO+ld6O5PbTuD6X1avqSH64ZoH9T46H3Z8FfLPx5AwAf/PtFT/uPLnVnzrqUov1kLXJX3js0/VkI8tfVgj83AAjBn32dvUEwU8tGUsme4dTN36PSRyvpV+n2k6PX5t1tUwX+sNpCdLtSfu03PHq8MwL2qAH/bDkiqZ8Wun2k9q+hV1o9S5C+Tk34w9rxrfUT71fKb5MHtCoOf/i5evj5pkd2NGrdH0rp1fSlj4JH+z+p9YKpXPCXFP5uwbv9t1a5U6eXqv1kLYWuHA3SAo+8/8wNAFrBf0ENpyZgELi9l+cxJxJ2Vjl6ncFYqBD4ZwOAEPxdURBDo9Ap6dc5CNbIDQC48O9gf5eh0WiIWvaHoadfPauX+Sg8+qeF4L8gAIjAX/zof2qVkn5tD+16X4M7PpEXACTgLxQAsvBna2CiT+/9i8Bf6wGX1nqZXRD+aaXhnxcA5MLfA/5w3jrhx211Cf/scv7z6feuGAYPKQn/BY/+icB/hRD8OUGgdxjcpNcR5Wy3+o/tCifoQuCPSgj+7OA/UbBeab9ocA1nhH4V++gfE/7zAQBVGPi06g9DT996Jj/tVQL+QgGgiaK3qnFavbF/4hHF4Y/KHU+Yrlh/lB779+yHxo6BEL8agn8MgT9bmsHfwwf/5C/Rd2Ip20/WLyu18uUj+1YuHwYMUfDPvTQwnEp2DzL3tq599mRSvoxw9Jy+ve1qwB+dGYCgrlPDL9S1qwb/zBmDWVc0tUSL/jD09KuHZjO0UGBWCP7zAaBQ+MPPmdbtblbDb/3D2xvmAwAG/Hkf/ePCf64aPQnBm9Jwt6+U/YvAX+umr6zxMBO54JcD/xpM+FcXCv8Bmlnippdr0X6KNraclXcNvPvN5ZHYW8XAPxsApOAvJwBA+Kd7IRB7o1OoEp3ByTtdDzx9ih6+3FxR2l0I/FFoEIN/Z4QZFUumxfqFoP6bFPydmPDPCwBRdp6Af+ROrkIabAw9svTQUOIQ+P9QAv58AYC9Sc8Te1wtvw2rrn1/gzs+igt/bgAQgj/7uhc8WOz2laJ/a6n4B+u9qZtqPSDOBT83AJQc/rkBYAC8vMST/F+t2k+Rxi505e13P3riskhsRG34ywkAOfCfr55onOkeTK7vGdwn2lGlbr9cPTQvdXeUmVAa/l2ZUfseUtOvK8h828UeqSsP/2w5QvTqUvaHoadfPRNFrxKDPxsAioB/kyc+29j3zrfV9NvoTa5VGv4NPvQ0ANgrNtcK7vap1b+17qnP1nqTv6310rQQ+OXAX3YAkAN/N+1BZyi0bL+iGrvYlWf1uoeSF67YyAC5AaAU8GcLvo7ODCwbZmZ7hlNPdI/sc3Cn69Sy/dDr6BR9IfBHNwyKwR9Vx2Cqptjtk1rgUXpYCP55AUAA/mIBAOqPdvt3Hk8abAw9svTq+8ePheDfrQT8uQGAhb83AY/+Jym1/ZoCySq5AUAU/uxYAJmqdzPnlao/cPXqvMy5teg5fg89Iwb+3ACgCfw9mVP+S93gEhLaT9OV5+r1DCa/tHwj85LS8McNAGh8AHH4L6yeIeaVrii4SOhZ81K3X2eUWasG/DsHGazEX6xf5/D0Gc4o2KcG/DMBAKTb/LF7SIKNoUeeHgT/3WLwZ18vAv7w6H/a8tvXPqu2X3TJrtEH9igNfzYA+JK/LHb7lPC75MrwMTXuqdW1HvAfHOjnFg78ZQUAXPi7wT+qvKlPk9B+6GdNV87V692cPmLZUOruFSPMAfFT/9rCP7d6h5lxCNPbXUHm45q1Xzp9GIT1DrnwzwsAHPh3sY/nSV/zU8qvM8zczYW/ExP+4kf/IN2OJgoKxve3b3j9q6TAxtAjS88a2fdFSwDsVwL+Zj74swFg/I5S+YWg/i1OAJCEPzcAeOm3ldi+Qv3W3Pef0+v6Yj+rdYNRueBXA/7VWPCn91d5UjfAYCZ53V3Tvw8S/jiXDYFvrBhmXigW/jgBAMF/2WBh8OcEgYM9g6knOsN0j/3G+48sZft1jTBnqwH/TADIv4O+2P4VWjo3pY+FkN+tBvyz1RaYfMaY5c7Q41sg4P8qBv/MmYEi4O+N72y8Y/MJpfLbFEgtVhr+2WqiwNeK3T45flta1hxRv2F7Q03/RKimP3agxkPLBn/m1D8e/LEDAAb8q91gyxI3f3uVqv10A//sgsYMWDaSuhECfx933ADS4D8fAubuIeiJJEZdocn7Ovte/3wp2s85yNwlF/4LAoAA/GHtEjv9r8b+0u4f/W5eAJCAv1AA4MI/cxYgkW4Ng2WFbh8pfx+GnsLwD9DLpOAvNwAshD+s/j3LS+kX/e02+umdQgEAC/4CAaDBl7q52O3D8Vt379ZP1K4fvbamf/KdmoF4mi2C4F8tCn901A9uwznqV6v9dAn/3KU7Sp+5Yoj5t1z4SwWALPzzAkCR8M88NZCp7mjiYHeUeaIryvTg7gSFtF9nlNmmAvzRtfjfqN2/XL2zu5yHw6P0Z+XAn//Rv3z4swEgDNANgXtdI/EPFLJ9pP19GHrF66GBv0x+sEtV+Lsnn9XizFOjj76vKPgLBIA6D9iqxPbxLej+hXpfvAZCP8ge7WfBXyT80edx4I8VACTgX+Nhnq72Tn1O7f5VRI/kP060XObb9p7e0PhPlw/GU6TDPzcA9KDX2csDbO3tGp7+dVcEfFPJ9usKJb8gF/7zAUAE/uwNgMMp3g5Te39p7Xv3HAj/gyrBn622CC0Ybkrt19DTVs9MTf1aCv5yAgAX/o3e+MGmvu3f0sKvJch8J+/Uf5Hwnw8B1PRnit2+3KXWDb5W403eXTtA76nNhT6h8M8LACz8aVDlZn6o5rgpiuqR/seZq+dc9+aXesKxv0jBXywA5MJ/QQBQF/4LqmeQea17iP7ZsuHpM4ptP9cguEEN+KPT/3yPOpZqf4EQ78OBPzcACMGffX0O/qg6IswBh8B1TC38Gnra6DUF4l81+eIzasE/c+Pf5Dqt/HIvA8iCv0QAgFpXFbt99d7UJ2vd9HV1XvByHQI2grwK8M8LAALwlwwA4vAfWgL9lLJ/i9Yj+Y9TSM8VTjTBAPBqsfCfDwAKwb8XA/7zIQD+Tg8LaOYFWFd1huiTC2m/zkHm33LgzwYAafjzDv5Typ0VtUdHBCTUgH9OPSs2noPmf5yGnqp6p3kGDjN5J/8uBX/cAGDigX+jJz5V6584WUu/jT7wQBb+DYrBH40HkPx7Idt3jjv+gTovvazWBx6t89CzCPy58M8LACWEv2gA4Dw9kIU/fP2Vag/dpFX/FqVH6h+nlB66pg4BfM2yEWYKJwCUAv69mPDPDQDZ6o7SBzrD8UddgYlV1jv+cCJO+7VHUqd1DzKzcuDPvi4B/8zY/8CsZf+ipS3MXIUbAMTgPzcQEG85wuCCQrdPab+GXmn1GgfGLlQT/pnT//SPtPbb5KMbZcNfIgDUe+l0/UBstu6eFz6Bs31ogKVaX7KzzstsrPPR+7PQLwX8FwQAJeHfF5+ocicvPm9z+j1a9m9ReqT+ceLqLds0dWLvMPPg8hFmRg782QBACvzRBD4Qzocqvq8rnHiiM0pf5RgGpwq1k2uYuVwN+HcOMlO5U/9q1b/oDwvC+2W14D9Xkw5q6sRC9z8l/Rp6pdOruefJk8zexJgU/HECAIK/iQ/+fvqVr61N4024oqJfNEVwvTs+lRcAioG/m50dMF23fvRSoe1rDidOQEf6EPAbYU1zoc8H/1oN4S8YAPLgHztY1Tc5UP3I2IcL6Q+i/j5I/OMsRK8nDP4PwvVpreDfiwl/bgDIh/9czc3qB39nBh7l/w3Bvmsw9Ylcz13R1JNy4J95H+PoP0pHSenftiAwiwUAKfhjBIB0W+jQVMda+zX0SqNn8kysVxL+eQGAHS44WU+K34aBWAgb/iIBIBf+bADoiz2Wu30mivkYhPolsP4K4T9Tz44cyA/+UsB/PgAoBP/qDZN/qb7/zTNJ258L1iPxj7MYvZ5Bxgmh/6oY/NnXCYd/D991/UFmFgL6X+jGP1eE+Q78vRml4Z8JAKnlJPVve4T+XaHwxwkA7WEw2xFKLSXFr6Gnrp75kV01Zm98Vgr+UgFADP5NFD1Eil+k07B+z3LF4Y9qIHagxp08u8FPX13no5+DvzObhX5u4cC/VkP48waAXPj3xV6oemi3ncT9uSi9sjKTXdLpw7ojdFtvNPFyKeC/DBP+uQFANvwLeNQvF/64AaAzCg44qPgHSepfNE8AhPp0bgBQDP7z9wLQr9vvCB9Dgl9DT8Uj/8sePNrkib+iJPxNHPjD96Ytc4/Iae03q9V096MnQmDvk4S/QADgwn8+AKDXeYBPAvzZAFAk/Kv64i9XrduzEk2xTOL+rJSepitXSw91Wldg/Hu9kdg7WfhnzgyQDX+5AUAp+M/d/f84if0Lj9J/IRf+uAEAjQ+ARgh0+MdvI8WvoaeOnmlg/BYc+IsFAFH4o0cBKeZWUvzm6kFY/1kp+Ndjwp8vAPDBv1ZD+OcFgMzwvq9Vr9+zHA1BTPL+bMAfQ890xfqjIFy/u2wYvKM0/OUGAC3gLycAtIfpH5HYv6ah9JEdEfBOh0rwZwNAIL5vbrIgzf0aesrrWda9+SWTL55SEv6mPPiDdxxU+mgS/HL1Gv3gYrkBoFTwr1UY/uzrBcE/+c7SdWPfW/rD244kfX824C9TDz062DkILu0dYfaUGv6ocOAvJwAoDX9XhJ7tWL/tDFL7tz0MLLjwx7r5Lwf+h0JA7Gn0fDgJfg095fTQENMWb/yvOPAXCgBS8Edl9tJWEvzy6TUOMB9v8NGzxcK/HhP+3ABQSvhn3pcTAOjtEP6X1t7oO1oP+7NSepquXCs9GATe3xkFlywbnn69GPjLCQBawV/Gtf90RzjxIun9CwG9US34s8W+Dr5Hil9DTxk988DoRUrD38SBf5P/0NMzWvsV0qv3gn/jBIBSwr9OQ/hXuZmXqt306jrf3sP1tD8rpafpyrXWQ8Nkdo/sc0CoP6sm/FmwY8AfNwCoAX80PHBHMPG3Vs+uevt1v/sAqf1rf+jlM9qDCVoM/lIBQAz+mccCmZiDoj9Cgl9Dr3g9y2//+TGzNxHDgT9fAMCBv8lP0+gROBL88umZ1qaPrPOmFjf46MeKgX8DJvxzA0Cp4Y8TAKq89GM1bmBGN4zrbX9WUk/TlZOkt3xk/zd7h1KB3iF6Bgf+uAFAS/jjBIAs/F25FYrPOCP0a64I2OAaBOe7IvRXSt0fYnoO/9h1asH/0O+lAqT4NfSK0zN5JkO48OcGACH4m3Lhn6kfk+IX/dzoiZ3a6KWtEMS3Q+g/BcE9jXPtv9TwlxsAioF/tYc+WO0FI/Co/1ul7g9S9TRdOYl6Tvdbn+8KTTzSE4kzSsCfnRYYA/44AUAt+OcFAPR6ZkTA+XINMrtgEBhsDzNXOof2n8M3vXGp+vc837b3dETAS3IDAC785x8NjAJLIdtH0v5c6Xrmvj0tFrXh7wMv4gwHq5bfcy6496jaddvPre8bv7zBHQ81eJM7GqVu9uMJAFLwlxsAtIA/XwCA4E9Wu+l7aqiFA6npcX9WWq+szCip53rg6VO6ghO3QFjv4r1HgHD4SwUAOfDPCQGHKgpSzgj9nDPCPOAMge+2++Nn2m+8/8hS9a9ziDkPhoBZteCfmTKY2Y7GMNdi/zP0itervfUPJ5j9ye248M8NAGLwN+fAv4kCB01h5pxS+UVBo8lHf7nRB1bU90/8tr5/8hkIfQYN88uWjz407a9G8EeFA385AaAg+HvB2/D9q9DkQ2r1h971ysqMGnrsfQKDSROE9HDvEJiRA/+8ACAAf6kAoCb8OzHhnxcAcsoJP+eEn3eG4gecwdhrHYF4oI2auLo9Qi/t3Zw+Qq3+hfDuwwkAhcA/Z5hgTWdFNPQK1zNRyQetKsI/U+BhtfyiOeUbqOQXIdSXQ+jf10jRT0Fgg+zEPnlVCPz9ePCXEwC0gj8qdJq/ygMerfYwbUJnZfS6P5dEr6zMKKy3fCR1elcU/AICe6+S8BcLAIXAXywAqAb/3Aol0GyCUJN9PwX/fR7+/HB7BFyMjtxdI/mJvJD+QJP4dESYCbXgz14GiICDbdFUNQn7n6GHr2dxx6usFJiVe/QvBf/cAGD2M2Nowhsl/FojseObAsy5jRT4XpM3eX+jj362iQIMO6xwTuHAX04AUBr+aHwAHPjjBgDsI38vs6N6ANx4Xj/4HxL2P13qlZUZFfXQWYHOKN3UMwSGe4eZGT74LwgAJYa/UADgwr8TE/5CAUAK/mIFgb23I5L6a0cErG2LgO+7oqklrgfiR8ntDzSdr1AAKBb+bdkKZwZ3IWX/M/TE9dB+ZA2AN+Qe/cuBPyqLn14hd/vOuej+I+u9sS82+UBHUyB1E4T1JgjYN+HPs1zYqw5/Hx78cQNAqeFf46UP1sCj/To/04Yz66Je92cD/gTrdW9Mfbp7kLmnOwrGCoG/UAAgCf58AYAX/mE8+Lv4ZvZDd/WHEjNtgdgb7YHJkTb/+B2t3r2r2vzJs9HcBIIdkE4f1hahn1Ea/gsCAKzWMP0rEvc/Qy9fzxKg70XwlxMAcOC/MADQT6J9T2j7aty7P2jq336OuX/PiibP5M8b3RODjZ7Y641+eiY3REhBP1uNmPDHDQBqwB/NDYADf5wAIAp/D7O7zgdubXKnTidx/9OdXlmZ0UjPbr/08A7frrrOYGygOxwHWsGfLwDwwb9TQ/hzA8Ac/PMr91G/CBOHUN7SHkZPIqTudoTo1W0hcJaDmjyuLUR/uT0MDqgFfwf8XGswfrBlw65qUvc/Qy+jB6F/tiUAZtSA/3wA8IMD1gj9lfpN6cPha58y+UAzDATXmCjwEIT1Xxp9ybcWzA7IM2KgnACgCvw9ePDHCQAlgX9/jKn2JAN1FLDgHO1rtf/pTq+szBCi13rfUyd0RpPnd0Xox3qGmRk5AYA0+HMDgCD8oyrCX6IgsHe2RwBQCv7tHPg70BDBsFoD8Vdtt/qPJX3/q1Q9BGQLxbws5+gfjQ8gC/6ZEf8A/HcHF+bzQMeEP04AQPBvxIQ/TgBQC/55AUAA/lIBIBf+1f2xmeq+yT/U9u9dVv1A/CjS9z9d6pWVGQL1ukLJD0M4XtI1BJ5TG/7cACAE/04N4e/ChL8TE/651/6Vgn87D/yzZfdO3Kmn/a+S9OCR/8/Vgn/+3f/kwV8qAMzDnxsABOAvFQBUg39/7OXa9aPXLr7vHx/V0/6nS72yMkO4Xs9g8kudEeau7iHwLjcAkAj/Tlz4D2oH/2wAKAX82bMAQfpAWxB8Q4/7XznrNUfA16wUOIAbABD80dwAWsFfKgBk4Z8XAEoIf7EAkAv/BQFABP5iAaDGnXyztj92S/XaV7+kx/1Pt3plZUZHep0hcFbnUOoXENavKQH/3AAgBv8uDeHvwoS/3KN/JeHfLgJ/9PpcONjlCIHh1khqvSNE3+kI0tfYw+CClgDjcFCppXYY9CxRcMqaTenDSd3/9KKHRpw0BydPMfdtP9P88K5qU/9oG6wLzd6JayxU8nZzgH7EGqAHrRS9Uy34SwUAEuAvFgAWwN+jHfzzAoAHbK3zpW6u9cS/Sur+V/Z6ZWVGp3rO9W9+pSMwfrMrFN/SFU7MkgD/Tlz4yzz6VxL+qEoN/0P3BuAWSNr9se12X+w/Nir+DPz/n+3+yUF7MLneHgK/soeYW21h+hpbEKyxBZluawQ024KpansAfNMRSX7RFpw+w0ExH0PPm1ui6WNI35/Nvqljau558iTTff853frQKPjSMAAAIABJREFU6583P/z6Vy3rt59t8dNVzWHaaqWYbgsFLoLQvtoaALfAn++xBhkI8WQYHsH/yRIATzVT4AX477vwd2h2GF8I67yCr2eBzy0c+OcFgBLCXywA5MK/UUP4CwUALvznAwAO/D30bK2b/jvUuLqOmv6MGvufoSdTr6zMlIFex/ptZziH6Mu7B5m/9QwxM3ICgBT85R79Kwl/Fyb85QQApeHfhgl/3ADQGgLp1kAiv+Dr+b8rXfYgSNupRLqFis/Y/IlYiz8xaaNib9uCSVjgBVj/PlTM31sCzGae+ktLiI6gag4mI83+yWizd2IQldU7udnqiz0Gwbu5OQByiv57c5D5V05tga+/xVaQiWUKzMCf083+BFvW3EKvBxneEoI4C3IV4b8gAIjAXywAkAJ/oQCQB39P6eFf66Vnan1gM/z/JdzZEvX4/Vx2emVlpsz0OgaTJ7mi4KKuKDOhBPzlBAAs+MsIAErDH80GWC7wxwkAWfjbuIVeR+9zyiZRLfBzLWyYgOXPKQhrGB54q0WkSIC/WAAgBf5CAYAL/0YN4c8XAPjgzwYAIfh7mNE6N72qnpo6kZTvU0NPoYV0M+Wkh8YD74oCIBYANIM/ZgBwYsIfNwCoAf82TPjjBAC14J8XAATgLxUA1IR/Myb8xQKA2vCfDwAS8BcKAKWAfyMm/PkCAC/8PSWEPyofoI2x+PWhp+nKDT1xva4I+KYS8McNAC4N4Y8TABD820PawV8qAMiFv1QAUBX+FB78xQIAKfAXCgAkwZ8vAJQM/j48+HMDgBD82dclrvlXeegzSfs+NfSKWEg3U456rghzmfCpfw3hjxEAEPydOoB/XgAoIfzFAkAu/O2Y8BcLAGrDvxkT/kIBoBTwZwMABvz5AkCp4N+ICX9uACgl/DPvS5QHXETa96mht1BP05UbetJ6rmgqWCz8cQIAgr9LQ/hLBYAs/PMCQAnhLxYASIG/UADIgz+FB3+hAEAS/PkCAGnw5waAksLfjwf/BiXhz94AmOon7fvU0Fuop+nKDT1pPQj0d4RGDNQM/hIBIAv/vABAIPzbNIS/UADgwt+uIfz5AgAf/Jsx4c8XAEoFf/Z1DPhzA0Ap4d+ECf9GDeGPGwDqfPTrpH2fGnoL9TRduaEnvnSG6JPFhgvGgT9fAIAA39UxOO2EoL4PQv4ZCH8mLwCUEP5iASAX/gsCQInhLxQASII/XwDghT+lHfy5AaBY+HMDAInwzw0AJYe/QACAEAf1fvpJ+Ht31ntAa703uUNR+M8993+Oe/REUr5PDb18PU1XbuiJLxDCHUrDH1VHlI7mbl/Dqmvf39735jccvtELnYHJfmeEfs0VBbNyA0Au/J06gH+bhvDnCwB88LdrCH9uABCCf7OG8Ldiwj/zvrwAUGr4yw0AcuBf7wW76710EL72g0Yf8536uVEqswsEfBAH/nICADt1b9+eFlK+Tw29fL2yMlNuehCO9wrNFYADf6EA4BqcvkJq+3ojseM7QnSTK5q6rSMK/ggBH5MDfycm/IUCABf+8wFAA/jzBQDS4M8NAILwD2oH/9wAQCr8zQrDP6tVSvg3+kCywUc/BbXva/Ay7TWh5IelvmtgOPiR0vBHE/vU9o/fTsr3qaGXr1dWZspNrzNKP6M0/DNnAFLnyN2+669P/1dHgD7TGU59D0J9AEL6ZWeEOVAq+LMBQEH4t2kIf24AEIK/XUP42zDh36Ih/K2Y8Jd79K8k/FHhwF9OAOBM7HMA1tY69+R6CP7VDVTyi+hvVe73Vc3DO78jBX/sm/8WTun7V1K+Tw09DL2yMqNjPTQJStcQw/BNFIQDf8Gj/wg97brRd7QSftE2OgLxLzv8Yxe2U5P3tgUm/wTBP+7EhD9fACgV/Nsw4c8NACTC344L/5B28M8GAJLhbyYc/g0+MFXvTT7V4I493NA/dlnDIzuW1l8xfLwS31e11/UdA6GfUhL+7BmAgRi95PI736/196mhZ8BfV3quIPNtxeGPnvMPxp9T229bIP7Rtghtb48y1zmjKT8E+6sdUXCwUPizr5cJ/HMDgBj8WzWEvw0T/nKP/pWEvxUT/nICgNLwZ8GOAX++ANDkA7sb/cxGCP07Gnz0cnRkv2bNE/+l5vdVbX/8GSH44wQABP/aHPjPhwBP/KtKfr+Q8P1cdnplZaYM9JxR+gq+KYJx4M975//co34d1ORvtPDroCaPawuBsxwhenVHBKztiNB/h/8CLeDfjgn/3ABQavjLDQCS8Jd59K8k/FGRDn+TRvBv9IF9DT7mJfivu4Fifmjy0rUm99SHiv17K+jvt3/8nmLhnxcA0BkBzoBABW8fQd/PZaVXVmbKRM8ZTISUhj8qBzXeQ4zfdPqw9nDqk63hRFMrNX5ZW2DygbZA7C+w3obwn0Hwz4SD8oB/NgBoAn8ZAQAH/nICgNLwt2DCHzcAqAF/9Pn5YX3d8RlYbzZ46T82+ej76inwfQT6Om/qNPQ3ULK/Nwm9ejfdzgd/qQAgBv9a9v1UnxLbp/n3VTnqlZWZMtLrDMVfXRAABvHgzw0AufBHZX/wP6eT6JerZ3to1/ucw9NntEXoxo7I9OVtIbDeEQZ/bYuAt9vDYLZQ+MsNAFrAX04A0Ar+uAEAjQ+gFfxxAgCCv0m5u/1j8Aj/n43uyXD9wPgtjRv2dtU9/M7ZDVf9/jjS/97Q600UOLUY+NfywT9TW0j0a+hlPlA+ZspEz3x9+LjOcHymEPh3icDfGYzvINGvXD3XSPwD7QHmbEc0tRyC+lYYEjwwHDzuCNOvOwLxFInwR6UZ/DEDQIsO4G/RFP6AgZ95DdZmCMu+pkDqJhNFd1sC4JvWSOx4Uv4+itGr9dLbcQMAJvzRz/vQDcMk+q14vbIyUyZ6joHt38mFf+ZRwOLgz17/D0xGSPSrtJ7p3ic+Yl//5tcdnl1mezD5fUcI3Jo9gwDrbRgIDkgFAK3gjxsAbBrCHycAIPijuQG0gr9UAMjCf0EA8MRjTT7wzyY/HYK690G4XwPX22EJMt+Bn/mU2ON1evr7ENNDAwIVAv9aAfhni29mQBL8VrxeWZkpEz2Xd/SSQuDfJQJ/NgBEmCtJ9FtqPTRPeXskdZo9kFoMgdtjD6c2LDz6Vxb+6HOawR8jACD4t+gA/nkBoAj4Nw1MbjD37+1t3LBjSeNvt37SeFQtszR66R9LBQC58GfLRy8n0W/F65WVmTLRcwUnH8nCX+7RvxD80euOwVQNiX611kNHdo5Q6gm14I8+jwN/nACA4G/TEP5SASAL/7wAUEL4iwUABP9G7+TTaPhrUvY/kvTqfMlqsQDAB/9aKfizASD5SxL9VrxeWZkpEz1XNPmMXPh3ScC/MwpmHVT8gyT6JUHPFkydDmGdQMMDqw1/W4D+lz0EIvD9zbYQeAqGgX/Dn9+EQN5pDzIx+NqMGPzzAoAQ/CUCQBb+eQFABfhbAmCmOcDErAF6J/y9N+DP/7IEwd+sFPiLmUqG4b//FIO/RSH4mzzxRNPaVz5N2v5Hih56BFFx+LP3AYDNJPqteL2yMlMGeqd5Bg6DMJ+SGwBE4c++z2wn0S9Jeq3+8fOVhn9eAED3AgTp7c6h/Ge9c5c1m9KHN4cTJ6Bg4ohOfd7mn/pma/+e+hb3zmZL/94eq3v0wmbvxMXNQXCRLZxaA4F+bbZaQvRPIJDvgrC9ky34f/j6I9lqCYF1zVQy0uydjEKNQVRWz8QGq3dyvZVKPtIcoB+x5n4+Uz9ppuhr5ysI1kBAX8RWgF5t8tNOa//u5uZ12+stj7zzbdNDr3256YFtZ9S4d3/wa2vTovOOI58Win5XCfgLBYD5a/79e1aSuv+Rolfno9/lBgAh+NdiwB9VnYeZINWvoafxyg29Q3rdG1OfXjgDIMapfwn4z00BvJFEv6Tp2aiJqJrwnz/dHwR/wHkGXG2/muvBNoCwHxaDv0Uh+Dd5JgY196sDPQj/YSXhn63GAebjJPqtdD1NV27oLdRzDTEupeGfCQDgVhL9kqbXfNdfT7JTsZ1KwH9BAOC94Y++Wmu/WutZA/TVUvC3YMKfLwAcgn98V+OdT52stV896EFY34QD/zoZ8GfPAnhpK4l+K1lP05Ubevl6rgi4HTcAIPh3YsAfVXuYcZDol0Q9RyjR6AiBWTXhnylwoC2YWqK1X630zD7m29YA2K82/E2e+Kxp3c5mrf3qRQ+C3aY0/FFVD0xdR6LfStbTdOWGXr5e5yD4vdLw72Q/k/oEiX5J1XMEmfuLgf98ABCE//xd/ztbeOZr13v7SS3c6/5iwwXjwJ8bABY85++e/LXWfvWk1+ROnS4Ff7kBAN0oWN03GSbRbyXrabpyQy9fDwaAd6UCQBb+eQFAAP6uQSZGql9S9UxD6SMdIfCKmvDPPvZnC4JHcweZKYf2E1uQVyvF/Kkk8PfGXqq/RZkpc0lpP7X10I3Ite5ETEn4o3ECqvsnXyfRbyXrabpyQ2/h0rs5fQSE/4yS8J8bG+AJEv2SrmcfTH4JhoCUXPizAQAD/guf+wc/1dpvqfTMFLgBB/5WTPjnBoBc+Jt88ZS5781vaO1Xj3o1A7G/CsFfTgDIwj8TAGIzpssePJpEv5Wqp+nKDb2FiytCf0Xs6D8X/p2Y8Gev/w+C+0j0qwc9R2j6B2rBPzcA2ELgYAuVqNPar9p6Nl+yGo0JoDr80Wx8G0Yv0dqvXvVq+sd/JQR/3ACQC//5un/bF0j0W6l6ZWVG73odYcapNPxROQfBhST61YueIwQ24cKffV0m/HOG9x1t+M2W07T2q5ZeS4g+2RoAe3DgLzcAcOHf5J0Y0tqvnvXqNoxeqDj82bMAU2YS/VaqXlmZ0bteV5S+Hgf+nTLg70L/DqcWrJgUv3rRQzes2UPJHUrCvzUkMMKfP/HE3DC1ZdN+aMlc9wd/URr+qLjwN/niOxrvfvbkcmq/UuvVPbSrig/+OAFACP7siIEe5kck+jX0SFh5heu5oql+HPh3YsI/GwA6BpMnkehXT3ptwVS1IwxmpGYJLAb+2Wr2TPxca79K61mo1G248JcTAPKP/OMz5nW7a7T2q3c9U9/4SYrDn/2d5P0k+jX0tF65oQcDAPO00vCHmvNPAJDmV296thD4uRLwbxWBvy0zV8CsJQQ6tParlJ41SNvh0f+s0vBH4wMsOPJH5Z64RWu/5aJX52Um5AQAafiz9WdS/Va0XlmZ0akehPZeKfh3YsI/GwCcUebvpPrVmx6aMtZOxZ8VmitAEfijuQIyv5NETyFo6VcJPQs19XlrACRw4Y8bAPjgj2b5O8+37T1a+i0nvTo3/azC8E9Xe8C7pPqtWL2yMqNTvc5N6WO7osyskvDPBADgJtGvXvXsD718BgT1BN9cAbgBAAP+2ZDwujUSO15Lv8Xo1fePH2uhmFfUgD+aG2BhAIjHGv1Tp2vpt9z0aj2pPpwAgAt/tjz07FlU+v0k+q1IvbIyo2O9zhA4Swr+XZjwzw0AHRFj+E2l9ayePbbWID2rJvwzjwYy6eYA/bvcQYL00n7sTX9w2+XAHycA8MIfDfXrBzYt/ZajXp2HvlZR+M9VvUf4zFY5tZ8u9MrKjI71OsNMr9Lwh0f/abt31EmiX73rtYaZe+QGALtM+M9XkPmZ1n7lLhDmt6oF//yj/+QdWvstR70aCrSKBYBC4M+Wj7aT6Lci9crKjI71OiLJW8TgLzcAIPg74eft67adSaJfveudtzn9HnuYeVoN+OcHAJB3UyDJ7Ydu+rP46Vk58JcKAELwN/uTf//a2jTemOYq+S1XvRpf8guKwz/z2atI9FuRemVlRsd6zlDcpwT8O3PgDzVnnNf1HUOi33LQa4+kToOwnsCBv71Q+B86CzBlDiT/l/T2awklv2AJ0Em58BcLALnwzw0AZj8Ys3qZj2rpt5z16jelD6/10jNKwp+9EdANHiLRb0XqlZUZHes5Q4knhOAvJwDMwx9WRyD2Nql+y0WvOUxb7WFwUCn4CwaAzHuvtQ7sOI7U9kM3LFooelsp4N/kpw82+ehGLf1Wgl6th35bSfijqvKA35Pqt+L0ysqMjvWcgfi2YuHvyoE/qvZg4klS/ZaTni3M3CUG/7wAUAD8UbXAz1m9sd+3tKw5grT2Qzf9Qfj/rhD4CwUALvznA4AfoPdu1dJvpejV+ujHlYR/jQcGADd4kVS/FadXVmZ0rOcKJ6b44I8bALjwZyswSZHqt5z00P0AthB4qlj4iwWAlsxcAZlyj99GWvuZ/eBnpYK/iQKPO6j0f2vpt1L0ajypAaXgnw0ANV4wTqrfStXTdOWVrtd+x+YTioW/iwt/dAkgBH5Bot9y1GuiwKkQ/Hu48LcrDX80VDAVP2hxj7pIaT945N9u8cbzb/rDgD9fAOCDPxsAIPybKGZnI0V/REu/laRX5wO3KgX/bACoHkjOLrkyfAyJfitRT9OVG3qL39fhe+dLfPDHCQBC8Ef3ArRHwMUk+i1XPXuAObclkNyfC387JvyFAgAX/i2ZCYPSzYFkqplivqWlX7Q0exLfsHhjoBTwh+/th57P09JvxekNJL+nKPzddLq6P56u++1rnyXSb4XpabpyQy+j1x5J1BcD/7wAgF5HgwBFpy0k+i1nvRbvxJWqwh9VAKCnAlDtgfVxrfw2+2P/Y/HFdhYKf24AEII/+zo75e+0rECrh/2FdL2a/t3NSsA/c/d/Bv5sPbBjKYl+K01P05Ubehm9zqHUKrkBQAr+bEXor5Dot9z1WvyTvvkAgAF/vgCAAX+2moPMFgeVPrrUfs2+qWOsvviLpYA/O+sfBfyF9gfp+wvJejUPvvl1xeGPat3ebhL9Vpqepis39DJ6rjB9vZwAkAt/lxD8YfVijCOvhd9y16u/Zfj4Fn/8RcXhH1wI/2y1BJjfi90Up7TfNWue+C+LN7axGPhbZcC/iQL/6epLH1Vof5C+v5Cst/jmR08sFv7ocwvgD6tm3dgVJPqtND1NV27oZZbOQfCA0vB3RpgpUv1Wgp7Zm/yMPczE5QYAufDPljXI3FUqvxbP5K9KBX9zAMQbvKlPF9sfpO8vJOvVDCQSSsKfrYEp3v2VBL+VpKfpyg29zALhPYwTALjwdwnAfy4AvEKq30rRaw4Dmy0EDioC/5Aw/A9dDgBr1PZrGhi7sFj4WzHhD3VnYbUq1R+F+DX0Fr+3xk2/VCj80ZmDPPi76XSVl5Z1SaeUfitJr6zM6FWvcxA8pyT8UbVHUo+R6reS9GxBcBtOACgW/myFwP4WaqpGLb+W9buaLP74/pLAH13399G8kyAV0x+Gnny9Gg94VEn4s4MBeegnSfVbSXplZUavehDwb4gFAD74u0Tgn5kGmAmR6rei9NLpw1qCdFQsAEjCHzcAZG4KnLQG6M8p7df08OtfsvoSsWLhb8WEv4VihsWmQS64Pww92Xq1HpoqBP55AWAO/uzjgB6wlVS/Fa1XVmZ0otcZZcaUhH/mEUDwIKl+K02vvn/8WAj7l9SGPxsAAhDKvvhblvuePVUpv+ZfP/0Rsy/2eqngb6boV63GDazE6NV6kvcrCf/MaIDMDlL9VqxeWZnRkR4EfYovAAjB3yUBf/YegHDq56T6rUQ9W3D6s/YgE8sNAFjwl3P0D+HfjAYJ8iNIx540Xfbg0cX6rb3Rd7TFG/ubEvC3YMGfmcS96Y+k/i1nvTpf6ma58F8QALjwZ88A0ElS/VakXlmZ0ZHemk3pw+XCv1MC/pl7AJgfk+i3kvXsYbrBFgIzasC/JQf+2bJ64yH0yF6hfs/u7XyfxRv3KwV/ixT8A2DG6gPmUvWHoYenV+dmfqgk/Nly07NoDg0S/VacXlmZ0ZleZ4g+mRsAioU/ewkgTK8g0W+l69nC9DU2XPhjBgA++LMVQOsBDxTq1+KZ/HWp4J8Z7GdhaC1Ffxh60nq1PrpHDvznA4AQ/OfqHHf8AyT6rSi9sjKjQ73ukdTn5MAfNwC0RVJmEv0aeosXtfjibiXh3yIEf/R+ZqCgK+T6NXlGr1US/nkBgAt/P+3Vqj8MPXG9OopuUhr+bFGpT5Dot6L0ysqMDvWcYeZbXQrDn60g820S/Rp6i9/LjhToi/1bFP4YAQAL/pnxAQ5aKKYHd/tMfXtWLpjdT2X4w5+fd1Dp92vVH4aeuF6Vm/kWLvzZAIAD/8yjgGeS6Lei9MrKjA712oJ0Iy785QSAzvDUp0j0a+hltBp+s+U0COsdgvCXCABZ+OcFAA78DxXYb/XRjVLbZ92wvcHii08rCX+LKPyZXVYv81Gt+8PQE17QTZm48Gdfx4B/ZmbAQzM7kuS3ovTKyowO9TrCjFNp+DsjII0e3SLRr6F3SA9NpWsLAqA+/OfOBASYqZYQ/VWh7bP0vX2W1ZeYKh38adrEsz1a9Yehx798xz31IcXhj84ADNBWEv1WlF5ZmdGhXkc0eSEO/HEDABofwBlKpG23+o8l0a+ht1APQrmtJQQO4gaAXPi3yIF/tgJgT1MwdTp3+xp/u/WT1typfRWCv0UI/gFw0Bqk7aT1h6GXv9T0pY/CgX/mffwAUO2lu0n0W1F6ZWVGh3odgdjVisIfDRIUjM+e3eU8nES/hl6+Hjwq/4ma8F8QAGBZKfCaCR7VZbev8c6nTrZ4Y69Z/aWBPxsA/PTVpPaHobdwQTNNKg5/VAPJNST6rSi9sjKjQ70O39iNUvDHCQDz8IdH/x2h+DSpfg09fr2WEFgnFgC48G8pEP45IeB5622PfQDdkGj1xZ9RA/4WAfibAmCA9P4w9BYuNe7kATH4yw4AaEKg9RM/JtVvpelpuvJK1mv3j9+kGPyzASCYmCLVr6HHv/RuTh9hC4GnlIY/XwCwouGC2YGCJjexhf7vLw38LRT9JDyifB/p/WHoLdSr6Y8llYQ/+6jgI6NXkOq3kvQ0XXml67X7J28Wg79UAODCH1V7MDFGql9DT3hpCSU/3BIEb0nBv0UJ+HNKafhb+OH/Jrr0oJf+MPQO6dUMJMaE4C8rAGThj2rd6NWk+q0UPU1Xbugtfp8zMHGrIvDPCQAdEbCdVL+GnvhioaY/A6E/rgT88679C8CffV1l+JsDzESjd+pzeusPQ29ObyC+Q1H4w6paP3otsX4rRE/TlRt6i9/rjCZvFYK/WAAQgj96BBAGgDdI9WvoSS82X2pJM5Wc5oN/iw7gb82DP9hn8SWr9dofhh6s/sk3+OCPGwC48Gdr/dhPiPVbIXqartzQW7zIFU3dVjT8w4fg74oyMAAwL5Hq19DD0zP3j/U0++MHufC3YcK/BRP+mffVgz98bdYcSPaWuv0MPYX1+uNbFYU/OgMwMPUTYv1WiJ6mKzf0Fi1yRVK3ywkAUvBH5YwyL5Dq19DD12vxjF+vNvzlBgAp+HMDQBNFX6VV+xl6Cuq56X/zDwdcGPzZ1z309cT6rRA9TVdu6KEAQN+JGwB44R9eCH/2DEAYbCXVr6EnT8/qnXwwC3+5AUAL+OcGAHOAfkTr9jP0lNGDMN+qLPzZ37mBVL+VoldWZvSoB4F9t5LwnzsD8Cqpfg09eXot977w3xDUI2rAX04AkA1/CvzemO+9fPRqPPRrcgKAFPxR1brBTaT6rRS9sjKjRz0I919KBQBB+Efz4Z+5BwC8SapfQ0++Xldf+qiWIHgONwBoBX/rIfj/yxJNH0NK+xl6xetBcL+lJPzZMwAD9M9I9VuxemVlRgd6fGcAioE/ewYgwgg+Bqi1X0OvMD1LFJzSHABvKQV/3AAgF/7oWf9Giv4Iae1n6BWnB4H9Lk4AwIX/3CWAm0n1W5F6ZWVGJ3quKP0zoQAgCv9BfvjPXQLYRapfQ69wveZw6tPNAXpUeLY/7eCf+X1mzBSc/iyp7WfoFa5X62X2SAUAOfBnZwP0GDeIEqNXVmZ0pOeMTl+pJPznHgMcI9WvoVecnj1KnwlBn+CDfzMm/HECgFz4mwMgaQmAr5PefoZeYXo1HmZCSfhnAgD4Pql+K0qvrMzoTM85CNZwA4Ak/KUCQJSJkerX0Cter4WaqrEG6H2kwB+uZ3+Tj27US/sZevL1IPinhAJAIfCfmxNgOal+K0avrMzoUK8zzPTKhr9EAHBGGZpUv4aeMnoWiulpDoKDWfjnBQAB+EsFANmn/QPgoDnAdOmt/Qw9eXq1XjqlKPzR592Mg1S/FaNXVmZ0qOeM0PZsAFAC/mxFwOz5z6ffS6JfQ085PXMgeYmW8M8EgOkf67X9DD08vfpN6cP5jv6LgT8bALx0A4l+K0qvrMzoUA8GgDpZ8McJALBaIxMfIdGvoaesnsUzfnczJvzFAkBB8KfAHXpvP0NPWq+JAqcqDX9UdV7mXBL9VpReWZnRoZ4zzHzLpTD80eBA7X1vnkmiX0NPWT3Luh1NFn/8YMnhj079U1M1em8/Qw/j8wPJL+YGADH412DCH9V5A/RXSPRbUXplZUaHeu3h2P9iwx8jACD4o7kB2j27akj0a+gpp2d6ZPt5EPxJHPgLBYBC4J8tU4BmrN7UYqHtI739DD28pQr2sdLwZwNAH/MpEv1WlF5ZmdGhXtuDr35Kafh3wLJ79rpI9GvoKaNnXf/WN5v9iZhW8M8O/GOmQMIUBN/QW/sZevhLrY+248BfTgCogrW0b/wkEv1WlF5ZmdGhnv2exz+EBX+pO//n4J8NAA7v+BoS/Rp6xes1PfLO15p9ifFmTPjzBQAl4H9o3H9m3OKNfVEv7WfoyVtq3fRqHPjLCgDwc+fcMHwsiX4rUU/TlVe6HgQ2rST8UbVSY9eT6tfQK1zP/PDrX7V643vlwJ8bAIqFf34AAGmzL7G76eFtXyG9/Qw9+UvNwNQVSsO/ui8eJ9VvpelpunJDb/H7nKH4W6LwFxv2Nwf+uQGgLUzfQ6pfQ68wPXTkb/XFx9hH/zSEvzUf/pnyJvaggEJq+xl6BeptmLhLCv5dxAHaAAAcDElEQVTYAQB+rorViL1CrN8K0tN05YZeRq89Ap5VAv7zAQC+DitKql9DT76edd22M7NH/nLgnxsAVIX/oRAw1hyIf5m09jP0itDrnwgrCX9US/tijxHrt4L0NF25oZfRc0aYYbkBQAz+zsyMgFtI9WvoydOz9L19VvaaP4J/i4bwt4rBHxV6nWJiTWHwf6S0n6FXnF5VX2yLGPyxAsDcPQSHAsAERarfStLTdOWGXkavI8rcXyz8nbnwZycEAglS/Rp6+HqWdTsWo7v9C4F/NgCUEv45ZwcmTWHmW1q3n6GngN5APKEk/DMBYPxuYv1WkJ6mKzf0Mkt7mLkSNwDgwH++hqY+RKJfQw9Pz9K3oxE9558Lf7lH/0rC34oJ/7knA9JmPw3EJglSu/0MveL1zr3n6VPE4C8ZAHKeHsgNAFXu5MUk+q00PU1XbuhllvYI014M/J188IfVHmDOJtGvoSet1+ze3WH1xaa58JcTADSF/1yZAmAfXF+H3vujUvWqHtx5rhLwXxAAMsMFW0j0W2l6ZWVGr3odAfB1qQAgF/5sAIiklpHo19AT17N6Ri+x+uMzJMHfggl/bgBgQwAFZkw+cIFe+6Oi9dyJLiH4iwYAEfijQYDQ8MJE+q0wvbIyo1e93kjseLEAIAZ/lwD8UbWFwM0k+jX0+PXO7nIebvWO356d4Y8Lf9wAgMYH0Ar+fAEgczkAzMLfv3lROn2YXvrD0Fu8qNZDX18s/Ks58Ed19kNjx5Dot+L1ysqMjvRcEWZUSfizZwCi9BCpfg29hXqmyx482uqb9JMIf0ux8M89G+ADA6Yr1h9Fen8Yehm9ai8dkRUAMOBf7aG3k+q3ovXKyozO9DqiqSe4AUAK/lIBoCPKLPhDI8mvoXdIr/bmjR+yeCcfFYM/TgBA8EdzA2gFf6kAYPKDtMmbSJs8sb823f3oiaT2h6F3SK/Gy2wvBv7VHPjP1R9I9VuxemVlRod6HVHwoJLwPxQCwCkk+jX0MnqWh1/7bLMv9rIW8LdQzEuoxOCfFwCKhT+sJliNntjWpge2nUFafxh6h/TO7aNPxj76x4d/usqbvJtEvxWrV1ZmdKrXEWZ+lA0AOPDHDQBtEdpOol9DD8J//Y4qqy8+KgV/qQCQhX9eABCDfwC83kSBU82e5EkQ0K8UC3+xAJAL/2wAYMtPT1h8yWpS+sPQW6gHQd9SDPyr+eCPyg3OJ9FvReqVlRkd67VHmCql4c/eBxBO3k6i30rXQ3f6N/vj+zWC/1smivlYdpvQ/y0B+m2+cQPUgz98Hb4PQ8i+Ji+4UOv+MPTy9WoG6J9JBgC58GcDgPAAUeXUfrrQKyszOtZzUJPHOaPgIA78sU//w8+1B+KbSfRbqXrnXHT/kc3uiYdasuCXgL9YAMiF/4IAIAp/entTMHU6d9uavalPmv3JHYXAXygAcOFv4sA/t8x+5tfnbU6/p9T9YegJ60HA/0k0AIjAv1oQ/vQB09r0kST6rUi9sjKjc72OYGKbkvBnZwUMJGINq659P4l+K03P8sDWTzT7Jp9WA/7zAUD8yH+3hZr+jND2mR56+3/NvvjuBQFAQfibBOA/HwIo+om6EH1yqfrD0BPWc1Dp/67xgpii8M989gUS/VasXlmZ0bleRyAekoI/TgDIwr89W+4dS0n0W0l6zet210Dw70Hwb8GEv1AAKAz+yR224PRnpfxa1r35JYs3ttOCCX/egX8KgH9OjTZx7gvQQ/+Wm16dlzlX8OhfAv5iAaDKQz9Cot+K1SsrMzrXa/ONXyMFf8lH/+bgnxsAHNSEMfGGRnqneQYOa/FOXNPijx9QC/5sABA/8n8XgvlTuH7r1771eZM/uV1J+Jvw4J8pPzgA//3/9s4Fyo3qvOOHJAcC4ZGUBkqBQCGloU2aHN6YNIZdvde7q8dq11s7paXU4VkCp0AhBBNODgRoHoADGPxa7UozGr3sUBwITWhPWgIB9/A0BYyxcfBjvavVru4dGfxQ75VWi1Yaae5oRzN3Zj+d8x37jKTf+Lt3jn//0bxuhpsGmcdzRPF9+suffh9fx2O/85Znq2YszguP7PiW3vIvVRpt5rFfu/N647uP94u5f6+IfyYAMMhfKQC0KP/3u6XCn2ntl54n0C2hbVoCgC7yryqfmF/vfPC/T+R1fu3MI6J+sy4AMMhfLQBcFkFf57HfecuzVTMW54XufuwoInHUSP7NAkC1/GcFALqcXg2wsXgmb/3amdcr5r/ZK+W2tVv+peUN5E/ee7f6bH+t/QaT8mndEt4yV/l3tyB/erigfL+A3A7f0E4Hb/NrZ55HKJzZDvmT97PLlxc/xVu/wDN55cD7hDeYkX+jt/xphdfjG3ns1248eia7X8L3+KXcgVr5BxjlXxsAWpK/hN+g1/nPtd9ACp9CQsCbzQJAu+RfKZ+QO+AdHv9h4KHXPq15QjT2C7zS9f//3Ir81QJAZ6x8a3Le+p3vPFNXDrzZvMVpfLeWAFAr/8UK8i/9ApCRf81jv3bihSX5y/5E/oU68WuUf4BR/uX3FX/2f74rmvuCXv26pNwfdcfRC63IX2sAqJV/9X0DSKD5rdIljM1ePG8vvPKIrP+jFfmrBoAoupnHfuczz9SVA6+eR0S9QG/5lyoj7w8/qbxHaGa/duH1JtE/+pM430j+QYPk35tAv1waKX5O734ps1vCT1cHACPlP3NeQBxPeSR8NT1B0Mj5nS+8jnX4ZCL3A7rLn34mMvE13vqd7zxTVw48BR75j43Ieq9aAFCS/+JG8q/8CpBG3+OuX4vzAil0UiCJN5b28HWQf4BR/soBoCCcu7Ko+IxvPfqlhzdICIjQAMAify0BgEX+M58r17OeYXxKu+d3vvGI3G9vRf7qZ//ndyy4fMnhvPU733mmrhx4yrzFGwpCK/Jf3ET+078CvK2052R2v1bl+RP5y4mws2ry17r334r8/Qn5p432ivUcP3oSV5c49ZAZ8q8JAEWfiMd9cXlpO/udVzx62WUUva23/EsPBIpkV3PXL/AON3XlwFN+DWyQv90oALQs/+nqzyAfb/1ajRdMFs4IJvGvSmLXUf4BRvnPDgB4P9krv97o8fONjN/UJeQONJI/awBoVf6zSpQ3+kbk09rZ73zgOQXkbUX+TQMAlT99KuDqXQO89Qs8lQBgtWbswluysXjs4Hpc0CL/QQb5lw8DyL/irV+r8OjebyBVuDaYkvOkmOSvJQBolz9CvSL2mzV+vrUf9nTFclNGyL9pAKC/BkgY+8Sp273L7vosL9uL5XhR9Exb5D88gR13/vIL3PULvMYBwIrN2IlHZP3U3+os//LVAPhgWELf4K1f3nn+DD6XiH0TFX875O9nlH8lAPQk8M5FKXSO2ePXHZ88rych79IaAPSUf/lwAKL3DCh6R7K/dz++9QKztxfL8SK5bzgiE4e0yr/JQ3+m5U9qaDzBXb/AK/Fs1YydeIs3yJezyl9bAJCL4TTewFu/vPLoJXCBlLwykMIHZuSfZJM/awDQLH8Jv9roBj9mjF+vUDid/HtebZf8Vff+p+VfCgC0orn9nuHxR33rdileCjnXfm3Ji2Q3tEX+lLNmzyB3/QJPmWerZizMmz4MIOst//40LvYncocCa7ddzFO/3PGKxcP8SbyMyH5vRfxa5c8SAKj8/YzyLwcAlGh0mZ+Z4xeWikcTUafUAkA75T8TAGjR5QLe0xUvXMFyyaDZ42cmr3PNjovr9v4Z5K8YAGrlP5yb8t729HE89Qs8kL8leP1pWVCTv5YAUJJ/crJUYWnied765YVHxH1JMIleqhb/jPwlc+Tfm8QH/BK6o5nMTB8/8m9bJKHlXRI+qJf8mwWApvKn70+XV0C/84j4It37tQGPXprXGcn+TzvkX6ry2f/c9As8kL9leP0ju13tkH+lQuLev+epX7N59E5+gSRKBZP40FzlrxYAKvKvCwDKe/65XhF38z5+ldciEfuJoKf0kH+jAFArf18D+c+UiA75RCw6W3gwktHjZySvc82uy1uRf10AUJJ/qfIX89Qv8BR4tmrGRrwFSwePGEjmtjSSP/OZ/5l6+ZcqjfYM/mLqj3np1ywevW1uICX/jMj/o1rxz5J/bQAwQP4BCW/2pwtn8zx+Si+PNPWXXRJ+iwv5z66CW8QP9GYmPs/z+BnBu/THz5/kGJnc3Tb5j6A3eOoXeAo8WzVjQ15/fOz7c5U/vT1wvfxx+ZyAFErx1K+RPHosvS+J7iDyH1cSf6vybxYAquXvV9vzT8jRZsf7zR4/tVfP+uIxXSISWpW/UgBQkr+PXf5Fb6VEPOaJo1svXjd+JK/j13be8HiqWv5ORvk7WORPlndE8Q1c9Qs8xS/Ypxkb8voe/e0JA2mcV3wWwBzlP1NJvIyXfo3gXbexeASR9E2hlLw71ED8dfKXjJN/bwLt65XwNbyOn1aeb2j0hq5Ybp/Z8p8VAEh5yPc80dxOb2T0u4v+5YmjeR2/tvDW7V7WTvmTz00sWLX3GG76BV7DL9mnGZvyBtLo563Kvy4A1Mq/VLgwmMYX8NJvu3j0PvnBJL46mMIfUPFrkr/EJv9GAaBW/v6G8sdbQwl8Ho/jNxde19D2Bb7YxDZW+dcGgEby981F/uT7MxXNbvNExr5z/gPb2e6PbvD46clzrtx2kWN4olAtf80BoIn8S+8L+D5e+gVe8y/apxmb8gbShTMHM/J+1gCgTf7Tlwdm5D8QeZ3GQ7968xb9ongU3eMPpuUdFfE3CwBGyN+vfIc/qfrYNC/jpxePXpffFUdJM+Tvayb/SpHlXhFt94n4+oVri5/lbfz04DlXvHEGkf8HrcrfwSD/jij6iD5VkId+gaf+Zfs0Y2Pe4kxhRKv8ZwWAJvKvVDgjvx2Wpr7IQ7968DzDY8cG0+h7ROqjteLXJH+JTf5KAYBR/vmeROEK3savXbxFErqSBAHEEgCayb9Lb/mXzw0olUfAu0kYuGWhVDyat/FrlUdP+uuM5N6qlb+mvX+1Pf/y51by0C/w2AD2acbGPPorAJH7x80CwFzkPzsElO8yZ9Xx605m/zSQwvcQIWeVxN8oABglf//sp/ptCib3fYWn8TOC15UsnNEVl39nhPx9rPKvCgBVNUnef1jpzotWmo9LV2w61RGZeG0u8ncwyJ/u/S8UCqeb3S/wNEBMWznwNPGI4Fc3CgC18p8JABrkX3VOwNb+Dehss/vVygsM7biEiDceSuGPm4lfk/yTbPKvDQBq8i/d2CeB76PnJfAyfkbzaO9dEr6f1IHaAKAmf617/y3Kv7o+9og46o2Vz8/gYfxYec5H/+9rRP5blOTPHAAY5F8u9LDZ/QKvzS/em7Erj8j51MUZGbVX/uWbBoUTk1PBWOke3lyP3+CdkWMC0dF/CMQnng8RWauJXykAGCn/0lP/JPwO2fNfwMP48cDrTsqXdInoXS3y1xIAmOSvHgBmyh1D/+UeGl1SdeUAv/Oxale/YyQ3OVf5OxjkTz479TcRdJKp/QKvvS/em7E7r3+9vFxN/qUAMAf5zxw6SOQOhRPZRN/KF0/ibfwCj755ZlDYe1dQyn0YIrJui/xTbPIPsso/gQ+RPf/VYZXjykaMH288etJdl4Qf8ArogCnyZwwAHgEV3dFcqVwjuT3O4bF/8z6y5Syzx6+O98AzX3QMja+auce/gvyZAgCj/KevDLjZtH6B1xLP1JUDTzvv8ueKn6U/0bdd/lXVl0S7+9PybWEpe5zR/Va/rhL3HOGPjS4Jitlng4ncwZL4p+Xfxyj/UBvkH2SQPxH/Fr8kLzRz/KzA6x7e2eGLTWxpJn/WAOBto/yryyXkD3pieCOpPhLuDjdz/Fz3PnO8c93YLWSv/8Pa6/w1B4Bp+dcFAAX5k8+/pda7Fba/+cYzdeXAa403kN7X20j+peU6yr+0vHyZIPm7PBXOoEcGniqcZWS/YQlfEExMPUb29rMz0m9R/iFW+Wvc+28ofwnt9yfkn6rd0a+d42c1nufWJz/vjWUf9EVz+w2RP0MAoPL3KMjfTZfT96fLLeBx8tkVrig+18jx64zk/9w5PP6wcyQ3VXtv/3bLnyw75IpNOY3sF3j68ExdOfBa5w1IOcEI+Q9U5F9T4Yz8Sl8aLQ+v3/cXeve7fHnxU6GEvIDI+l4i+M2ln/drxV8lf617/3rKP9h8z/+lQAqd08r88r79GcFzxXLndEn4Za0BgMrfa4L8a4JA0R3Dr7tEfDeR7YV0m9Z7/LxC4Swi6ttJbSLiL9JilX/TAFAlf4ea/Bku+7Pq9jcfeKauHHit80IrnjthIJnbWS3/8mGB9su/Lgyk8JZwuiD0ZfZ9N5yYPL/nB08eq6Vff3ry+HCq4OxLyrcEkzhO/hwLp6fFrqP8Q6zy1xAAFO/wJ05OdUv5G6v/0zd7e7EqLywVP+2J4xt9Is63Rf4qAaAi/7oAoCb/mnLF0KgzVhhxR/M3etfucn7r/udO0DJ+9BwJ+qsCEfe1LgEPO2LoXfInETkqVuQ/KwAYJn+0jd5vg5ftBXjaeKauHHhz44WED3v7U7mDFflrDQBq8mcNAKUQUBI2kXJislJ7QlLuf/ukiaf6Umgteb9cKbyWSp78/dd9Sfw6kfIu+l2lYpG/lgCgt/wDSnv+sVy6ZyR3Ko/bi5V5LkE+1Sfl0yzyrwsABsq/UQCYDgH0xMGZco5MfOgazr1KpPs0DQeuGH6iuojc17sE9BLpfTeVfW21Kv+GAaBG/g4V+XfE0EGHkO/kcXsBHhvPVs3MRx4R6o/aJX8tAaBG/p8UWd5I8M1Kb/kHWeXPGABq5d8rTrzTs25nD+/bi9V53VK+g8j5jWby97LKv0kAqJa/py3yny66XEHualUr/5kAYJD8p2/6cyfv2wvwmvNs1cx85NGfmRdn5N9oCQC8y59+j0X+rAGgHfIPfPJAn5w/OnbrZbf8+EgrbC924C18rvgZIumrfCIeM0L+Hkb5N/n5f5b8XSbKXzEAKMjfoSb/GH6WHp6xwvYCPA08WzUzT3jdG/In9mfwNj3lz3z8P22e/FkCAJV/kFX+DAFgRv5ibn9vbHxNz4oXT7ba9mIXXncsf6JXyK8mgj5QFwDU5N8gABghf5fO8i8FAAPlT88/6ByaPN5q2wvwQP625dFL8xZn5DGry59+3zT5qwSAivx7xYn/DEa2nm/l7cVOPPeqd77ujU6k2yF/D6P8lQKAUfIvLWeQf10AaCB/R1P547FOQfkyYKtsL8BT4NmqmXnKG8gULh1I431zlT9LAKDyDyfNk79aAKjIvy4AzEH+/nj25cDQToddthe78bzDu5xuIf+SqvwVAoBR8ndZQP6OBvLvjCL5MkH5FtZW3F6Ax8PKgacrL5RGvbUhwCryrwsARsq/SQDwS+jt3pHRpQuWDh5h9vwCT4VXLB7mi8mDROrvzFX+Hkb51wYAI+Vffl9jAGhF/jFU6IzlPabPL/D05dmqGeCVXqF0flElBGiVv1oAqMi/LgAYKP9mAaBa/sE5yp98Z3u3lL92+gQ/buYXeOo8enKsV5AHiODfbRYAjJS/2wLyVwoAHVG0r1PIL+JpfoGnE89WzQBv5hVej7oGMjhvFfnPCgBGyz9VL/5eCX9nofjuZ3idX+Cx8aYfObzMK6LtWuTvZZR/dQAwWv6aA0AL8ic12RnNO3idX+DNkWerZoA3ixdY98FF/cncLlb5NwsA1fKfFQAMln+jAFAr/2AL8g8k0VYi/mvoQ02sML/AY+fROSVB4GqPiN7TU/6VAKAmf60BwAz51wYARwzt6Ijl/9oK8wu8Fnm2agZ4dbzelZu/HJZyr+sp/5kAoJP8ZwKAGfJPlR7m85o/Li+tXNdspfkFnrYXnWO3gJZ4opOvNZK/1r1/M+SvKQC0JH+8qWMdPtlq8ws8jTxbNQM8RR69N39/auox1XsEmCT/UgBgkL9SAFCSf5BZ/uiFQAoH6IljVp5f4LXG8675Q4drOLuxVfnTYpG/lgBglvxrAkBk0criUVafX+CxAezTDPCa8vpT8t/1p/HkXORfCgCcyz/YRP5E+B8FEljsSeALzZ4P4PHBc8emLvIKSCDy/1hLADBL/qwBQKv8yZ8Tjpjcb/Z8AM9Anq2aAZ4qL/wkPrk/g+NqAcAo+ZeWM8i/NgBoln8Cj/mT8k8WSfKXeJoP4PHD80noT7wiuo0Idqf6T/9s8mcNAGbKn1ZHDD+5cBifwtN8AM84nqkrB57xvHBSHiCi36FF/qXlnMs/VC/+l/1JvCwsFY/keT6Axw+PPnrXHUVXukX0Em/yZwkAmuQfRe+T7wR4ng/gtZdn6sqBZx6PnhlNJHw9kfSoGfIvv68tADDJPylPkVoTSuDzrDQfwOOP547l/8ol4vvdgjxekT99NgCL/FkCgInyHyPL/pWGHSvNB/BA/sDTmReWsseFU/gHRMp7Gsm/HA44l39SfpHu7S+NFD9n5PgBz/48J9mmXCNTVxLZv2CW/NUCAKP8d3ZE0e0LVu09xsjxAx6fPFNXDjy+eKEH0sf0RUev64vnNrdb/loDQOOz/fPbyXs/Cib3fcXs8QPe/OC5nnjvq67hsXtdIxPbGslfLQCYIP9XOmPoCs/G4hFmjx/w+OGZunLg8csLrduxIJxEj/an5XGtAUBP+fcpyT8+ORGI5yLBOOqsvoSPp/EDnv15p8dGDnMLhUuJtNe4RTnLGgBakX+zANBQ/iNolLz3oFtE5/A4fsAzn2fqyoHHP4/eOCWUwBeGMvI9RNyv6CF/LQGAyj8gTe71x7PPBIW9d9Gn8X3z2seOssr4AW9+8OizB5xi/qvuGL7KJRSGicx36Cn/RgGgXv4T7zmGxlcQppPeBtkq4wc8c3imrhx41uOFJflLRMxLwhn0SF8S/T6cxjm95B9M4Y/In5uDKTkVSuG7uhP5Pv/qrWfbafyAN394HqFwpkvEfncM3eEUUNwZRW8SQe/TTf4xlHUMZ593rBt70LFmz2DnQ6+cZqfxA177ebZqBnjm8AIpdNJAIucMinv+KSiM3R6Ij/+sTxwfCsaz8VAyv74vhUpFpB4hgn88mJZ/Qvbs7yZ1gz+Ng/1JfD5lWKVf4AFvLjzPik2nula9f6ErsjvgGMlfQ4LB94nk73MJ6OdOAa92CChRKbJ82C3gxx1RfJ8zKt9Eln3bNZK/zLFm7wlW6Rd4/PJs1QzwgAc84AEPeMBrkWerZoAHPOABD3jAAx7IH3jAAx7wgAc84PG0cuABD3jAAx7wgAfyBx7wgAc84AEPeG3m2aoZ4AEPeMADHvCAx8azVTPAAx7wgAc84AGPjWerZoAHPOABD3jAAx4bz1bNAA94wAMe8IAHPDaerZoBHvCABzzgAQ94zAD7NAM84AEPeMADHvDYIaatHHjAAx7wgAc84JnKM3XlwAMe8IAHPOABz3ieqSsHHvCABzzgAQ94xvNMXTnwgAc84AEPeMAzh2fqyoEHPOABD3jAA545PFNXDjzgAQ94wAMe8Mzhmbpy4AEPeMADHvCAZw7P1JUDD3jAAx7wgAc8c3i2agZ4wAMe8IAHPOCx8WzVDPCABzzgAQ94wGPj/T8wGhjqZxthkwAAAABJRU5ErkJggg==;fontColor=#333333;fontFamily=Courier New;fontStyle=1;fontSize=20;" vertex="1" parent="1">
                    <mxGeometry x="40" y="91.25" width="80" height="80" as="geometry"/>
                </mxCell>
                <mxCell id="17" value="&lt;font face=&quot;Helvetica&quot;&gt;&lt;b&gt;Client&lt;/b&gt;&lt;/font&gt;" style="sketch=0;aspect=fixed;pointerEvents=1;shadow=0;dashed=0;html=1;strokeColor=none;labelPosition=center;verticalLabelPosition=bottom;verticalAlign=top;align=center;shape=mxgraph.mscae.enterprise.website_generic;fillColor=#333333;labelBackgroundColor=#FFFFFF;fontFamily=Courier New;fontSize=20;fontColor=#333333;" vertex="1" parent="1">
                    <mxGeometry x="38.18000000000001" y="236.5" width="81.82" height="72" as="geometry"/>
                </mxCell>
                <mxCell id="18" value="&lt;font face=&quot;Helvetica&quot;&gt;&lt;b&gt;Client&lt;/b&gt;&lt;/font&gt;" style="sketch=0;aspect=fixed;pointerEvents=1;shadow=0;dashed=0;html=1;strokeColor=none;labelPosition=center;verticalLabelPosition=bottom;verticalAlign=top;align=center;shape=mxgraph.mscae.enterprise.website_generic;fillColor=#333333;labelBackgroundColor=#FFFFFF;fontFamily=Courier New;fontSize=20;fontColor=#333333;" vertex="1" parent="1">
                    <mxGeometry x="397.18" y="88.25" width="81.82" height="72" as="geometry"/>
                </mxCell>
                <mxCell id="29" style="edgeStyle=orthogonalEdgeStyle;html=1;entryX=1;entryY=0.5;entryDx=0;entryDy=0;entryPerimeter=0;fontFamily=Helvetica;fontSize=20;fontColor=#333333;exitX=1;exitY=0.75;exitDx=0;exitDy=0;exitPerimeter=0;labelBackgroundColor=#FFFFFF;strokeColor=#000000;" edge="1" parent="1" source="19">
                    <mxGeometry relative="1" as="geometry">
                        <mxPoint x="680.0000000000002" y="106.75000000000011" as="sourcePoint"/>
                        <mxPoint x="669.5" y="217" as="targetPoint"/>
                        <Array as="points">
                            <mxPoint x="700" y="140"/>
                            <mxPoint x="700" y="217"/>
                        </Array>
                    </mxGeometry>
                </mxCell>
                <mxCell id="30" style="edgeStyle=orthogonalEdgeStyle;html=1;entryX=1;entryY=0.5;entryDx=0;entryDy=0;entryPerimeter=0;fontFamily=Helvetica;fontSize=20;fontColor=#333333;exitX=1;exitY=0.75;exitDx=0;exitDy=0;exitPerimeter=0;labelBackgroundColor=#FFFFFF;strokeColor=#000000;" edge="1" parent="1" source="19">
                    <mxGeometry relative="1" as="geometry">
                        <mxPoint x="680.0000000000002" y="106.78947368421052" as="sourcePoint"/>
                        <mxPoint x="669.5" y="298.25" as="targetPoint"/>
                        <Array as="points">
                            <mxPoint x="700" y="140"/>
                            <mxPoint x="700" y="298"/>
                        </Array>
                    </mxGeometry>
                </mxCell>
                <mxCell id="32" style="edgeStyle=orthogonalEdgeStyle;html=1;entryX=1;entryY=0.5;entryDx=0;entryDy=0;entryPerimeter=0;fontFamily=Helvetica;fontSize=20;fontColor=#333333;exitX=1;exitY=0.75;exitDx=0;exitDy=0;exitPerimeter=0;labelBackgroundColor=#FFFFFF;strokeColor=#000000;" edge="1" parent="1" source="19">
                    <mxGeometry relative="1" as="geometry">
                        <mxPoint x="680.0000000000002" y="106.78947368421052" as="sourcePoint"/>
                        <mxPoint x="669" y="377" as="targetPoint"/>
                        <Array as="points">
                            <mxPoint x="700" y="140"/>
                            <mxPoint x="700" y="377"/>
                        </Array>
                    </mxGeometry>
                </mxCell>
                <mxCell id="33" style="edgeStyle=orthogonalEdgeStyle;html=1;entryX=1;entryY=0.5;entryDx=0;entryDy=0;entryPerimeter=0;fontFamily=Helvetica;fontSize=20;fontColor=#333333;exitX=1;exitY=0.75;exitDx=0;exitDy=0;exitPerimeter=0;labelBackgroundColor=#FFFFFF;strokeColor=#000000;" edge="1" parent="1" source="19">
                    <mxGeometry relative="1" as="geometry">
                        <mxPoint x="680.0000000000002" y="106.78947368421052" as="sourcePoint"/>
                        <mxPoint x="669.5" y="457" as="targetPoint"/>
                        <Array as="points">
                            <mxPoint x="700" y="140"/>
                            <mxPoint x="700" y="457"/>
                        </Array>
                    </mxGeometry>
                </mxCell>
                <mxCell id="49" value="request" style="edgeLabel;html=1;align=center;verticalAlign=middle;resizable=0;points=[];fontSize=20;fontFamily=Helvetica;fontColor=#333333;labelBackgroundColor=#FFFFFF;" vertex="1" connectable="0" parent="33">
                    <mxGeometry x="-0.668" y="-2" relative="1" as="geometry">
                        <mxPoint x="-24" as="offset"/>
                    </mxGeometry>
                </mxCell>
                <mxCell id="19" value="" style="sketch=0;points=[[0,0,0],[0.25,0,0],[0.5,0,0],[0.75,0,0],[1,0,0],[0,1,0],[0.25,1,0],[0.5,1,0],[0.75,1,0],[1,1,0],[0,0.25,0],[0,0.5,0],[0,0.75,0],[1,0.25,0],[1,0.5,0],[1,0.75,0]];outlineConnect=0;fontColor=#333333;gradientColor=#945DF2;gradientDirection=north;fillColor=#5A30B5;strokeColor=#ffffff;dashed=0;verticalLabelPosition=bottom;verticalAlign=top;align=center;html=1;fontSize=12;fontStyle=0;aspect=fixed;shape=mxgraph.aws4.resourceIcon;resIcon=mxgraph.aws4.api_gateway;labelBackgroundColor=#FFFFFF;fontFamily=Helvetica;" vertex="1" parent="1">
                    <mxGeometry x="599" y="79.25" width="81" height="81" as="geometry"/>
                </mxCell>
                <mxCell id="47" style="edgeStyle=orthogonalEdgeStyle;html=1;entryX=0;entryY=0.5;entryDx=0;entryDy=0;entryPerimeter=0;fontFamily=Helvetica;fontSize=20;fontColor=#333333;startArrow=classic;startFill=1;endArrow=none;endFill=0;exitX=1;exitY=0.25;exitDx=0;exitDy=0;exitPerimeter=0;labelBackgroundColor=#FFFFFF;strokeColor=#000000;" edge="1" parent="1" source="21" target="27">
                    <mxGeometry relative="1" as="geometry">
                        <mxPoint x="570" y="260" as="sourcePoint"/>
                        <Array as="points">
                            <mxPoint x="580" y="260"/>
                            <mxPoint x="580" y="311"/>
                        </Array>
                    </mxGeometry>
                </mxCell>
                <mxCell id="48" style="edgeStyle=orthogonalEdgeStyle;html=1;exitX=1;exitY=0.25;exitDx=0;exitDy=0;exitPerimeter=0;entryX=0;entryY=0.5;entryDx=0;entryDy=0;entryPerimeter=0;fontFamily=Helvetica;fontSize=20;fontColor=#333333;startArrow=classic;startFill=1;endArrow=none;endFill=0;labelBackgroundColor=#FFFFFF;strokeColor=#000000;" edge="1" parent="1" source="21" target="28">
                    <mxGeometry relative="1" as="geometry">
                        <Array as="points">
                            <mxPoint x="580" y="260"/>
                            <mxPoint x="580" y="230"/>
                        </Array>
                    </mxGeometry>
                </mxCell>
                <mxCell id="21" value="" style="sketch=0;points=[[0,0,0],[0.25,0,0],[0.5,0,0],[0.75,0,0],[1,0,0],[0,1,0],[0.25,1,0],[0.5,1,0],[0.75,1,0],[1,1,0],[0,0.25,0],[0,0.5,0],[0,0.75,0],[1,0.25,0],[1,0.5,0],[1,0.75,0]];outlineConnect=0;fontColor=#333333;gradientColor=#4D72F3;gradientDirection=north;fillColor=#3334B9;strokeColor=#ffffff;dashed=0;verticalLabelPosition=bottom;verticalAlign=top;align=center;html=1;fontSize=12;fontStyle=0;aspect=fixed;shape=mxgraph.aws4.resourceIcon;resIcon=mxgraph.aws4.dynamodb;labelBackgroundColor=#FFFFFF;fontFamily=Helvetica;" vertex="1" parent="1">
                    <mxGeometry x="400" y="240" width="79" height="79" as="geometry"/>
                </mxCell>
                <mxCell id="42" style="edgeStyle=orthogonalEdgeStyle;html=1;fontFamily=Helvetica;fontSize=20;fontColor=#333333;startArrow=classic;startFill=1;endArrow=none;endFill=0;labelBackgroundColor=#FFFFFF;strokeColor=#000000;" edge="1" parent="1" source="25">
                    <mxGeometry relative="1" as="geometry">
                        <mxPoint x="519" y="300" as="targetPoint"/>
                        <Array as="points">
                            <mxPoint x="560" y="470"/>
                            <mxPoint x="560" y="300"/>
                            <mxPoint x="519" y="300"/>
                        </Array>
                    </mxGeometry>
                </mxCell>
                <mxCell id="25" value="" style="sketch=0;points=[[0,0,0],[0.25,0,0],[0.5,0,0],[0.75,0,0],[1,0,0],[0,1,0],[0.25,1,0],[0.5,1,0],[0.75,1,0],[1,1,0],[0,0.25,0],[0,0.5,0],[0,0.75,0],[1,0.25,0],[1,0.5,0],[1,0.75,0]];outlineConnect=0;fontColor=#333333;gradientColor=#F78E04;gradientDirection=north;fillColor=#D05C17;strokeColor=#ffffff;dashed=0;verticalLabelPosition=bottom;verticalAlign=top;align=center;html=1;fontSize=12;fontStyle=0;aspect=fixed;shape=mxgraph.aws4.resourceIcon;resIcon=mxgraph.aws4.lambda;labelBackgroundColor=#FFFFFF;fontFamily=Helvetica;" vertex="1" parent="1">
                    <mxGeometry x="609.5" y="440" width="60" height="60" as="geometry"/>
                </mxCell>
                <mxCell id="43" style="edgeStyle=orthogonalEdgeStyle;html=1;fontFamily=Helvetica;fontSize=20;fontColor=#333333;startArrow=classic;startFill=1;endArrow=none;endFill=0;labelBackgroundColor=#FFFFFF;strokeColor=#000000;" edge="1" parent="1" source="26">
                    <mxGeometry relative="1" as="geometry">
                        <mxPoint x="480" y="300" as="targetPoint"/>
                        <Array as="points">
                            <mxPoint x="560" y="390"/>
                            <mxPoint x="560" y="300"/>
                            <mxPoint x="520" y="300"/>
                        </Array>
                    </mxGeometry>
                </mxCell>
                <mxCell id="26" value="" style="sketch=0;points=[[0,0,0],[0.25,0,0],[0.5,0,0],[0.75,0,0],[1,0,0],[0,1,0],[0.25,1,0],[0.5,1,0],[0.75,1,0],[1,1,0],[0,0.25,0],[0,0.5,0],[0,0.75,0],[1,0.25,0],[1,0.5,0],[1,0.75,0]];outlineConnect=0;fontColor=#333333;gradientColor=#F78E04;gradientDirection=north;fillColor=#D05C17;strokeColor=#ffffff;dashed=0;verticalLabelPosition=bottom;verticalAlign=top;align=center;html=1;fontSize=12;fontStyle=0;aspect=fixed;shape=mxgraph.aws4.resourceIcon;resIcon=mxgraph.aws4.lambda;labelBackgroundColor=#FFFFFF;fontFamily=Helvetica;" vertex="1" parent="1">
                    <mxGeometry x="609" y="360" width="60" height="60" as="geometry"/>
                </mxCell>
                <mxCell id="27" value="" style="sketch=0;points=[[0,0,0],[0.25,0,0],[0.5,0,0],[0.75,0,0],[1,0,0],[0,1,0],[0.25,1,0],[0.5,1,0],[0.75,1,0],[1,1,0],[0,0.25,0],[0,0.5,0],[0,0.75,0],[1,0.25,0],[1,0.5,0],[1,0.75,0]];outlineConnect=0;fontColor=#333333;gradientColor=#F78E04;gradientDirection=north;fillColor=#D05C17;strokeColor=#ffffff;dashed=0;verticalLabelPosition=bottom;verticalAlign=top;align=center;html=1;fontSize=12;fontStyle=0;aspect=fixed;shape=mxgraph.aws4.resourceIcon;resIcon=mxgraph.aws4.lambda;labelBackgroundColor=#FFFFFF;fontFamily=Helvetica;" vertex="1" parent="1">
                    <mxGeometry x="609.5" y="281.25" width="60" height="60" as="geometry"/>
                </mxCell>
                <mxCell id="28" value="" style="sketch=0;points=[[0,0,0],[0.25,0,0],[0.5,0,0],[0.75,0,0],[1,0,0],[0,1,0],[0.25,1,0],[0.5,1,0],[0.75,1,0],[1,1,0],[0,0.25,0],[0,0.5,0],[0,0.75,0],[1,0.25,0],[1,0.5,0],[1,0.75,0]];outlineConnect=0;fontColor=#333333;gradientColor=#F78E04;gradientDirection=north;fillColor=#D05C17;strokeColor=#ffffff;dashed=0;verticalLabelPosition=bottom;verticalAlign=top;align=center;html=1;fontSize=12;fontStyle=0;aspect=fixed;shape=mxgraph.aws4.resourceIcon;resIcon=mxgraph.aws4.lambda;labelBackgroundColor=#FFFFFF;fontFamily=Helvetica;" vertex="1" parent="1">
                    <mxGeometry x="609.5" y="200" width="60" height="60" as="geometry"/>
                </mxCell>
                <mxCell id="38" style="edgeStyle=orthogonalEdgeStyle;html=1;entryX=1;entryY=0.5;entryDx=0;entryDy=0;entryPerimeter=0;fontFamily=Helvetica;fontSize=20;fontColor=#333333;exitX=1;exitY=0.25;exitDx=0;exitDy=0;exitPerimeter=0;endArrow=none;endFill=0;startArrow=classic;startFill=1;labelBackgroundColor=#FFFFFF;strokeColor=#000000;" edge="1" parent="1" source="19">
                    <mxGeometry relative="1" as="geometry">
                        <mxPoint x="681.0000000000002" y="129.7500000000001" as="sourcePoint"/>
                        <mxPoint x="670.5" y="240" as="targetPoint"/>
                        <Array as="points">
                            <mxPoint x="721" y="99"/>
                            <mxPoint x="721" y="240"/>
                        </Array>
                    </mxGeometry>
                </mxCell>
                <mxCell id="39" style="edgeStyle=orthogonalEdgeStyle;html=1;entryX=1;entryY=0.5;entryDx=0;entryDy=0;entryPerimeter=0;fontFamily=Helvetica;fontSize=20;fontColor=#333333;endArrow=none;endFill=0;startArrow=classic;startFill=1;exitX=1;exitY=0.25;exitDx=0;exitDy=0;exitPerimeter=0;labelBackgroundColor=#FFFFFF;strokeColor=#000000;" edge="1" parent="1" source="19">
                    <mxGeometry relative="1" as="geometry">
                        <mxPoint x="681.0000000000002" y="129.78947368421052" as="sourcePoint"/>
                        <mxPoint x="670.5" y="321.25" as="targetPoint"/>
                        <Array as="points">
                            <mxPoint x="721" y="99"/>
                            <mxPoint x="721" y="321"/>
                        </Array>
                    </mxGeometry>
                </mxCell>
                <mxCell id="40" style="edgeStyle=orthogonalEdgeStyle;html=1;entryX=1;entryY=0.5;entryDx=0;entryDy=0;entryPerimeter=0;fontFamily=Helvetica;fontSize=20;fontColor=#333333;endArrow=none;endFill=0;startArrow=classic;startFill=1;exitX=1;exitY=0.25;exitDx=0;exitDy=0;exitPerimeter=0;labelBackgroundColor=#FFFFFF;strokeColor=#000000;" edge="1" parent="1" source="19">
                    <mxGeometry relative="1" as="geometry">
                        <mxPoint x="681.0000000000002" y="129.78947368421052" as="sourcePoint"/>
                        <mxPoint x="670" y="400" as="targetPoint"/>
                        <Array as="points">
                            <mxPoint x="721" y="99"/>
                            <mxPoint x="721" y="400"/>
                        </Array>
                    </mxGeometry>
                </mxCell>
                <mxCell id="41" style="edgeStyle=orthogonalEdgeStyle;html=1;entryX=1;entryY=0.5;entryDx=0;entryDy=0;entryPerimeter=0;fontFamily=Helvetica;fontSize=20;fontColor=#333333;endArrow=none;endFill=0;startArrow=classic;startFill=1;exitX=1;exitY=0.25;exitDx=0;exitDy=0;exitPerimeter=0;labelBackgroundColor=#FFFFFF;strokeColor=#000000;" edge="1" parent="1" source="19">
                    <mxGeometry relative="1" as="geometry">
                        <mxPoint x="681.0000000000002" y="129.78947368421052" as="sourcePoint"/>
                        <mxPoint x="670.5" y="480" as="targetPoint"/>
                        <Array as="points">
                            <mxPoint x="721" y="99"/>
                            <mxPoint x="721" y="480"/>
                        </Array>
                    </mxGeometry>
                </mxCell>
                <mxCell id="50" value="answer" style="edgeLabel;html=1;align=center;verticalAlign=middle;resizable=0;points=[];fontSize=20;fontFamily=Helvetica;fontColor=#333333;labelBackgroundColor=#FFFFFF;" vertex="1" connectable="0" parent="41">
                    <mxGeometry x="-0.605" relative="1" as="geometry">
                        <mxPoint x="29" y="-1" as="offset"/>
                    </mxGeometry>
                </mxCell>
                <mxCell id="55" style="edgeStyle=none;html=1;entryX=0;entryY=0.5;entryDx=0;entryDy=0;entryPerimeter=0;fontFamily=Courier New;fontSize=20;fontColor=#333333;labelBackgroundColor=#FFFFFF;strokeColor=#000000;" edge="1" parent="1">
                    <mxGeometry relative="1" as="geometry">
                        <mxPoint x="480.67" y="109.56999999999988" as="sourcePoint"/>
                        <mxPoint x="599" y="109.56999999999988" as="targetPoint"/>
                    </mxGeometry>
                </mxCell>
                <mxCell id="56" value="request" style="edgeLabel;html=1;align=center;verticalAlign=middle;resizable=0;points=[];fontSize=20;fontFamily=Helvetica;fontColor=#333333;labelBackgroundColor=#FFFFFF;" vertex="1" connectable="0" parent="55">
                    <mxGeometry x="0.1775" y="-2" relative="1" as="geometry">
                        <mxPoint x="-10" y="-2" as="offset"/>
                    </mxGeometry>
                </mxCell>
                <mxCell id="57" style="edgeStyle=none;html=1;entryX=1;entryY=0.5;entryDx=0;entryDy=0;entryPerimeter=0;fontFamily=Courier New;fontSize=20;fontColor=#333333;labelBackgroundColor=#FFFFFF;strokeColor=#000000;" edge="1" parent="1">
                    <mxGeometry relative="1" as="geometry">
                        <mxPoint x="599" y="139.56999999999988" as="sourcePoint"/>
                        <mxPoint x="480.67" y="139.56999999999988" as="targetPoint"/>
                    </mxGeometry>
                </mxCell>
                <mxCell id="58" value="answer" style="edgeLabel;html=1;align=center;verticalAlign=middle;resizable=0;points=[];fontSize=20;fontFamily=Helvetica;fontColor=#333333;labelBackgroundColor=#FFFFFF;" vertex="1" connectable="0" parent="57">
                    <mxGeometry x="-0.4029" relative="1" as="geometry">
                        <mxPoint x="-23" as="offset"/>
                    </mxGeometry>
                </mxCell>
                <mxCell id="59" value="MONOLÍTICO" style="text;html=1;align=center;verticalAlign=middle;resizable=0;points=[];autosize=1;strokeColor=none;fillColor=none;fontSize=30;fontFamily=Helvetica;fontColor=#333333;fontStyle=1;labelBackgroundColor=#FFFFFF;" vertex="1" parent="1">
                    <mxGeometry x="70" y="10" width="220" height="50" as="geometry"/>
                </mxCell>
                <mxCell id="60" value="MICROSERVICIOS" style="text;html=1;align=center;verticalAlign=middle;resizable=0;points=[];autosize=1;strokeColor=none;fillColor=none;fontSize=30;fontFamily=Helvetica;fontColor=#333333;fontStyle=1;labelBackgroundColor=#FFFFFF;" vertex="1" parent="1">
                    <mxGeometry x="420" y="10" width="290" height="50" as="geometry"/>
                </mxCell>
                <mxCell id="63" value="" style="endArrow=none;html=1;fontFamily=Helvetica;fontSize=30;fontColor=#333333;strokeWidth=3;labelBackgroundColor=#FFFFFF;strokeColor=#333333;" edge="1" parent="1">
                    <mxGeometry width="50" height="50" relative="1" as="geometry">
                        <mxPoint x="360" y="495" as="sourcePoint"/>
                        <mxPoint x="360" y="15" as="targetPoint"/>
                    </mxGeometry>
                </mxCell>
            </root>
        </mxGraphModel>
    </diagram>
</mxfile>